RobotoCondensed-Light.ufo
<glyph name="exclam" format="2">
  <advance width="438"/>
  <unicode hex="0021"/>
  <outline>
    <contour>
      <point x="276" y="1456" type="line"/>
      <point x="160" y="1456" type="line"/>
      <point x="167" y="406" type="line"/>
      <point x="269" y="406" type="line"/>
    </contour>
    <contour>
      <point x="150" y="72" type="curve" smooth="yes"/>
      <point x="150" y="26"/>
      <point x="178" y="-9"/>
      <point x="224" y="-9" type="curve" smooth="yes"/>
      <point x="270" y="-9"/>
      <point x="298" y="26"/>
      <point x="298" y="72" type="curve" smooth="yes"/>
      <point x="298" y="117"/>
      <point x="270" y="153"/>
      <point x="224" y="153" type="curve" smooth="yes"/>
      <point x="178" y="153"/>
      <point x="150" y="117"/>
    </contour>
  </outline>
</glyph>
<glyph name="ampersand" format="2">
  <advance width="1100"/>
  <unicode hex="0026"/>
  <outline>
    <contour>
      <point x="351" y="786" type="line"/>
      <point x="215" y="665"/>
      <point x="110" y="547"/>
      <point x="110" y="372" type="curve"/>
      <point x="110" y="138"/>
      <point x="256" y="-20"/>
      <point x="493" y="-20" type="curve"/>
      <point x="625" y="-20"/>
      <point x="752" y="49"/>
      <point x="841" y="161" type="curve" smooth="yes"/>
      <point x="850" y="173"/>
      <point x="850" y="179"/>
      <point x="859" y="191" type="curve" smooth="yes"/>
      <point x="951" y="309"/>
      <point x="999" y="462"/>
      <point x="999" y="653" type="curve"/>
      <point x="897" y="653" type="line"/>
      <point x="897" y="313"/>
      <point x="699" y="84"/>
      <point x="493" y="84" type="curve" smooth="yes"/>
      <point x="309" y="84"/>
      <point x="221" y="219"/>
      <point x="221" y="372" type="curve"/>
      <point x="221" y="438"/>
      <point x="240" y="541"/>
      <point x="379" y="679" type="curve" smooth="yes"/>
      <point x="607" y="884" type="line" smooth="yes"/>
      <point x="690" y="958"/>
      <point x="770" y="1059"/>
      <point x="770" y="1190" type="curve"/>
      <point x="770" y="1346"/>
      <point x="671" y="1477"/>
      <point x="503" y="1477" type="curve" smooth="yes"/>
      <point x="330" y="1477"/>
      <point x="218" y="1349"/>
      <point x="218" y="1144" type="curve" smooth="yes"/>
      <point x="218" y="995"/>
      <point x="300" y="872"/>
      <point x="426" y="700" type="curve" smooth="yes"/>
      <point x="926" y="0" type="line"/>
      <point x="1061" y="0" type="line"/>
      <point x="468" y="826" type="line" smooth="yes"/>
      <point x="381" y="946"/>
      <point x="329" y="1052"/>
      <point x="329" y="1148" type="curve" smooth="yes"/>
      <point x="329" y="1270"/>
      <point x="389" y="1373"/>
      <point x="503" y="1373" type="curve" smooth="yes"/>
      <point x="608" y="1373"/>
      <point x="666" y="1284"/>
      <point x="666" y="1190" type="curve"/>
      <point x="666" y="1091"/>
      <point x="616" y="1023"/>
      <point x="546" y="961" type="curve"/>
    </contour>
  </outline>
</glyph>
<glyph name="A" format="2">
  <advance width="1124"/>
  <unicode hex="0041"/>
  <anchor x="1078" y="0" name="right"/>
  <anchor x="1104" y="1606" name="top0315"/>
  <anchor x="296" y="1454" name="tonos"/>
  <anchor x="564" y="1606" name="top"/>
  <anchor x="580" y="0" name="bottom"/>
  <anchor x="1104" y="1600" name="top_dd"/>
  <anchor x="1060" y="0" name="ogonek"/>
  <anchor x="1104" y="-407" name="bottom_dd"/>
  <outline>
    <contour>
      <point x="584" y="1368" type="line"/>
      <point x="590" y="1456" type="line"/>
      <point x="509" y="1456" type="line"/>
      <point x="46" y="0" type="line"/>
      <point x="164" y="0" type="line"/>
    </contour>
    <contour>
      <point x="960" y="0" type="line"/>
      <point x="1079" y="0" type="line"/>
      <point x="615" y="1456" type="line"/>
      <point x="535" y="1456" type="line"/>
      <point x="540" y="1368" type="line"/>
    </contour>
    <contour>
      <point x="895" y="514" type="line"/>
      <point x="238" y="514" type="line"/>
      <point x="238" y="407" type="line"/>
      <point x="895" y="407" type="line"/>
    </contour>
  </outline>
</glyph>
<glyph name="D" format="2">
  <advance width="1168"/>
  <unicode hex="0044"/>
  <anchor x="527" y="10" name="bottom"/>
  <anchor x="525" y="1612" name="top"/>
  <anchor x="1148" y="1612" name="top0315"/>
  <anchor x="304" y="738" name="cross"/>
  <anchor x="1148" y="1600" name="top_dd"/>
  <anchor x="1148" y="-407" name="bottom_dd"/>
  <outline>
    <contour>
      <point x="507" y="0" type="line"/>
      <point x="825" y="0"/>
      <point x="1032" y="205"/>
      <point x="1032" y="582" type="curve"/>
      <point x="1032" y="874" type="line"/>
      <point x="1032" y="1250"/>
      <point x="823" y="1456"/>
      <point x="516" y="1456" type="curve"/>
      <point x="228" y="1456" type="line"/>
      <point x="228" y="1349" type="line"/>
      <point x="516" y="1349" type="line"/>
      <point x="766" y="1349"/>
      <point x="919" y="1187"/>
      <point x="919" y="876" type="curve"/>
      <point x="919" y="582" type="line" smooth="yes"/>
      <point x="919" y="276"/>
      <point x="768" y="107"/>
      <point x="507" y="107" type="curve"/>
      <point x="235" y="107" type="line"/>
      <point x="233" y="0" type="line"/>
    </contour>
    <contour>
      <point x="287" y="1456" type="line"/>
      <point x="173" y="1456" type="line"/>
      <point x="173" y="0" type="line"/>
      <point x="287" y="0" type="line"/>
    </contour>
  </outline>
</glyph>
<glyph name="E" format="2">
  <advance width="1018"/>
  <unicode hex="0045"/>
  <anchor x="998" y="1612" name="top0315"/>
  <anchor x="-25" y="1456" name="tonos"/>
  <anchor x="540" y="1612" name="top"/>
  <anchor x="540" y="10" name="bottom"/>
  <anchor x="998" y="1600" name="top_dd"/>
  <anchor x="880" y="0" name="ogonek"/>
  <anchor x="998" y="-407" name="bottom_dd"/>
  <outline>
    <contour>
      <point x="936" y="107" type="line"/>
      <point x="256" y="107" type="line"/>
      <point x="256" y="0" type="line"/>
      <point x="936" y="0" type="line"/>
    </contour>
    <contour>
      <point x="287" y="1456" type="line"/>
      <point x="173" y="1456" type="line"/>
      <point x="173" y="0" type="line"/>
      <point x="287" y="0" type="line"/>
    </contour>
    <contour>
      <point x="851" y="804" type="line"/>
      <point x="256" y="804" type="line"/>
      <point x="256" y="697" type="line"/>
      <point x="851" y="697" type="line"/>
    </contour>
    <contour>
      <point x="931" y="1456" type="line"/>
      <point x="256" y="1456" type="line"/>
      <point x="256" y="1349" type="line"/>
      <point x="931" y="1349" type="line"/>
    </contour>
  </outline>
</glyph>
<glyph name="F" format="2">
  <advance width="1004"/>
  <unicode hex="0046"/>
  <anchor x="466" y="10" name="bottom"/>
  <anchor x="540" y="1612" name="top"/>
  <anchor x="984" y="1612" name="top0315"/>
  <anchor x="299" y="337" name="cross"/>
  <anchor x="984" y="1600" name="top_dd"/>
  <anchor x="984" y="-407" name="bottom_dd"/>
  <outline>
    <contour>
      <point x="287" y="1456" type="line"/>
      <point x="173" y="1456" type="line"/>
      <point x="173" y="0" type="line"/>
      <point x="287" y="0" type="line"/>
    </contour>
    <contour>
      <point x="846" y="787" type="line"/>
      <point x="254" y="787" type="line"/>
      <point x="254" y="679" type="line"/>
      <point x="846" y="679" type="line"/>
    </contour>
    <contour>
      <point x="931" y="1456" type="line"/>
      <point x="254" y="1456" type="line"/>
      <point x="254" y="1349" type="line"/>
      <point x="931" y="1349" type="line"/>
    </contour>
  </outline>
</glyph>
<glyph name="G" format="2">
  <advance width="1216"/>
  <unicode hex="0047"/>
  <anchor x="595" y="1633" name="top"/>
  <anchor x="632" y="-5" name="bottom"/>
  <anchor x="1196" y="1600" name="top_dd"/>
  <anchor x="1196" y="-407" name="bottom_dd"/>
  <anchor x="1196" y="1633" name="top0315"/>
  <outline>
    <contour>
      <point x="1059" y="693" type="line"/>
      <point x="625" y="693" type="line"/>
      <point x="625" y="587" type="line"/>
      <point x="945" y="587" type="line"/>
      <point x="945" y="208" type="line"/>
      <point x="911" y="172"/>
      <point x="817" y="86"/>
      <point x="633" y="86" type="curve" smooth="yes"/>
      <point x="405" y="86"/>
      <point x="262" y="252"/>
      <point x="262" y="566" type="curve" smooth="yes"/>
      <point x="262" y="903" type="line" smooth="yes"/>
      <point x="262" y="1206"/>
      <point x="380" y="1369"/>
      <point x="616" y="1369" type="curve" smooth="yes"/>
      <point x="831" y="1369"/>
      <point x="924" y="1247"/>
      <point x="944" y="1046" type="curve"/>
      <point x="1058" y="1046" type="line"/>
      <point x="1039" y="1319"/>
      <point x="890" y="1476"/>
      <point x="616" y="1476" type="curve" smooth="yes"/>
      <point x="318" y="1476"/>
      <point x="147" y="1277"/>
      <point x="147" y="901" type="curve" smooth="yes"/>
      <point x="147" y="566" type="line" smooth="yes"/>
      <point x="147" y="183"/>
      <point x="342" y="-21"/>
      <point x="632" y="-21" type="curve" smooth="yes"/>
      <point x="893" y="-21"/>
      <point x="1015" y="111"/>
      <point x="1059" y="169" type="curve"/>
    </contour>
  </outline>
</glyph>
<glyph name="H" format="2">
  <advance width="1259"/>
  <unicode hex="0048"/>
  <anchor x="1085" y="0" name="right"/>
  <anchor x="1239" y="1612" name="top0315"/>
  <anchor x="-14" y="1457" name="tonos"/>
  <anchor x="619" y="1612" name="top"/>
  <anchor x="620" y="10" name="bottom"/>
  <anchor x="1239" y="1600" name="top_dd"/>
  <anchor x="1239" y="-407" name="bottom_dd"/>
  <outline>
    <contour>
      <point x="990" y="804" type="line"/>
      <point x="264" y="804" type="line"/>
      <point x="264" y="697" type="line"/>
      <point x="990" y="697" type="line"/>
    </contour>
    <contour>
      <point x="287" y="1456" type="line"/>
      <point x="173" y="1456" type="line"/>
      <point x="173" y="0" type="line"/>
      <point x="287" y="0" type="line"/>
    </contour>
    <contour>
      <point x="1085" y="1456" type="line"/>
      <point x="971" y="1456" type="line"/>
      <point x="971" y="0" type="line"/>
      <point x="1085" y="0" type="line"/>
    </contour>
  </outline>
</glyph>
<glyph name="K" format="2">
  <advance width="1124"/>
  <unicode hex="004B"/>
  <anchor x="1033" y="-16" name="right"/>
  <anchor x="1104" y="1560" name="top0315"/>
  <anchor x="527" y="1560" name="top"/>
  <anchor x="561" y="100" name="bottom"/>
  <anchor x="250" y="1229" name="cross"/>
  <anchor x="1104" y="1600" name="top_dd"/>
  <anchor x="1104" y="-407" name="bottom_dd"/>
  <outline>
    <contour>
      <point x="287" y="1456" type="line"/>
      <point x="173" y="1456" type="line"/>
      <point x="173" y="0" type="line"/>
      <point x="287" y="0" type="line"/>
    </contour>
    <contour>
      <point x="1040" y="1456" type="line"/>
      <point x="897" y="1456" type="line"/>
      <point x="447" y="880" type="line"/>
      <point x="234" y="616" type="line"/>
      <point x="247" y="476" type="line"/>
      <point x="516" y="789" type="line"/>
    </contour>
    <contour>
      <point x="941" y="0" type="line"/>
      <point x="1080" y="0" type="line"/>
      <point x="507" y="848" type="line"/>
      <point x="438" y="746" type="line"/>
    </contour>
  </outline>
</glyph>
<glyph name="L" format="2">
  <advance width="951"/>
  <unicode hex="004C"/>
  <anchor x="931" y="1573" name="top0315"/>
  <anchor x="231" y="1573" name="top"/>
  <anchor x="542" y="10" name="bottom"/>
  <anchor x="515" y="1455" name="caron"/>
  <anchor x="931" y="1600" name="top_dd"/>
  <anchor x="931" y="-407" name="bottom_dd"/>
  <anchor x="525" y="773" name="dot"/>
  <outline>
    <contour>
      <point x="887" y="107" type="line"/>
      <point x="257" y="107" type="line"/>
      <point x="257" y="0" type="line"/>
      <point x="887" y="0" type="line"/>
    </contour>
    <contour>
      <point x="288" y="1456" type="line"/>
      <point x="173" y="1456" type="line"/>
      <point x="173" y="0" type="line"/>
      <point x="288" y="0" type="line"/>
    </contour>
  </outline>
</glyph>
<glyph name="M" format="2">
  <advance width="1531"/>
  <unicode hex="004D"/>
  <anchor x="1351" y="0" name="right"/>
  <anchor x="765" y="10" name="bottom"/>
  <anchor x="768" y="1606" name="top"/>
  <anchor x="1511" y="1606" name="top0315"/>
  <anchor x="1511" y="1600" name="top_dd"/>
  <anchor x="1511" y="-407" name="bottom_dd"/>
  <outline>
    <contour>
      <point x="208" y="1456" type="line"/>
      <point x="720" y="0" type="line"/>
      <point x="808" y="0" type="line"/>
      <point x="1321" y="1456" type="line"/>
      <point x="1207" y="1456" type="line"/>
      <point x="765" y="176" type="line"/>
      <point x="323" y="1456" type="line"/>
    </contour>
    <contour>
      <point x="173" y="1456" type="line"/>
      <point x="173" y="0" type="line"/>
      <point x="287" y="0" type="line"/>
      <point x="287" y="634" type="line"/>
      <point x="273" y="1456" type="line"/>
    </contour>
    <contour>
      <point x="1258" y="1456" type="line"/>
      <point x="1244" y="634" type="line"/>
      <point x="1244" y="0" type="line"/>
      <point x="1358" y="0" type="line"/>
      <point x="1358" y="1456" type="line"/>
    </contour>
  </outline>
</glyph>
<glyph name="N" format="2">
  <advance width="1263"/>
  <unicode hex="004E"/>
  <anchor x="1088" y="0" name="right"/>
  <anchor x="627" y="10" name="bottom"/>
  <anchor x="630" y="1606" name="top"/>
  <anchor x="1243" y="1606" name="top0315"/>
  <anchor x="1243" y="1600" name="top_dd"/>
  <anchor x="1243" y="-407" name="bottom_dd"/>
  <outline>
    <contour>
      <point x="1089" y="1456" type="line"/>
      <point x="975" y="1456" type="line"/>
      <point x="975" y="215" type="line"/>
      <point x="288" y="1456" type="line"/>
      <point x="173" y="1456" type="line"/>
      <point x="173" y="0" type="line"/>
      <point x="288" y="0" type="line"/>
      <point x="288" y="1241" type="line"/>
      <point x="974" y="0" type="line"/>
      <point x="1089" y="0" type="line"/>
    </contour>
  </outline>
</glyph>
<glyph name="P" format="2">
  <advance width="1104"/>
  <unicode hex="0050"/>
  <anchor x="465" y="10" name="bottom"/>
  <anchor x="28" y="1454" name="tonos"/>
  <anchor x="513" y="1612" name="top"/>
  <anchor x="1084" y="1612" name="top0315"/>
  <anchor x="1084" y="1600" name="top_dd"/>
  <anchor x="1084" y="-407" name="bottom_dd"/>
  <outline>
    <contour>
      <point x="596" y="592" type="line"/>
      <point x="866" y="592"/>
      <point x="1011" y="752"/>
      <point x="1011" y="1021" type="curve"/>
      <point x="1011" y="1279"/>
      <point x="867" y="1456"/>
      <point x="596" y="1456" type="curve"/>
      <point x="173" y="1456" type="line"/>
      <point x="173" y="0" type="line"/>
      <point x="287" y="0" type="line"/>
      <point x="287" y="1349" type="line"/>
      <point x="596" y="1349" type="line"/>
      <point x="808" y="1349"/>
      <point x="897" y="1196"/>
      <point x="897" y="1019" type="curve"/>
      <point x="897" y="838"/>
      <point x="808" y="699"/>
      <point x="596" y="699" type="curve"/>
      <point x="251" y="699" type="line"/>
      <point x="251" y="592" type="line"/>
    </contour>
  </outline>
</glyph>
<glyph name="R" format="2">
  <advance width="1127"/>
  <unicode hex="0052"/>
  <anchor x="531" y="1606" name="top"/>
  <anchor x="531" y="10" name="bottom"/>
  <anchor x="1107" y="1600" name="top_dd"/>
  <anchor x="1107" y="-407" name="bottom_dd"/>
  <anchor x="1107" y="1606" name="top0315"/>
  <outline>
    <contour>
      <point x="171" y="1456" type="line"/>
      <point x="171" y="0" type="line"/>
      <point x="285" y="0" type="line"/>
      <point x="285" y="1349" type="line"/>
      <point x="570" y="1349" type="line" smooth="yes"/>
      <point x="768" y="1349"/>
      <point x="873" y="1225"/>
      <point x="873" y="1027" type="curve" smooth="yes"/>
      <point x="873" y="862"/>
      <point x="778" y="713"/>
      <point x="589" y="713" type="curve" smooth="yes"/>
      <point x="247" y="713" type="line"/>
      <point x="249" y="606" type="line"/>
      <point x="665" y="606" type="line"/>
      <point x="703" y="623" type="line"/>
      <point x="871" y="664"/>
      <point x="987" y="821"/>
      <point x="987" y="1027" type="curve" smooth="yes"/>
      <point x="987" y="1305"/>
      <point x="828" y="1456"/>
      <point x="570" y="1456" type="curve" smooth="yes"/>
    </contour>
    <contour>
      <point x="917" y="0" type="line"/>
      <point x="1040" y="0" type="line"/>
      <point x="1040" y="13" type="line"/>
      <point x="727" y="652" type="line"/>
      <point x="605" y="651" type="line"/>
    </contour>
  </outline>
</glyph>
<glyph name="U" format="2">
  <advance width="1169"/>
  <unicode hex="0055"/>
  <anchor x="709" y="0" name="right"/>
  <anchor x="1149" y="1606" name="top0315"/>
  <anchor x="590" y="1606" name="top"/>
  <anchor x="585" y="0" name="bottom"/>
  <anchor x="1149" y="1600" name="top_dd"/>
  <anchor x="808" y="39" name="ogonek"/>
  <anchor x="1149" y="-407" name="bottom_dd"/>
  <outline>
    <contour>
      <point x="904" y="1456" type="line"/>
      <point x="904" y="430" type="line" smooth="yes"/>
      <point x="904" y="176"/>
      <point x="771" y="86"/>
      <point x="585" y="86" type="curve" smooth="yes"/>
      <point x="400" y="86"/>
      <point x="267" y="176"/>
      <point x="267" y="430" type="curve" smooth="yes"/>
      <point x="267" y="1456" type="line"/>
      <point x="152" y="1456" type="line"/>
      <point x="152" y="430" type="line"/>
      <point x="152" y="102"/>
      <point x="340" y="-21"/>
      <point x="585" y="-21" type="curve" smooth="yes"/>
      <point x="823" y="-21"/>
      <point x="1018" y="102"/>
      <point x="1018" y="430" type="curve"/>
      <point x="1018" y="1456" type="line"/>
    </contour>
  </outline>
</glyph>
<glyph name="W" format="2">
  <advance width="1579"/>
  <unicode hex="0057"/>
  <anchor x="797" y="1606" name="top"/>
  <anchor x="796" y="10" name="bottom"/>
  <anchor x="1559" y="1600" name="top_dd"/>
  <anchor x="1559" y="-407" name="bottom_dd"/>
  <anchor x="1559" y="1606" name="top0315"/>
  <outline>
    <contour>
      <point x="485" y="386" type="line"/>
      <point x="403" y="0" type="line"/>
      <point x="490" y="0" type="line"/>
      <point x="768" y="1136" type="line"/>
      <point x="836" y="1456" type="line"/>
      <point x="746" y="1456" type="line"/>
    </contour>
    <contour>
      <point x="188" y="1456" type="line"/>
      <point x="71" y="1456" type="line"/>
      <point x="381" y="0" type="line"/>
      <point x="471" y="0" type="line"/>
      <point x="405" y="396" type="line"/>
    </contour>
    <contour>
      <point x="1185" y="397" type="line"/>
      <point x="1117" y="0" type="line"/>
      <point x="1207" y="0" type="line"/>
      <point x="1516" y="1456" type="line"/>
      <point x="1400" y="1456" type="line"/>
    </contour>
    <contour>
      <point x="848" y="1456" type="line"/>
      <point x="758" y="1456" type="line"/>
      <point x="825" y="1136" type="line"/>
      <point x="1099" y="0" type="line"/>
      <point x="1185" y="0" type="line"/>
      <point x="1104" y="386" type="line"/>
    </contour>
  </outline>
</glyph>
<glyph name="X" format="2">
  <advance width="1098"/>
  <unicode hex="0058"/>
  <anchor x="956" y="0" name="right"/>
  <anchor x="1078" y="1612" name="top0315"/>
  <anchor x="572" y="1612" name="top"/>
  <anchor x="565" y="10" name="bottom"/>
  <anchor x="550" y="745" name="cross"/>
  <anchor x="1078" y="1600" name="top_dd"/>
  <anchor x="1078" y="-407" name="bottom_dd"/>
  <outline>
    <contour>
      <point x="215" y="1456" type="line"/>
      <point x="79" y="1456" type="line"/>
      <point x="481" y="739" type="line"/>
      <point x="67" y="0" type="line"/>
      <point x="203" y="0" type="line"/>
      <point x="550" y="633" type="line"/>
      <point x="896" y="0" type="line"/>
      <point x="1032" y="0" type="line"/>
      <point x="619" y="739" type="line"/>
      <point x="1020" y="1456" type="line"/>
      <point x="884" y="1456" type="line"/>
      <point x="550" y="843" type="line"/>
    </contour>
  </outline>
</glyph>
<glyph name="Y" format="2">
  <advance width="1071"/>
  <unicode hex="0059"/>
  <anchor x="1051" y="1601" name="top0315"/>
  <anchor x="-36" y="1454" name="tonos"/>
  <anchor x="536" y="1601" name="top"/>
  <anchor x="535" y="5" name="bottom"/>
  <anchor x="534" y="588" name="cross"/>
  <anchor x="1051" y="1600" name="top_dd"/>
  <anchor x="1051" y="-407" name="bottom_dd"/>
  <outline>
    <contour>
      <point x="173" y="1456" type="line"/>
      <point x="39" y="1456" type="line"/>
      <point x="477" y="548" type="line"/>
      <point x="477" y="0" type="line"/>
      <point x="591" y="0" type="line"/>
      <point x="591" y="548" type="line"/>
      <point x="1029" y="1456" type="line"/>
      <point x="897" y="1456" type="line"/>
      <point x="534" y="665" type="line"/>
    </contour>
  </outline>
</glyph>
<glyph name="Z" format="2">
  <advance width="1069"/>
  <unicode hex="005A"/>
  <anchor x="536" y="1606" name="top"/>
  <anchor x="545" y="10" name="bottom"/>
  <anchor x="1049" y="1600" name="top_dd"/>
  <anchor x="1049" y="-407" name="bottom_dd"/>
  <anchor x="1049" y="1606" name="top0315"/>
  <outline>
    <contour>
      <point x="977" y="107" type="line"/>
      <point x="137" y="107" type="line"/>
      <point x="137" y="0" type="line"/>
      <point x="977" y="0" type="line"/>
    </contour>
    <contour>
      <point x="950" y="1366" type="line"/>
      <point x="950" y="1456" type="line"/>
      <point x="878" y="1456" type="line"/>
      <point x="95" y="95" type="line"/>
      <point x="95" y="0" type="line"/>
      <point x="167" y="0" type="line"/>
    </contour>
    <contour>
      <point x="900" y="1456" type="line"/>
      <point x="116" y="1456" type="line"/>
      <point x="116" y="1349" type="line"/>
      <point x="900" y="1349" type="line"/>
    </contour>
  </outline>
</glyph>
<glyph name="underscore" format="2">
  <advance width="790"/>
  <unicode hex="005F"/>
  <anchor x="391" y="157" name="_bottom"/>
  <outline>
    <contour>
      <point x="768" y="0" type="line"/>
      <point x="22" y="0" type="line"/>
      <point x="22" y="-104" type="line"/>
      <point x="768" y="-104" type="line"/>
    </contour>
  </outline>
</glyph>
<glyph name="grave" format="2">
  <advance width="585"/>
  <unicode hex="0060"/>
  <anchor x="364" y="1292" name="_top"/>
  <anchor x="364" y="1593" name="mkmktop_acc"/>
  <outline>
    <contour>
      <point x="226" y="1536" type="line"/>
      <point x="82" y="1536" type="line"/>
      <point x="308" y="1256" type="line"/>
      <point x="417" y="1256" type="line"/>
    </contour>
  </outline>
</glyph>
<glyph name="c" format="2">
  <advance width="930"/>
  <unicode hex="0063"/>
  <anchor x="472" y="-10" name="bottom"/>
  <anchor x="910" y="1290" name="top0315"/>
  <anchor x="472" y="1290" name="top"/>
  <anchor x="472" y="1290" name="marktop"/>
  <anchor x="910" y="1600" name="top_dd"/>
  <anchor x="910" y="-407" name="bottom_dd"/>
  <outline>
    <contour>
      <point x="491" y="83" type="curve" smooth="yes"/>
      <point x="284" y="83"/>
      <point x="210" y="226"/>
      <point x="210" y="480" type="curve" smooth="yes"/>
      <point x="210" y="602" type="line" smooth="yes"/>
      <point x="210" y="854"/>
      <point x="285" y="998"/>
      <point x="489" y="998" type="curve"/>
      <point x="625" y="998"/>
      <point x="728" y="919"/>
      <point x="736" y="717" type="curve"/>
      <point x="842" y="717" type="line"/>
      <point x="833" y="980"/>
      <point x="688" y="1102"/>
      <point x="489" y="1102" type="curve" smooth="yes"/>
      <point x="232" y="1102"/>
      <point x="99" y="930"/>
      <point x="99" y="602" type="curve" smooth="yes"/>
      <point x="99" y="480" type="line" smooth="yes"/>
      <point x="99" y="152"/>
      <point x="232" y="-21"/>
      <point x="491" y="-21" type="curve"/>
      <point x="677" y="-21"/>
      <point x="833" y="103"/>
      <point x="842" y="335" type="curve"/>
      <point x="736" y="335" type="line"/>
      <point x="726" y="142"/>
      <point x="614" y="83"/>
    </contour>
  </outline>
</glyph>
<glyph name="d" format="2">
  <advance width="999"/>
  <unicode hex="0064"/>
  <anchor x="979" y="1616" name="top0315"/>
  <anchor x="476" y="1616" name="top"/>
  <anchor x="531" y="0" name="bottom"/>
  <anchor x="737" y="1306" name="cross"/>
  <anchor x="952" y="1536" name="caron"/>
  <anchor x="979" y="1600" name="top_dd"/>
  <anchor x="979" y="-407" name="bottom_dd"/>
  <outline>
    <contour>
      <point x="736" y="210" type="line"/>
      <point x="744" y="0" type="line"/>
      <point x="848" y="0" type="line"/>
      <point x="848" y="1536" type="line"/>
      <point x="736" y="1536" type="line"/>
    </contour>
    <contour>
      <point x="108" y="490" type="line"/>
      <point x="108" y="141"/>
      <point x="245" y="-21"/>
      <point x="460" y="-21" type="curve" smooth="yes"/>
      <point x="674" y="-21"/>
      <point x="782" y="142"/>
      <point x="807" y="370" type="curve"/>
      <point x="807" y="694" type="line"/>
      <point x="777" y="939"/>
      <point x="672" y="1102"/>
      <point x="461" y="1102" type="curve" smooth="yes"/>
      <point x="245" y="1102"/>
      <point x="108" y="953"/>
      <point x="108" y="591" type="curve" smooth="yes"/>
    </contour>
    <contour>
      <point x="221" y="591" type="line"/>
      <point x="221" y="867"/>
      <point x="302" y="996"/>
      <point x="484" y="996" type="curve" smooth="yes"/>
      <point x="670" y="996"/>
      <point x="741" y="842"/>
      <point x="766" y="714" type="curve"/>
      <point x="766" y="344" type="line"/>
      <point x="733" y="204"/>
      <point x="651" y="86"/>
      <point x="483" y="86" type="curve" smooth="yes"/>
      <point x="302" y="86"/>
      <point x="221" y="213"/>
      <point x="221" y="490" type="curve" smooth="yes"/>
    </contour>
  </outline>
</glyph>
<glyph name="e" format="2">
  <advance width="938"/>
  <unicode hex="0065"/>
  <anchor x="914" y="1291" name="top0315"/>
  <anchor x="791" y="654" name="rhotichook"/>
  <anchor x="495" y="1291" name="top"/>
  <anchor x="496" y="2" name="bottom"/>
  <anchor x="914" y="1600" name="top_dd"/>
  <anchor x="709" y="42" name="ogonek"/>
  <anchor x="914" y="-407" name="bottom_dd"/>
  <outline>
    <contour>
      <point x="505" y="-21" type="curve"/>
      <point x="671" y="-21"/>
      <point x="769" y="46"/>
      <point x="827" y="125" type="curve"/>
      <point x="770" y="199" type="line"/>
      <point x="703" y="121"/>
      <point x="622" y="83"/>
      <point x="510" y="83" type="curve" smooth="yes"/>
      <point x="328" y="83"/>
      <point x="207" y="207"/>
      <point x="207" y="470" type="curve" smooth="yes"/>
      <point x="207" y="594" type="line" smooth="yes"/>
      <point x="207" y="885"/>
      <point x="321" y="998"/>
      <point x="487" y="998" type="curve"/>
      <point x="656" y="998"/>
      <point x="734" y="875"/>
      <point x="738" y="664" type="curve"/>
      <point x="738" y="636" type="line"/>
      <point x="162" y="636" type="line"/>
      <point x="162" y="532" type="line"/>
      <point x="850" y="532" type="line"/>
      <point x="850" y="625" type="line" smooth="yes"/>
      <point x="850" y="949"/>
      <point x="724" y="1102"/>
      <point x="487" y="1102" type="curve" smooth="yes"/>
      <point x="280" y="1102"/>
      <point x="96" y="955"/>
      <point x="96" y="594" type="curve" smooth="yes"/>
      <point x="96" y="470" type="line" smooth="yes"/>
      <point x="96" y="135"/>
      <point x="265" y="-21"/>
    </contour>
  </outline>
</glyph>
<glyph name="g" format="2">
  <advance width="996"/>
  <unicode hex="0067"/>
  <anchor x="491" y="1290" name="top"/>
  <anchor x="485" y="-447" name="bottom"/>
  <anchor x="976" y="1600" name="top_dd"/>
  <anchor x="976" y="-407" name="bottom_dd"/>
  <anchor x="976" y="1290" name="top0315"/>
  <outline>
    <contour>
      <point x="745" y="1082" type="line"/>
      <point x="737" y="844" type="line"/>
      <point x="737" y="-31" type="line" smooth="yes"/>
      <point x="737" y="-247"/>
      <point x="646" y="-328"/>
      <point x="478" y="-328" type="curve" smooth="yes"/>
      <point x="384" y="-328"/>
      <point x="294" y="-286"/>
      <point x="220" y="-202" type="curve"/>
      <point x="168" y="-282" type="line"/>
      <point x="241" y="-376"/>
      <point x="378" y="-431"/>
      <point x="486" y="-431" type="curve" smooth="yes"/>
      <point x="707" y="-431"/>
      <point x="848" y="-309"/>
      <point x="848" y="-27" type="curve" smooth="yes"/>
      <point x="848" y="1082" type="line"/>
    </contour>
    <contour>
      <point x="110" y="490" type="line"/>
      <point x="110" y="141"/>
      <point x="244" y="-21"/>
      <point x="460" y="-21" type="curve" smooth="yes"/>
      <point x="675" y="-21"/>
      <point x="782" y="142"/>
      <point x="809" y="370" type="curve"/>
      <point x="809" y="694" type="line"/>
      <point x="777" y="939"/>
      <point x="672" y="1102"/>
      <point x="461" y="1102" type="curve" smooth="yes"/>
      <point x="242" y="1102"/>
      <point x="110" y="953"/>
      <point x="110" y="591" type="curve" smooth="yes"/>
    </contour>
    <contour>
      <point x="221" y="591" type="line"/>
      <point x="221" y="867"/>
      <point x="303" y="996"/>
      <point x="485" y="996" type="curve" smooth="yes"/>
      <point x="670" y="996"/>
      <point x="739" y="842"/>
      <point x="764" y="714" type="curve"/>
      <point x="764" y="344" type="line"/>
      <point x="732" y="204"/>
      <point x="652" y="86"/>
      <point x="483" y="86" type="curve" smooth="yes"/>
      <point x="303" y="86"/>
      <point x="221" y="213"/>
      <point x="221" y="490" type="curve" smooth="yes"/>
    </contour>
  </outline>
</glyph>
<glyph name="h" format="2">
  <advance width="986"/>
  <unicode hex="0068"/>
  <anchor x="840" y="0" name="right"/>
  <anchor x="966" y="1611" name="top0315"/>
  <anchor x="431" y="1611" name="top"/>
  <anchor x="508" y="10" name="bottom"/>
  <anchor x="275" y="1306" name="cross"/>
  <anchor x="966" y="1600" name="top_dd"/>
  <anchor x="966" y="-407" name="bottom_dd"/>
  <outline>
    <contour>
      <point x="260" y="1536" type="line"/>
      <point x="148" y="1536" type="line"/>
      <point x="148" y="0" type="line"/>
      <point x="260" y="0" type="line"/>
    </contour>
    <contour>
      <point x="234" y="608" type="line"/>
      <point x="238" y="770"/>
      <point x="337" y="996"/>
      <point x="521" y="996" type="curve" smooth="yes"/>
      <point x="650" y="996"/>
      <point x="729" y="927"/>
      <point x="729" y="706" type="curve" smooth="yes"/>
      <point x="729" y="0" type="line"/>
      <point x="840" y="0" type="line"/>
      <point x="840" y="705" type="line" smooth="yes"/>
      <point x="840" y="990"/>
      <point x="730" y="1102"/>
      <point x="550" y="1102" type="curve" smooth="yes"/>
      <point x="339" y="1102"/>
      <point x="197" y="893"/>
      <point x="187" y="637" type="curve"/>
    </contour>
  </outline>
</glyph>
<glyph name="i" format="2">
  <advance width="432"/>
  <unicode hex="0069"/>
  <anchor x="412" y="1600" name="top0315"/>
  <anchor x="230" y="654" name="rhotichook"/>
  <anchor x="220" y="1600" name="top"/>
  <anchor x="215" y="10" name="bottom"/>
  <anchor x="412" y="1600" name="top_dd"/>
  <anchor x="264" y="0" name="ogonek"/>
  <anchor x="412" y="-407" name="bottom_dd"/>
  <outline>
    <contour>
      <point x="272" y="1082" type="line"/>
      <point x="161" y="1082" type="line"/>
      <point x="161" y="0" type="line"/>
      <point x="272" y="0" type="line"/>
    </contour>
    <contour>
      <point x="144" y="1394" type="curve" smooth="yes"/>
      <point x="144" y="1349"/>
      <point x="171" y="1314"/>
      <point x="217" y="1314" type="curve"/>
      <point x="264" y="1314"/>
      <point x="291" y="1349"/>
      <point x="291" y="1394" type="curve"/>
      <point x="291" y="1440"/>
      <point x="264" y="1476"/>
      <point x="217" y="1476" type="curve"/>
      <point x="171" y="1476"/>
      <point x="144" y="1440"/>
    </contour>
  </outline>
</glyph>
<glyph name="k" format="2">
  <advance width="889"/>
  <unicode hex="006B"/>
  <anchor x="480" y="1612" name="marktop"/>
  <anchor x="760" y="1612" name="top0315"/>
  <anchor x="480" y="1612" name="top"/>
  <anchor x="460" y="92" name="bottom"/>
  <anchor x="261" y="1289" name="cross"/>
  <anchor x="869" y="1600" name="top_dd"/>
  <anchor x="869" y="-407" name="bottom_dd"/>
  <outline>
    <contour>
      <point x="260" y="1536" type="line"/>
      <point x="149" y="1536" type="line"/>
      <point x="149" y="0" type="line"/>
      <point x="260" y="0" type="line"/>
    </contour>
    <contour>
      <point x="827" y="1082" type="line"/>
      <point x="689" y="1082" type="line"/>
      <point x="353" y="678" type="line"/>
      <point x="205" y="490" type="line"/>
      <point x="219" y="370" type="line"/>
      <point x="409" y="580" type="line"/>
    </contour>
    <contour>
      <point x="730" y="0" type="line"/>
      <point x="863" y="0" type="line"/>
      <point x="421" y="666" type="line"/>
      <point x="360" y="561" type="line"/>
    </contour>
  </outline>
</glyph>
<glyph name="l" format="2">
  <advance width="432"/>
  <unicode hex="006C"/>
  <anchor x="218" y="10" name="bottom"/>
  <anchor x="218" y="1685" name="top"/>
  <anchor x="463" y="1522" name="marktop"/>
  <anchor x="412" y="-407" name="bottom_dd"/>
  <anchor x="400" y="1536" name="caron"/>
  <anchor x="412" y="1600" name="top_dd"/>
  <anchor x="412" y="1685" name="top0315"/>
  <anchor x="389" y="785" name="dot"/>
  <outline>
    <contour>
      <point x="272" y="1536" type="line"/>
      <point x="161" y="1536" type="line"/>
      <point x="161" y="0" type="line"/>
      <point x="272" y="0" type="line"/>
    </contour>
  </outline>
</glyph>
<glyph name="m" format="2">
  <advance width="1562"/>
  <unicode hex="006D"/>
  <anchor x="781" y="10" name="bottom"/>
  <anchor x="1542" y="1290" name="top0315"/>
  <anchor x="786" y="1290" name="top"/>
  <anchor x="786" y="1290" name="marktop"/>
  <anchor x="1542" y="1600" name="top_dd"/>
  <anchor x="1542" y="-407" name="bottom_dd"/>
  <outline>
    <contour>
      <point x="255" y="859" type="line"/>
      <point x="250" y="1082" type="line"/>
      <point x="144" y="1082" type="line"/>
      <point x="144" y="0" type="line"/>
      <point x="255" y="0" type="line"/>
    </contour>
    <contour>
      <point x="235" y="608" type="line"/>
      <point x="238" y="770"/>
      <point x="308" y="996"/>
      <point x="510" y="996" type="curve" smooth="yes"/>
      <point x="638" y="996"/>
      <point x="725" y="929"/>
      <point x="725" y="716" type="curve"/>
      <point x="725" y="0" type="line"/>
      <point x="837" y="0" type="line"/>
      <point x="837" y="720" type="line"/>
      <point x="837" y="993"/>
      <point x="719" y="1102"/>
      <point x="544" y="1102" type="curve" smooth="yes"/>
      <point x="320" y="1102"/>
      <point x="192" y="893"/>
      <point x="181" y="637" type="curve"/>
    </contour>
    <contour>
      <point x="836" y="702" type="line"/>
      <point x="840" y="830"/>
      <point x="924" y="995"/>
      <point x="1092" y="996" type="curve" smooth="yes"/>
      <point x="1221" y="997"/>
      <point x="1309" y="934"/>
      <point x="1309" y="707" type="curve" smooth="yes"/>
      <point x="1309" y="0" type="line"/>
      <point x="1419" y="0" type="line"/>
      <point x="1419" y="706" type="line" smooth="yes"/>
      <point x="1419" y="986"/>
      <point x="1311" y="1102"/>
      <point x="1121" y="1102" type="curve" smooth="yes"/>
      <point x="902" y="1102"/>
      <point x="771" y="909"/>
      <point x="762" y="698" type="curve"/>
    </contour>
  </outline>
</glyph>
<glyph name="n" format="2">
  <advance width="987"/>
  <unicode hex="006E"/>
  <anchor x="840" y="0" name="right"/>
  <anchor x="498" y="10" name="bottom"/>
  <anchor x="503" y="1290" name="top"/>
  <anchor x="503" y="1290" name="marktop"/>
  <anchor x="967" y="-407" name="bottom_dd"/>
  <anchor x="6" y="1537" name="caron"/>
  <anchor x="967" y="1600" name="top_dd"/>
  <anchor x="967" y="1290" name="top0315"/>
  <outline>
    <contour>
      <point x="260" y="851" type="line"/>
      <point x="255" y="1082" type="line"/>
      <point x="148" y="1082" type="line"/>
      <point x="148" y="0" type="line"/>
      <point x="260" y="0" type="line"/>
    </contour>
    <contour>
      <point x="234" y="608" type="line"/>
      <point x="238" y="770"/>
      <point x="337" y="996"/>
      <point x="521" y="996" type="curve" smooth="yes"/>
      <point x="650" y="996"/>
      <point x="729" y="927"/>
      <point x="729" y="706" type="curve" smooth="yes"/>
      <point x="729" y="0" type="line"/>
      <point x="840" y="0" type="line"/>
      <point x="840" y="705" type="line" smooth="yes"/>
      <point x="840" y="990"/>
      <point x="730" y="1102"/>
      <point x="550" y="1102" type="curve" smooth="yes"/>
      <point x="339" y="1102"/>
      <point x="197" y="893"/>
      <point x="187" y="637" type="curve"/>
    </contour>
  </outline>
</glyph>
<glyph name="p" format="2">
  <advance width="996"/>
  <unicode hex="0070"/>
  <anchor x="202" y="-407" name="bottom"/>
  <anchor x="976" y="1280" name="top0315"/>
  <anchor x="533" y="1280" name="top"/>
  <anchor x="533" y="1280" name="marktop"/>
  <anchor x="976" y="1600" name="top_dd"/>
  <anchor x="976" y="-407" name="bottom_dd"/>
  <outline>
    <contour>
      <point x="259" y="874" type="line"/>
      <point x="251" y="1082" type="line"/>
      <point x="148" y="1082" type="line"/>
      <point x="148" y="-416" type="line"/>
      <point x="259" y="-416" type="line"/>
    </contour>
    <contour>
      <point x="887" y="591" type="line"/>
      <point x="887" y="953"/>
      <point x="760" y="1102"/>
      <point x="537" y="1102" type="curve" smooth="yes"/>
      <point x="326" y="1102"/>
      <point x="216" y="939"/>
      <point x="185" y="694" type="curve"/>
      <point x="185" y="361" type="line"/>
      <point x="211" y="138"/>
      <point x="323" y="-21"/>
      <point x="539" y="-21" type="curve" smooth="yes"/>
      <point x="760" y="-21"/>
      <point x="887" y="141"/>
      <point x="887" y="490" type="curve" smooth="yes"/>
    </contour>
    <contour>
      <point x="776" y="490" type="line"/>
      <point x="776" y="213"/>
      <point x="692" y="83"/>
      <point x="512" y="83" type="curve" smooth="yes"/>
      <point x="343" y="83"/>
      <point x="260" y="200"/>
      <point x="229" y="335" type="curve"/>
      <point x="229" y="714" type="line"/>
      <point x="253" y="842"/>
      <point x="325" y="996"/>
      <point x="510" y="996" type="curve" smooth="yes"/>
      <point x="692" y="996"/>
      <point x="776" y="867"/>
      <point x="776" y="591" type="curve" smooth="yes"/>
    </contour>
  </outline>
</glyph>
<glyph name="q" format="2">
  <advance width="1004"/>
  <unicode hex="0071"/>
  <anchor x="793" y="-407" name="bottom"/>
  <anchor x="984" y="1290" name="top0315"/>
  <anchor x="471" y="1290" name="top"/>
  <anchor x="471" y="1290" name="marktop"/>
  <anchor x="984" y="1600" name="top_dd"/>
  <anchor x="984" y="-407" name="bottom_dd"/>
  <outline>
    <contour>
      <point x="736" y="-416" type="line"/>
      <point x="847" y="-416" type="line"/>
      <point x="847" y="1082" type="line"/>
      <point x="743" y="1082" type="line"/>
      <point x="736" y="874" type="line"/>
    </contour>
    <contour>
      <point x="108" y="490" type="line"/>
      <point x="108" y="141"/>
      <point x="240" y="-21"/>
      <point x="462" y="-21" type="curve" smooth="yes"/>
      <point x="676" y="-21"/>
      <point x="788" y="142"/>
      <point x="814" y="370" type="curve"/>
      <point x="814" y="694" type="line"/>
      <point x="783" y="939"/>
      <point x="674" y="1102"/>
      <point x="463" y="1102" type="curve" smooth="yes"/>
      <point x="240" y="1102"/>
      <point x="108" y="953"/>
      <point x="108" y="591" type="curve" smooth="yes"/>
    </contour>
    <contour>
      <point x="221" y="591" type="line"/>
      <point x="221" y="867"/>
      <point x="304" y="998"/>
      <point x="486" y="998" type="curve" smooth="yes"/>
      <point x="670" y="998"/>
      <point x="747" y="838"/>
      <point x="771" y="714" type="curve"/>
      <point x="771" y="344" type="line"/>
      <point x="738" y="203"/>
      <point x="653" y="83"/>
      <point x="485" y="83" type="curve" smooth="yes"/>
      <point x="304" y="83"/>
      <point x="221" y="213"/>
      <point x="221" y="490" type="curve" smooth="yes"/>
    </contour>
  </outline>
</glyph>
<glyph name="r" format="2">
  <advance width="620"/>
  <unicode hex="0072"/>
  <anchor x="364" y="1290" name="top"/>
  <anchor x="210" y="15" name="bottom"/>
  <anchor x="600" y="1600" name="top_dd"/>
  <anchor x="600" y="-407" name="bottom_dd"/>
  <anchor x="600" y="1290" name="top0315"/>
  <outline>
    <contour>
      <point x="260" y="903" type="line"/>
      <point x="257" y="1082" type="line"/>
      <point x="148" y="1082" type="line"/>
      <point x="148" y="0" type="line"/>
      <point x="260" y="0" type="line"/>
    </contour>
    <contour>
      <point x="574" y="1090" type="line"/>
      <point x="562" y="1096"/>
      <point x="532" y="1102"/>
      <point x="507" y="1102" type="curve"/>
      <point x="299" y="1102"/>
      <point x="203" y="882"/>
      <point x="203" y="601" type="curve"/>
      <point x="242" y="618" type="line"/>
      <point x="250" y="823"/>
      <point x="334" y="985"/>
      <point x="503" y="985" type="curve"/>
      <point x="529" y="985"/>
      <point x="550" y="983"/>
      <point x="572" y="978" type="curve"/>
    </contour>
  </outline>
</glyph>
<glyph name="t" format="2">
  <advance width="595"/>
  <unicode hex="0074"/>
  <anchor x="476" y="1325" name="marktop"/>
  <anchor x="575" y="1510" name="top0315"/>
  <anchor x="266" y="1510" name="top"/>
  <anchor x="387" y="0" name="bottom"/>
  <anchor x="288" y="667" name="cross"/>
  <anchor x="452" y="1609" name="caron"/>
  <anchor x="575" y="1600" name="top_dd"/>
  <anchor x="575" y="-407" name="bottom_dd"/>
  <outline>
    <contour>
      <point x="500" y="1082" type="line"/>
      <point x="38" y="1082" type="line"/>
      <point x="38" y="982" type="line"/>
      <point x="500" y="982" type="line"/>
    </contour>
    <contour>
      <point x="204" y="1359" type="line"/>
      <point x="204" y="264" type="line"/>
      <point x="204" y="47"/>
      <point x="289" y="-20"/>
      <point x="405" y="-20" type="curve" smooth="yes"/>
      <point x="447" y="-20"/>
      <point x="490" y="-13"/>
      <point x="514" y="-4" type="curve"/>
      <point x="511" y="98" type="line"/>
      <point x="489" y="93"/>
      <point x="460" y="88"/>
      <point x="430" y="88" type="curve" smooth="yes"/>
      <point x="370" y="88"/>
      <point x="316" y="114"/>
      <point x="316" y="264" type="curve"/>
      <point x="316" y="1359" type="line"/>
    </contour>
  </outline>
</glyph>
<glyph name="u" format="2">
  <advance width="986"/>
  <unicode hex="0075"/>
  <anchor x="491" y="0" name="bottom"/>
  <anchor x="794" y="654" name="rhotichook"/>
  <anchor x="501" y="1292" name="top"/>
  <anchor x="966" y="1292" name="top0315"/>
  <anchor x="449" y="0" name="bottomu"/>
  <anchor x="966" y="1600" name="top_dd"/>
  <anchor x="833" y="0" name="ogonek"/>
  <anchor x="966" y="-407" name="bottom_dd"/>
  <outline>
    <contour>
      <point x="726" y="250" type="line"/>
      <point x="731" y="0" type="line"/>
      <point x="838" y="0" type="line"/>
      <point x="838" y="1082" type="line"/>
      <point x="726" y="1082" type="line"/>
    </contour>
    <contour>
      <point x="747" y="451" type="line"/>
      <point x="747" y="257"/>
      <point x="675" y="87"/>
      <point x="458" y="87" type="curve" smooth="yes"/>
      <point x="349" y="87"/>
      <point x="256" y="158"/>
      <point x="256" y="387" type="curve"/>
      <point x="256" y="1082" type="line"/>
      <point x="145" y="1082" type="line"/>
      <point x="145" y="389" type="line"/>
      <point x="145" y="94"/>
      <point x="266" y="-20"/>
      <point x="444" y="-20" type="curve" smooth="yes"/>
      <point x="700" y="-20"/>
      <point x="802" y="181"/>
      <point x="802" y="453" type="curve"/>
    </contour>
  </outline>
</glyph>
<glyph name="v" format="2">
  <advance width="869"/>
  <unicode hex="0076"/>
  <anchor x="440" y="1280" name="top"/>
  <anchor x="439" y="10" name="bottom"/>
  <anchor x="849" y="1600" name="top_dd"/>
  <anchor x="849" y="-407" name="bottom_dd"/>
  <anchor x="849" y="1280" name="top0315"/>
  <outline>
    <contour>
      <point x="419" y="117" type="line"/>
      <point x="399" y="0" type="line"/>
      <point x="478" y="0" type="line"/>
      <point x="816" y="1082" type="line"/>
      <point x="701" y="1082" type="line"/>
    </contour>
    <contour>
      <point x="166" y="1082" type="line"/>
      <point x="51" y="1082" type="line"/>
      <point x="390" y="0" type="line"/>
      <point x="470" y="0" type="line"/>
      <point x="453" y="114" type="line"/>
    </contour>
  </outline>
</glyph>
<glyph name="w" format="2">
  <advance width="1337"/>
  <unicode hex="0077"/>
  <anchor x="665" y="10" name="bottom"/>
  <anchor x="1317" y="1292" name="top0315"/>
  <anchor x="662" y="1292" name="top"/>
  <anchor x="662" y="1292" name="marktop"/>
  <anchor x="1317" y="1600" name="top_dd"/>
  <anchor x="1317" y="-407" name="bottom_dd"/>
  <outline>
    <contour>
      <point x="397" y="251" type="line"/>
      <point x="351" y="0" type="line"/>
      <point x="427" y="0" type="line"/>
      <point x="658" y="860" type="line"/>
      <point x="697" y="1082" type="line"/>
      <point x="618" y="1082" type="line"/>
    </contour>
    <contour>
      <point x="183" y="1082" type="line"/>
      <point x="70" y="1082" type="line"/>
      <point x="333" y="0" type="line"/>
      <point x="413" y="0" type="line"/>
      <point x="376" y="246" type="line"/>
    </contour>
    <contour>
      <point x="959" y="250" type="line"/>
      <point x="918" y="0" type="line"/>
      <point x="996" y="0" type="line"/>
      <point x="1261" y="1082" type="line"/>
      <point x="1147" y="1082" type="line"/>
    </contour>
    <contour>
      <point x="712" y="1082" type="line"/>
      <point x="631" y="1082" type="line"/>
      <point x="667" y="861" type="line"/>
      <point x="903" y="0" type="line"/>
      <point x="980" y="0" type="line"/>
      <point x="930" y="259" type="line"/>
    </contour>
  </outline>
</glyph>
<glyph name="x" format="2">
  <advance width="881"/>
  <unicode hex="0078"/>
  <anchor x="757" y="0" name="right"/>
  <anchor x="861" y="1280" name="top0315"/>
  <anchor x="446" y="1280" name="top"/>
  <anchor x="451" y="10" name="bottom"/>
  <anchor x="443" y="553" name="cross"/>
  <anchor x="861" y="1600" name="top_dd"/>
  <anchor x="861" y="-407" name="bottom_dd"/>
  <outline>
    <contour>
      <point x="202" y="1082" type="line"/>
      <point x="72" y="1082" type="line"/>
      <point x="378" y="551" type="line"/>
      <point x="59" y="0" type="line"/>
      <point x="190" y="0" type="line"/>
      <point x="439" y="456" type="line"/>
      <point x="689" y="0" type="line"/>
      <point x="818" y="0" type="line"/>
      <point x="500" y="551" type="line"/>
      <point x="807" y="1082" type="line"/>
      <point x="676" y="1082" type="line"/>
      <point x="438" y="646" type="line"/>
    </contour>
  </outline>
</glyph>
<glyph name="y" format="2">
  <advance width="858"/>
  <unicode hex="0079"/>
  <anchor x="451" y="1292" name="marktop"/>
  <anchor x="644" y="654" name="rhotichook"/>
  <anchor x="838" y="1292" name="top0315"/>
  <anchor x="451" y="1292" name="top"/>
  <anchor x="619" y="-158" name="bottom"/>
  <anchor x="838" y="1600" name="top_dd"/>
  <anchor x="838" y="-407" name="bottom_dd"/>
  <outline>
    <contour>
      <point x="416" y="108" type="line"/>
      <point x="343" y="-133" type="line" smooth="yes"/>
      <point x="305" y="-263"/>
      <point x="253" y="-329"/>
      <point x="145" y="-329" type="curve" smooth="yes"/>
      <point x="136" y="-329"/>
      <point x="107" y="-325"/>
      <point x="95" y="-322" type="curve"/>
      <point x="95" y="-424" type="line"/>
      <point x="111" y="-430"/>
      <point x="152" y="-437"/>
      <point x="175" y="-437" type="curve" smooth="yes"/>
      <point x="340" y="-437"/>
      <point x="401" y="-272"/>
      <point x="432" y="-173" type="curve" smooth="yes"/>
      <point x="813" y="1082" type="line"/>
      <point x="694" y="1082" type="line"/>
    </contour>
    <contour>
      <point x="167" y="1082" type="line"/>
      <point x="46" y="1082" type="line"/>
      <point x="395" y="-21" type="line"/>
      <point x="477" y="29" type="line"/>
      <point x="446" y="155" type="line"/>
    </contour>
  </outline>
</glyph>
<glyph name="asciitilde" format="2">
  <advance width="1217"/>
  <unicode hex="007E"/>
  <outline>
    <contour>
      <point x="980" y="765" type="line"/>
      <point x="980" y="625"/>
      <point x="920" y="531"/>
      <point x="822" y="531" type="curve" smooth="yes"/>
      <point x="760" y="531"/>
      <point x="714" y="565"/>
      <point x="644" y="644" type="curve" smooth="yes"/>
      <point x="558" y="734"/>
      <point x="492" y="789"/>
      <point x="393" y="789" type="curve" smooth="yes"/>
      <point x="234" y="789"/>
      <point x="140" y="638"/>
      <point x="140" y="449" type="curve"/>
      <point x="240" y="450" type="line"/>
      <point x="240" y="597"/>
      <point x="296" y="679"/>
      <point x="393" y="679" type="curve" smooth="yes"/>
      <point x="458" y="679"/>
      <point x="503" y="642"/>
      <point x="571" y="567" type="curve" smooth="yes"/>
      <point x="660" y="472"/>
      <point x="723" y="422"/>
      <point x="822" y="422" type="curve" smooth="yes"/>
      <point x="979" y="422"/>
      <point x="1076" y="581"/>
      <point x="1076" y="765" type="curve"/>
    </contour>
  </outline>
</glyph>
<glyph name="cent" format="2">
  <advance width="977"/>
  <unicode hex="00A2"/>
  <outline>
    <contour>
      <point x="560" y="1318" type="line"/>
      <point x="449" y="1318" type="line"/>
      <point x="449" y="1049" type="line"/>
      <point x="560" y="1049" type="line"/>
    </contour>
    <contour>
      <point x="560" y="23" type="line"/>
      <point x="449" y="23" type="line"/>
      <point x="449" y="-245" type="line"/>
      <point x="560" y="-245" type="line"/>
    </contour>
    <component base="c" xOffset="17"/>
  </outline>
</glyph>
<glyph name="dieresis" format="2">
  <advance width="881"/>
  <unicode hex="00A8"/>
  <anchor x="436" y="1292" name="_top"/>
  <anchor x="437" y="1559" name="mkmktop_acc"/>
  <outline>
    <contour>
      <point x="113" y="1396" type="curve" smooth="yes"/>
      <point x="113" y="1351"/>
      <point x="144" y="1315"/>
      <point x="195" y="1315" type="curve" smooth="yes"/>
      <point x="246" y="1315"/>
      <point x="278" y="1351"/>
      <point x="278" y="1396" type="curve" smooth="yes"/>
      <point x="278" y="1441"/>
      <point x="246" y="1477"/>
      <point x="195" y="1477" type="curve" smooth="yes"/>
      <point x="144" y="1477"/>
      <point x="113" y="1441"/>
    </contour>
    <contour>
      <point x="551" y="1395" type="curve" smooth="yes"/>
      <point x="551" y="1350"/>
      <point x="582" y="1314"/>
      <point x="633" y="1314" type="curve" smooth="yes"/>
      <point x="684" y="1314"/>
      <point x="716" y="1350"/>
      <point x="716" y="1395" type="curve" smooth="yes"/>
      <point x="716" y="1440"/>
      <point x="684" y="1477"/>
      <point x="633" y="1477" type="curve" smooth="yes"/>
      <point x="582" y="1477"/>
      <point x="551" y="1440"/>
    </contour>
  </outline>
</glyph>
<glyph name="logicalnot" format="2">
  <advance width="982"/>
  <unicode hex="00AC"/>
  <outline>
    <contour>
      <point x="811" y="777" type="line"/>
      <point x="125" y="777" type="line"/>
      <point x="125" y="669" type="line"/>
      <point x="811" y="669" type="line"/>
    </contour>
    <contour>
      <point x="811" y="716" type="line"/>
      <point x="699" y="716" type="line"/>
      <point x="699" y="386" type="line"/>
      <point x="811" y="386" type="line"/>
    </contour>
  </outline>
</glyph>
<glyph name="macron" format="2">
  <advance width="785"/>
  <unicode hex="00AF"/>
  <anchor x="397" y="1282" name="_top"/>
  <anchor x="397" y="1559" name="mkmktop_acc"/>
  <outline>
    <contour>
      <point x="665" y="1441" type="line"/>
      <point x="136" y="1441" type="line"/>
      <point x="136" y="1342" type="line"/>
      <point x="665" y="1342" type="line"/>
    </contour>
  </outline>
</glyph>
<glyph name="plusminus" format="2">
  <advance width="954"/>
  <unicode hex="00B1"/>
  <outline>
    <contour>
      <point x="863" y="830" type="line"/>
      <point x="93" y="830" type="line"/>
      <point x="93" y="727" type="line"/>
      <point x="863" y="727" type="line"/>
    </contour>
    <contour>
      <point x="538" y="1267" type="line"/>
      <point x="437" y="1267" type="line"/>
      <point x="437" y="289" type="line"/>
      <point x="538" y="289" type="line"/>
    </contour>
    <component base="minus" xOffset="-30" yOffset="-685"/>
  </outline>
</glyph>
<glyph name="periodcentered" format="2">
  <advance width="468"/>
  <unicode hex="00B7"/>
  <outline>
    <contour>
      <point x="154" y="718" type="curve" smooth="yes"/>
      <point x="154" y="671"/>
      <point x="183" y="635"/>
      <point x="231" y="635" type="curve" smooth="yes"/>
      <point x="279" y="635"/>
      <point x="308" y="671"/>
      <point x="308" y="718" type="curve" smooth="yes"/>
      <point x="308" y="765"/>
      <point x="279" y="802"/>
      <point x="231" y="802" type="curve" smooth="yes"/>
      <point x="183" y="802"/>
      <point x="154" y="765"/>
    </contour>
  </outline>
</glyph>
<glyph name="cedilla" format="2">
  <advance width="461"/>
  <unicode hex="00B8"/>
  <anchor x="187" y="0" name="_bottom"/>
  <anchor x="187" y="-437" name="mkmkbottom_acc"/>
  <outline>
    <contour>
      <point x="148" y="0" type="line"/>
      <point x="124" y="-128" type="line"/>
      <point x="223" y="-139"/>
      <point x="269" y="-160"/>
      <point x="269" y="-237" type="curve" smooth="yes"/>
      <point x="269" y="-321"/>
      <point x="188" y="-356"/>
      <point x="106" y="-356" type="curve"/>
      <point x="112" y="-435" type="line"/>
      <point x="271" y="-435"/>
      <point x="360" y="-355"/>
      <point x="360" y="-235" type="curve" smooth="yes"/>
      <point x="360" y="-117"/>
      <point x="291" y="-75"/>
      <point x="224" y="-64" type="curve"/>
      <point x="233" y="0" type="line"/>
    </contour>
  </outline>
</glyph>
<glyph name="Oslash" format="2">
  <advance width="1208"/>
  <unicode hex="00D8"/>
  <anchor x="619" y="1674" name="top"/>
  <anchor x="1188" y="1600" name="top_dd"/>
  <anchor x="1188" y="1674" name="top0315"/>
  <outline>
    <contour>
      <point x="1097" y="1506" type="line"/>
      <point x="1003" y="1506" type="line"/>
      <point x="163" y="-84" type="line"/>
      <point x="256" y="-84" type="line"/>
    </contour>
    <component base="O"/>
  </outline>
</glyph>
<glyph name="oslash" format="2">
  <advance width="1002"/>
  <unicode hex="00F8"/>
  <anchor x="462" y="1289" name="top"/>
  <anchor x="982" y="1600" name="top_dd"/>
  <anchor x="982" y="1289" name="top0315"/>
  <outline>
    <contour>
      <point x="828" y="1214" type="line"/>
      <point x="745" y="1214" type="line"/>
      <point x="188" y="-140" type="line"/>
      <point x="271" y="-140" type="line"/>
    </contour>
    <component base="o"/>
  </outline>
</glyph>
<glyph name="thorn" format="2">
  <advance width="1012"/>
  <unicode hex="00FE"/>
  <outline>
    <contour>
      <point x="263" y="1536" type="line"/>
      <point x="153" y="1536" type="line"/>
      <point x="153" y="-416" type="line"/>
      <point x="263" y="-416" type="line"/>
    </contour>
    <contour>
      <point x="891" y="551" type="line"/>
      <point x="891" y="886"/>
      <point x="765" y="1102"/>
      <point x="541" y="1102" type="curve" smooth="yes"/>
      <point x="325" y="1102"/>
      <point x="207" y="926"/>
      <point x="176" y="664" type="curve"/>
      <point x="176" y="391" type="line"/>
      <point x="202" y="152"/>
      <point x="322" y="-20"/>
      <point x="544" y="-20" type="curve" smooth="yes"/>
      <point x="764" y="-20"/>
      <point x="891" y="207"/>
      <point x="891" y="530" type="curve" smooth="yes"/>
    </contour>
    <contour>
      <point x="780" y="530" type="line"/>
      <point x="780" y="279"/>
      <point x="696" y="84"/>
      <point x="516" y="84" type="curve" smooth="yes"/>
      <point x="347" y="84"/>
      <point x="265" y="213"/>
      <point x="233" y="366" type="curve"/>
      <point x="233" y="684" type="line"/>
      <point x="258" y="824"/>
      <point x="330" y="996"/>
      <point x="514" y="996" type="curve" smooth="yes"/>
      <point x="696" y="996"/>
      <point x="780" y="801"/>
      <point x="780" y="551" type="curve" smooth="yes"/>
    </contour>
  </outline>
</glyph>
<glyph name="Hbar" format="2">
  <advance width="1230"/>
  <unicode hex="0126"/>
  <anchor x="615" y="1612" name="top"/>
  <anchor x="615" y="10" name="bottom"/>
  <anchor x="1210" y="1612" name="top0315"/>
  <outline>
    <contour>
      <point x="1188" y="1125" type="line"/>
      <point x="42" y="1125" type="line"/>
      <point x="42" y="1026" type="line"/>
      <point x="1188" y="1026" type="line"/>
    </contour>
    <component base="H" xOffset="-17"/>
  </outline>
</glyph>
<glyph name="kgreenlandic" format="2">
  <advance width="979"/>
  <unicode hex="0138"/>
  <anchor x="505" y="1290" name="top"/>
  <anchor x="505" y="10" name="bottom"/>
  <anchor x="959" y="1290" name="top0315"/>
  <outline>
    <contour>
      <point x="267" y="1082" type="line"/>
      <point x="156" y="1082" type="line"/>
      <point x="156" y="0" type="line"/>
      <point x="267" y="0" type="line"/>
    </contour>
    <contour>
      <point x="873" y="1082" type="line"/>
      <point x="738" y="1082" type="line"/>
      <point x="373" y="604" type="line"/>
      <point x="216" y="604" type="line"/>
      <point x="228" y="495" type="line"/>
      <point x="425" y="495" type="line"/>
    </contour>
    <contour>
      <point x="771" y="0" type="line"/>
      <point x="912" y="0" type="line"/>
      <point x="434" y="604" type="line"/>
      <point x="365" y="511" type="line"/>
    </contour>
  </outline>
</glyph>
<glyph name="Lslash" format="2">
  <advance width="952"/>
  <unicode hex="0141"/>
  <anchor x="224" y="1573" name="top"/>
  <anchor x="536" y="10" name="bottom"/>
  <anchor x="932" y="1573" name="top0315"/>
  <outline>
    <contour>
      <point x="535" y="915" type="line"/>
      <point x="40" y="728" type="line"/>
      <point x="40" y="636" type="line"/>
      <point x="535" y="823" type="line"/>
    </contour>
    <component base="L" xOffset="-4"/>
  </outline>
</glyph>
<glyph name="lslash" format="2">
  <advance width="488"/>
  <unicode hex="0142"/>
  <anchor x="248" y="1685" name="top"/>
  <anchor x="248" y="10" name="bottom"/>
  <anchor x="468" y="1685" name="top0315"/>
  <outline>
    <contour>
      <point x="447" y="930" type="line"/>
      <point x="43" y="743" type="line"/>
      <point x="43" y="652" type="line"/>
      <point x="447" y="839" type="line"/>
    </contour>
    <component base="l" xOffset="27"/>
  </outline>
</glyph>
<glyph name="eng" format="2">
  <advance width="1002"/>
  <unicode hex="014B"/>
  <anchor x="671" y="-306" name="parenthesses.w1"/>
  <anchor x="498" y="10" name="markbottom"/>
  <anchor x="503" y="1290" name="top"/>
  <anchor x="498" y="10" name="bottom"/>
  <anchor x="982" y="1290" name="top0315"/>
  <outline>
    <contour>
      <point x="262" y="851" type="line"/>
      <point x="250" y="1082" type="line"/>
      <point x="151" y="1082" type="line"/>
      <point x="151" y="0" type="line"/>
      <point x="262" y="0" type="line"/>
    </contour>
    <contour>
      <point x="231" y="565" type="line"/>
      <point x="231" y="782"/>
      <point x="304" y="996"/>
      <point x="518" y="996" type="curve" smooth="yes"/>
      <point x="651" y="996"/>
      <point x="738" y="920"/>
      <point x="738" y="659" type="curve" smooth="yes"/>
      <point x="738" y="-89" type="line" smooth="yes"/>
      <point x="738" y="-244"/>
      <point x="683" y="-329"/>
      <point x="591" y="-329" type="curve" smooth="yes"/>
      <point x="566" y="-329"/>
      <point x="518" y="-321"/>
      <point x="499" y="-313" type="curve"/>
      <point x="488" y="-418" type="line"/>
      <point x="523" y="-431"/>
      <point x="554" y="-437"/>
      <point x="591" y="-437" type="curve" smooth="yes"/>
      <point x="751" y="-437"/>
      <point x="848" y="-314"/>
      <point x="848" y="-89" type="curve" smooth="yes"/>
      <point x="848" y="660" type="line" smooth="yes"/>
      <point x="848" y="973"/>
      <point x="737" y="1102"/>
      <point x="546" y="1102" type="curve" smooth="yes"/>
      <point x="316" y="1102"/>
      <point x="194" y="877"/>
      <point x="194" y="564" type="curve"/>
    </contour>
  </outline>
</glyph>
<glyph name="OE" format="2">
  <advance width="1653"/>
  <unicode hex="0152"/>
  <anchor x="822" y="1617" name="top"/>
  <anchor x="822" y="-1" name="bottom"/>
  <anchor x="1633" y="1600" name="top_dd"/>
  <anchor x="1633" y="-407" name="bottom_dd"/>
  <anchor x="1633" y="1617" name="top0315"/>
  <outline>
    <contour>
      <point x="563" y="1476" type="curve" smooth="yes"/>
      <point x="294" y="1476"/>
      <point x="110" y="1233"/>
      <point x="110" y="880" type="curve"/>
      <point x="110" y="576" type="line"/>
      <point x="110" y="223"/>
      <point x="296" y="-21"/>
      <point x="565" y="-21" type="curve" smooth="yes"/>
      <point x="656" y="-21"/>
      <point x="744" y="-10"/>
      <point x="823" y="0" type="curve"/>
      <point x="823" y="107" type="line"/>
      <point x="749" y="91"/>
      <point x="655" y="83"/>
      <point x="565" y="83" type="curve" smooth="yes"/>
      <point x="356" y="83"/>
      <point x="221" y="273"/>
      <point x="221" y="576" type="curve"/>
      <point x="221" y="882" type="line"/>
      <point x="221" y="1188"/>
      <point x="354" y="1373"/>
      <point x="563" y="1373" type="curve" smooth="yes"/>
      <point x="657" y="1373"/>
      <point x="746" y="1365"/>
      <point x="823" y="1349" type="curve"/>
      <point x="823" y="1456" type="line"/>
      <point x="744" y="1467"/>
      <point x="655" y="1476"/>
    </contour>
    <component base="E" xOffset="596"/>
  </outline>
</glyph>
<glyph name="longs" format="2">
  <advance width="437"/>
  <unicode hex="017F"/>
  <anchor x="363" y="1718" name="top"/>
  <anchor x="211" y="10" name="bottom"/>
  <anchor x="417" y="1718" name="top0315"/>
  <outline>
    <contour>
      <point x="271" y="0" type="line"/>
      <point x="271" y="1216" type="line" smooth="yes"/>
      <point x="271" y="1365"/>
      <point x="332" y="1453"/>
      <point x="440" y="1453" type="curve" smooth="yes"/>
      <point x="477" y="1453"/>
      <point x="501" y="1448"/>
      <point x="526" y="1440" type="curve"/>
      <point x="540" y="1538" type="line"/>
      <point x="502" y="1551"/>
      <point x="463" y="1557"/>
      <point x="425" y="1557" type="curve" smooth="yes"/>
      <point x="260" y="1557"/>
      <point x="159" y="1436"/>
      <point x="159" y="1216" type="curve" smooth="yes"/>
      <point x="159" y="0" type="line"/>
    </contour>
  </outline>
</glyph>
<glyph name="Bhook" format="2">
  <advance width="1257"/>
  <unicode hex="0181"/>
  <outline>
    <contour>
      <point x="422" y="1349" type="line" name="hr00"/>
      <point x="422" y="1456" type="line"/>
      <point x="334" y="1456" type="line" smooth="yes"/>
      <point x="144" y="1456"/>
      <point x="42" y="1357"/>
      <point x="42" y="1172" type="curve" smooth="yes"/>
      <point x="42" y="1134"/>
      <point x="48" y="1093"/>
      <point x="57" y="1058" type="curve"/>
      <point x="149" y="1065" type="line"/>
      <point x="144" y="1085"/>
      <point x="138" y="1120"/>
      <point x="138" y="1148" type="curve" smooth="yes"/>
      <point x="138" y="1278"/>
      <point x="202" y="1349"/>
      <point x="334" y="1349" type="curve" smooth="yes"/>
    </contour>
    <component base="B" xOffset="159"/>
  </outline>
</glyph>
<glyph name="Chook" format="2">
  <advance width="1193"/>
  <unicode hex="0187"/>
  <outline>
    <contour>
      <point x="1045" y="1000" type="line"/>
      <point x="1045" y="1177" type="line" smooth="yes"/>
      <point x="1045" y="1340"/>
      <point x="1092" y="1418"/>
      <point x="1198" y="1418" type="curve" smooth="yes"/>
      <point x="1220" y="1418"/>
      <point x="1249" y="1412"/>
      <point x="1265" y="1405" type="curve"/>
      <point x="1270" y="1506" type="line"/>
      <point x="1241" y="1518"/>
      <point x="1205" y="1525"/>
      <point x="1175" y="1525" type="curve" smooth="yes"/>
      <point x="1019" y="1525"/>
      <point x="950" y="1402"/>
      <point x="950" y="1177" type="curve" smooth="yes"/>
      <point x="950" y="1000" type="line"/>
    </contour>
    <component base="C"/>
  </outline>
</glyph>
<glyph name="chook" format="2">
  <advance width="1061"/>
  <unicode hex="0188"/>
  <outline>
    <contour>
      <point x="843" y="717" type="line"/>
      <point x="843" y="819" type="line" smooth="yes"/>
      <point x="843" y="973"/>
      <point x="886" y="1048"/>
      <point x="986" y="1048" type="curve" smooth="yes"/>
      <point x="1007" y="1048"/>
      <point x="1033" y="1042"/>
      <point x="1049" y="1035" type="curve"/>
      <point x="1054" y="1126" type="line"/>
      <point x="1026" y="1137"/>
      <point x="994" y="1143"/>
      <point x="966" y="1143" type="curve" smooth="yes"/>
      <point x="822" y="1143"/>
      <point x="761" y="1028"/>
      <point x="761" y="819" type="curve" smooth="yes"/>
      <point x="761" y="717" type="line"/>
    </contour>
    <component base="c" xOffset="1"/>
  </outline>
</glyph>
<glyph name="Schwa" format="2">
  <advance width="1242"/>
  <unicode hex="018F"/>
  <anchor x="602" y="1617" name="top"/>
  <anchor x="620" y="-1" name="bottom"/>
  <anchor x="1222" y="1617" name="top0315"/>
  <outline>
    <contour>
      <point x="625" y="-20" type="curve" smooth="yes"/>
      <point x="904" y="-20"/>
      <point x="1121" y="263"/>
      <point x="1121" y="672" type="curve" smooth="yes"/>
      <point x="1121" y="804" type="line" smooth="yes"/>
      <point x="1121" y="1198"/>
      <point x="931" y="1476"/>
      <point x="588" y="1476" type="curve" smooth="yes"/>
      <point x="384" y="1476"/>
      <point x="274" y="1400"/>
      <point x="217" y="1344" type="curve"/>
      <point x="250" y="1250" type="line"/>
      <point x="326" y="1313"/>
      <point x="435" y="1368"/>
      <point x="588" y="1368" type="curve" smooth="yes"/>
      <point x="883" y="1368"/>
      <point x="1005" y="1116"/>
      <point x="1005" y="804" type="curve" smooth="yes"/>
      <point x="1005" y="672" type="line" smooth="yes"/>
      <point x="1005" y="349"/>
      <point x="866" y="88"/>
      <point x="625" y="88" type="curve" smooth="yes"/>
      <point x="355" y="88"/>
      <point x="234" y="307"/>
      <point x="234" y="584" type="curve" smooth="yes"/>
      <point x="234" y="637" type="line"/>
      <point x="1049" y="637" type="line"/>
      <point x="1049" y="740" type="line"/>
      <point x="120" y="740" type="line"/>
      <point x="120" y="616" type="line" smooth="yes"/>
      <point x="120" y="226"/>
      <point x="304" y="-20"/>
    </contour>
  </outline>
</glyph>
<glyph name="Ghook" format="2">
  <advance width="1236"/>
  <unicode hex="0193"/>
  <outline>
    <contour>
      <point x="1058" y="1046" type="line"/>
      <point x="1058" y="1177" type="line" smooth="yes"/>
      <point x="1058" y="1340"/>
      <point x="1106" y="1418"/>
      <point x="1212" y="1418" type="curve" smooth="yes"/>
      <point x="1234" y="1418"/>
      <point x="1262" y="1412"/>
      <point x="1279" y="1405" type="curve"/>
      <point x="1285" y="1506" type="line"/>
      <point x="1255" y="1518"/>
      <point x="1220" y="1525"/>
      <point x="1189" y="1525" type="curve" smooth="yes"/>
      <point x="1032" y="1525"/>
      <point x="964" y="1402"/>
      <point x="964" y="1177" type="curve" smooth="yes"/>
      <point x="964" y="1046" type="line"/>
    </contour>
    <component base="G"/>
  </outline>
</glyph>
<glyph name="lambdabar" format="2">
  <advance width="989"/>
  <unicode hex="019B"/>
  <anchor x="829" y="1612" name="top0315"/>
  <outline>
    <contour>
      <point x="602" y="1398" type="line"/>
      <point x="199" y="1211" type="line"/>
      <point x="199" y="1099" type="line"/>
      <point x="602" y="1286" type="line"/>
    </contour>
    <component base="lambda"/>
  </outline>
</glyph>
<glyph name="Nhook" format="2">
  <advance width="1293"/>
  <unicode hex="019D"/>
  <outline>
    <contour>
      <point x="203" y="982" type="line"/>
      <point x="203" y="-89" type="line" smooth="yes"/>
      <point x="203" y="-244"/>
      <point x="151" y="-327"/>
      <point x="58" y="-327" type="curve" smooth="yes"/>
      <point x="30" y="-327"/>
      <point x="-6" y="-319"/>
      <point x="-24" y="-311" type="curve"/>
      <point x="-36" y="-418" type="line"/>
      <point x="-3" y="-431"/>
      <point x="24" y="-437"/>
      <point x="58" y="-437" type="curve" smooth="yes"/>
      <point x="220" y="-437"/>
      <point x="318" y="-314"/>
      <point x="318" y="-89" type="curve" smooth="yes"/>
      <point x="318" y="982" type="line"/>
    </contour>
    <component base="N" xOffset="31"/>
  </outline>
</glyph>
<glyph name="Ohorn" format="2">
  <advance width="1252"/>
  <unicode hex="01A0"/>
  <anchor x="634" y="1608" name="top"/>
  <anchor x="616" y="0" name="bottom"/>
  <anchor x="1232" y="1608" name="top0315"/>
  <outline>
    <contour>
      <point x="1148" y="1567" type="line"/>
      <point x="1148" y="1385"/>
      <point x="1103" y="1280"/>
      <point x="954" y="1280" type="curve"/>
      <point x="954" y="1185" type="line"/>
      <point x="1160" y="1185"/>
      <point x="1250" y="1321"/>
      <point x="1250" y="1567" type="curve"/>
    </contour>
    <component base="O" xOffset="14"/>
  </outline>
</glyph>
<glyph name="ohorn" format="2">
  <advance width="1006"/>
  <unicode hex="01A1"/>
  <anchor x="509" y="1290" name="top"/>
  <anchor x="509" y="-10" name="bottom"/>
  <anchor x="986" y="1290" name="top0315"/>
  <outline>
    <contour>
      <point x="926" y="1198" type="line"/>
      <point x="926" y="1049"/>
      <point x="903" y="958"/>
      <point x="765" y="958" type="curve"/>
      <point x="765" y="872" type="line"/>
      <point x="955" y="872"/>
      <point x="1019" y="992"/>
      <point x="1019" y="1198" type="curve"/>
    </contour>
    <component base="o"/>
  </outline>
</glyph>
<glyph name="phook" format="2">
  <advance width="996"/>
  <unicode hex="01A5"/>
  <outline>
    <contour>
      <point x="259" y="825" type="line"/>
      <point x="259" y="1026" type="line" smooth="yes"/>
      <point x="259" y="1179"/>
      <point x="302" y="1255"/>
      <point x="401" y="1255" type="curve" smooth="yes"/>
      <point x="422" y="1255"/>
      <point x="448" y="1249"/>
      <point x="465" y="1242" type="curve"/>
      <point x="470" y="1333" type="line"/>
      <point x="442" y="1344"/>
      <point x="410" y="1350"/>
      <point x="382" y="1350" type="curve" smooth="yes"/>
      <point x="237" y="1350"/>
      <point x="148" y="1235"/>
      <point x="148" y="1026" type="curve" smooth="yes"/>
      <point x="148" y="825" type="line"/>
    </contour>
    <component base="p"/>
  </outline>
</glyph>
<glyph name="tpalatalhook" format="2">
  <advance width="595"/>
  <unicode hex="01AB"/>
  <outline>
    <contour>
      <point x="431" y="36" type="line"/>
      <point x="431" y="-76" type="line" smooth="yes"/>
      <point x="431" y="-229"/>
      <point x="388" y="-305"/>
      <point x="290" y="-305" type="curve" smooth="yes"/>
      <point x="268" y="-305"/>
      <point x="242" y="-299"/>
      <point x="226" y="-292" type="curve"/>
      <point x="221" y="-383" type="line"/>
      <point x="248" y="-394"/>
      <point x="280" y="-400"/>
      <point x="309" y="-400" type="curve" smooth="yes"/>
      <point x="453" y="-400"/>
      <point x="514" y="-285"/>
      <point x="514" y="-76" type="curve" smooth="yes"/>
      <point x="514" y="-3" type="line"/>
    </contour>
    <component base="t"/>
  </outline>
</glyph>
<glyph name="Uhorn" format="2">
  <advance width="1217"/>
  <unicode hex="01AF"/>
  <anchor x="593" y="1612" name="top"/>
  <anchor x="588" y="-5" name="bottom"/>
  <anchor x="1197" y="1612" name="top0315"/>
  <outline>
    <contour>
      <point x="1204" y="1544" type="line"/>
      <point x="1204" y="1350"/>
      <point x="1160" y="1245"/>
      <point x="986" y="1245" type="curve"/>
      <point x="986" y="1149" type="line"/>
      <point x="1216" y="1149"/>
      <point x="1302" y="1287"/>
      <point x="1302" y="1544" type="curve"/>
    </contour>
    <component base="U"/>
  </outline>
</glyph>
<glyph name="uhorn" format="2">
  <advance width="1059"/>
  <unicode hex="01B0"/>
  <anchor x="449" y="0" name="bottomu"/>
  <anchor x="507" y="1269" name="top"/>
  <anchor x="852" y="0" name="right"/>
  <anchor x="1039" y="1269" name="top0315"/>
  <anchor x="491" y="0" name="bottom"/>
  <outline>
    <contour>
      <point x="982" y="1179" type="line"/>
      <point x="982" y="1026"/>
      <point x="967" y="949"/>
      <point x="814" y="949" type="curve"/>
      <point x="814" y="864" type="line"/>
      <point x="1014" y="864"/>
      <point x="1071" y="973"/>
      <point x="1071" y="1179" type="curve"/>
    </contour>
    <component base="u"/>
  </outline>
</glyph>
<glyph name="Zbar" format="2">
  <advance width="1069"/>
  <unicode hex="01B5"/>
  <anchor x="536" y="1606" name="top"/>
  <anchor x="545" y="10" name="bottom"/>
  <anchor x="1049" y="1606" name="top0315"/>
  <outline>
    <contour>
      <point x="902" y="798" type="line" name="hr00"/>
      <point x="146" y="798" type="line"/>
      <point x="146" y="694" type="line"/>
      <point x="902" y="694" type="line"/>
    </contour>
    <component base="Z"/>
  </outline>
</glyph>
<glyph name="zbar" format="2">
  <advance width="890"/>
  <unicode hex="01B6"/>
  <anchor x="443" y="1292" name="top"/>
  <anchor x="458" y="10" name="bottom"/>
  <anchor x="870" y="1292" name="top0315"/>
  <outline>
    <contour>
      <point x="730" y="603" type="line"/>
      <point x="156" y="603" type="line"/>
      <point x="156" y="499" type="line"/>
      <point x="730" y="499" type="line"/>
    </contour>
    <component base="z" xOffset="5"/>
  </outline>
</glyph>
<glyph name="uni01B7" format="2">
  <advance width="1132"/>
  <unicode hex="01B7"/>
  <outline>
    <contour>
      <point x="92" y="48" type="line"/>
      <point x="117" y="-246"/>
      <point x="268" y="-427"/>
      <point x="543" y="-427" type="curve" smooth="yes"/>
      <point x="821" y="-427"/>
      <point x="1006" y="-231"/>
      <point x="1006" y="163" type="curve" smooth="yes"/>
      <point x="1006" y="556"/>
      <point x="822" y="752"/>
      <point x="534" y="752" type="curve" smooth="yes"/>
      <point x="364" y="752" type="line"/>
      <point x="364" y="648" type="line"/>
      <point x="534" y="648" type="line" smooth="yes"/>
      <point x="760" y="648"/>
      <point x="892" y="494"/>
      <point x="892" y="163" type="curve" smooth="yes"/>
      <point x="892" y="-156"/>
      <point x="769" y="-320"/>
      <point x="543" y="-320" type="curve" smooth="yes"/>
      <point x="326" y="-320"/>
      <point x="233" y="-198"/>
      <point x="206" y="48" type="curve"/>
    </contour>
    <contour>
      <point x="940" y="1367" type="line"/>
      <point x="940" y="1456" type="line"/>
      <point x="883" y="1456" type="line"/>
      <point x="345" y="743" type="line"/>
      <point x="345" y="648" type="line"/>
      <point x="401" y="648" type="line"/>
    </contour>
    <contour>
      <point x="891" y="1456" type="line"/>
      <point x="108" y="1456" type="line"/>
      <point x="108" y="1349" type="line"/>
      <point x="891" y="1349" type="line"/>
    </contour>
  </outline>
</glyph>
<glyph name="uni01BB" format="2">
  <advance width="1000"/>
  <unicode hex="01BB"/>
  <outline>
    <contour>
      <point x="905" y="768" type="line" name="hr00"/>
      <point x="300" y="768" type="line"/>
      <point x="300" y="664" type="line"/>
      <point x="905" y="664" type="line"/>
    </contour>
    <component base="two"/>
  </outline>
</glyph>
<glyph name="uni01C5" format="2">
  <advance width="1874"/>
  <unicode hex="01C5"/>
  <outline>
    <contour>
      <point x="1804" y="104" type="line"/>
      <point x="1128" y="104" type="line"/>
      <point x="1128" y="0" type="line"/>
      <point x="1804" y="0" type="line"/>
    </contour>
    <contour>
      <point x="1768" y="992" type="line"/>
      <point x="1768" y="1082" type="line"/>
      <point x="1698" y="1082" type="line"/>
      <point x="1088" y="91" type="line"/>
      <point x="1088" y="0" type="line"/>
      <point x="1156" y="0" type="line"/>
    </contour>
    <contour>
      <point x="1719" y="1082" type="line"/>
      <point x="1103" y="1082" type="line"/>
      <point x="1103" y="977" type="line"/>
      <point x="1719" y="977" type="line"/>
    </contour>
    <contour>
      <point x="1304" y="1495" type="line"/>
      <point x="1200" y="1495" type="line"/>
      <point x="1200" y="1478" type="line"/>
      <point x="1398" y="1252" type="line"/>
      <point x="1483" y="1252" type="line"/>
      <point x="1682" y="1478" type="line"/>
      <point x="1682" y="1495" type="line"/>
      <point x="1578" y="1495" type="line"/>
      <point x="1440" y="1327" type="line"/>
    </contour>
    <component base="D"/>
  </outline>
</glyph>
<glyph name="uni01C6" format="2">
  <advance width="1702"/>
  <unicode hex="01C6"/>
  <outline>
    <contour>
      <point x="736" y="210" type="line"/>
      <point x="748" y="0" type="line"/>
      <point x="848" y="0" type="line"/>
      <point x="848" y="1560" type="line"/>
      <point x="736" y="1560" type="line"/>
    </contour>
    <contour>
      <point x="108" y="530" type="line"/>
      <point x="108" y="207"/>
      <point x="245" y="-21"/>
      <point x="460" y="-21" type="curve" smooth="yes"/>
      <point x="680" y="-21"/>
      <point x="795" y="156"/>
      <point x="821" y="401" type="curve"/>
      <point x="821" y="664" type="line"/>
      <point x="790" y="926"/>
      <point x="677" y="1102"/>
      <point x="461" y="1102" type="curve" smooth="yes"/>
      <point x="245" y="1102"/>
      <point x="108" y="886"/>
      <point x="108" y="551" type="curve" smooth="yes"/>
    </contour>
    <contour>
      <point x="221" y="551" type="line"/>
      <point x="221" y="801"/>
      <point x="302" y="996"/>
      <point x="484" y="996" type="curve" smooth="yes"/>
      <point x="670" y="996"/>
      <point x="741" y="824"/>
      <point x="766" y="684" type="curve"/>
      <point x="766" y="375" type="line"/>
      <point x="733" y="218"/>
      <point x="651" y="86"/>
      <point x="483" y="86" type="curve" smooth="yes"/>
      <point x="302" y="86"/>
      <point x="221" y="279"/>
      <point x="221" y="530" type="curve" smooth="yes"/>
    </contour>
    <contour>
      <point x="1632" y="104" type="line"/>
      <point x="956" y="104" type="line"/>
      <point x="956" y="0" type="line"/>
      <point x="1632" y="0" type="line"/>
    </contour>
    <contour>
      <point x="1597" y="992" type="line"/>
      <point x="1597" y="1082" type="line"/>
      <point x="1528" y="1082" type="line"/>
      <point x="916" y="91" type="line"/>
      <point x="916" y="0" type="line"/>
      <point x="984" y="0" type="line"/>
    </contour>
    <contour>
      <point x="1548" y="1082" type="line"/>
      <point x="931" y="1082" type="line"/>
      <point x="931" y="977" type="line"/>
      <point x="1548" y="977" type="line"/>
    </contour>
    <contour>
      <point x="1133" y="1495" type="line"/>
      <point x="1029" y="1495" type="line"/>
      <point x="1029" y="1478" type="line"/>
      <point x="1227" y="1252" type="line"/>
      <point x="1311" y="1252" type="line"/>
      <point x="1510" y="1478" type="line"/>
      <point x="1510" y="1495" type="line"/>
      <point x="1407" y="1495" type="line"/>
      <point x="1269" y="1327" type="line"/>
    </contour>
  </outline>
</glyph>
<glyph name="Gbar" format="2">
  <advance width="1216"/>
  <unicode hex="01E4"/>
  <anchor x="595" y="1633" name="top"/>
  <anchor x="605" y="-5" name="bottom"/>
  <anchor x="1196" y="1633" name="top0315"/>
  <outline>
    <contour>
      <point x="1201" y="458" type="line"/>
      <point x="684" y="458" type="line"/>
      <point x="684" y="355" type="line"/>
      <point x="1201" y="355" type="line"/>
    </contour>
    <component base="G"/>
  </outline>
</glyph>
<glyph name="uni0221" format="2">
  <advance width="1255"/>
  <unicode hex="0221"/>
  <outline>
    <contour>
      <point x="736" y="227" type="line"/>
      <point x="736" y="-129" type="line" smooth="yes"/>
      <point x="736" y="-314"/>
      <point x="808" y="-437"/>
      <point x="984" y="-437" type="curve" smooth="yes"/>
      <point x="1125" y="-437"/>
      <point x="1210" y="-327"/>
      <point x="1210" y="-188" type="curve" smooth="yes"/>
      <point x="1210" y="-30"/>
      <point x="1116" y="54"/>
      <point x="997" y="54" type="curve" smooth="yes"/>
      <point x="898" y="54"/>
      <point x="818" y="-7"/>
      <point x="743" y="-92" type="curve"/>
      <point x="580" y="-326" type="line"/>
      <point x="650" y="-398" type="line"/>
      <point x="758" y="-231" type="line"/>
      <point x="836" y="-118"/>
      <point x="903" y="-50"/>
      <point x="982" y="-50" type="curve" smooth="yes"/>
      <point x="1055" y="-50"/>
      <point x="1098" y="-107"/>
      <point x="1098" y="-188" type="curve" smooth="yes"/>
      <point x="1098" y="-269"/>
      <point x="1058" y="-333"/>
      <point x="985" y="-333" type="curve" smooth="yes"/>
      <point x="883" y="-333"/>
      <point x="848" y="-262"/>
      <point x="848" y="-153" type="curve" smooth="yes"/>
      <point x="848" y="-75"/>
      <point x="848" y="227"/>
      <point x="848" y="227" type="curve"/>
    </contour>
    <component base="d"/>
  </outline>
</glyph>
<glyph name="uni0222" format="2">
  <advance width="1204"/>
  <unicode hex="0222"/>
  <outline>
    <contour>
      <point x="588" y="860" type="line" name="hr00"/>
      <point x="324" y="860"/>
      <point x="129" y="712"/>
      <point x="129" y="423" type="curve" smooth="yes"/>
      <point x="129" y="131"/>
      <point x="324" y="-20"/>
      <point x="588" y="-20" type="curve" smooth="yes"/>
      <point x="615" y="-20" type="line" smooth="yes"/>
      <point x="879" y="-20"/>
      <point x="1075" y="131"/>
      <point x="1075" y="425" type="curve" smooth="yes"/>
      <point x="1075" y="712"/>
      <point x="879" y="860"/>
      <point x="615" y="860" type="curve" smooth="yes"/>
    </contour>
    <contour>
      <point x="615" y="763" type="line"/>
      <point x="809" y="763"/>
      <point x="961" y="657"/>
      <point x="961" y="425" type="curve" smooth="yes"/>
      <point x="961" y="190"/>
      <point x="809" y="89"/>
      <point x="615" y="89" type="curve" smooth="yes"/>
      <point x="588" y="89" type="line" smooth="yes"/>
      <point x="395" y="89"/>
      <point x="243" y="190"/>
      <point x="243" y="423" type="curve" smooth="yes"/>
      <point x="243" y="657"/>
      <point x="395" y="763"/>
      <point x="588" y="763" type="curve" smooth="yes"/>
    </contour>
    <contour>
      <point x="584" y="873" type="line"/>
      <point x="397" y="873"/>
      <point x="242" y="926"/>
      <point x="242" y="1134" type="curve" smooth="yes"/>
      <point x="242" y="1278"/>
      <point x="313" y="1353"/>
      <point x="443" y="1374" type="curve"/>
      <point x="443" y="1476" type="line"/>
      <point x="266" y="1465"/>
      <point x="129" y="1358"/>
      <point x="129" y="1134" type="curve" smooth="yes"/>
      <point x="129" y="868"/>
      <point x="331" y="775"/>
      <point x="584" y="775" type="curve" smooth="yes"/>
      <point x="620" y="775" type="line" smooth="yes"/>
      <point x="873" y="775"/>
      <point x="1075" y="868"/>
      <point x="1075" y="1134" type="curve" smooth="yes"/>
      <point x="1075" y="1358"/>
      <point x="938" y="1465"/>
      <point x="760" y="1476" type="curve"/>
      <point x="760" y="1374" type="line"/>
      <point x="890" y="1353"/>
      <point x="961" y="1278"/>
      <point x="961" y="1134" type="curve" smooth="yes"/>
      <point x="961" y="926"/>
      <point x="806" y="873"/>
      <point x="620" y="873" type="curve" smooth="yes"/>
    </contour>
  </outline>
</glyph>
<glyph name="uni0224" format="2">
  <advance width="1082"/>
  <unicode hex="0224"/>
  <outline>
    <contour>
      <point x="950" y="1366" type="line"/>
      <point x="950" y="1456" type="line"/>
      <point x="878" y="1456" type="line"/>
      <point x="95" y="95" type="line"/>
      <point x="95" y="0" type="line"/>
      <point x="167" y="0" type="line"/>
    </contour>
    <contour>
      <point x="900" y="1456" type="line"/>
      <point x="116" y="1456" type="line"/>
      <point x="116" y="1349" type="line"/>
      <point x="900" y="1349" type="line"/>
    </contour>
    <contour>
      <point x="1000" y="-294" type="line"/>
      <point x="1009" y="-259"/>
      <point x="1014" y="-218"/>
      <point x="1014" y="-180" type="curve" smooth="yes"/>
      <point x="1014" y="4"/>
      <point x="911" y="107"/>
      <point x="722" y="107" type="curve" smooth="yes"/>
      <point x="137" y="107" type="line"/>
      <point x="137" y="0" type="line"/>
      <point x="722" y="0" type="line" smooth="yes"/>
      <point x="856" y="0"/>
      <point x="916" y="-76"/>
      <point x="916" y="-205" type="curve" smooth="yes"/>
      <point x="916" y="-232"/>
      <point x="912" y="-267"/>
      <point x="905" y="-287" type="curve"/>
    </contour>
  </outline>
</glyph>
<glyph name="uni0238" format="2">
  <advance width="1585"/>
  <unicode hex="0238"/>
  <outline>
    <contour>
      <point x="1477" y="551" type="line"/>
      <point x="1477" y="886"/>
      <point x="1350" y="1102"/>
      <point x="1127" y="1102" type="curve" smooth="yes"/>
      <point x="911" y="1102"/>
      <point x="798" y="926"/>
      <point x="766" y="664" type="curve"/>
      <point x="766" y="401" type="line"/>
      <point x="793" y="156"/>
      <point x="908" y="-20"/>
      <point x="1129" y="-20" type="curve" smooth="yes"/>
      <point x="1349" y="-20"/>
      <point x="1477" y="207"/>
      <point x="1477" y="530" type="curve" smooth="yes"/>
    </contour>
    <contour>
      <point x="1365" y="530" type="line"/>
      <point x="1365" y="279"/>
      <point x="1286" y="87"/>
      <point x="1106" y="87" type="curve" smooth="yes"/>
      <point x="937" y="87"/>
      <point x="851" y="223"/>
      <point x="823" y="375" type="curve"/>
      <point x="823" y="684" type="line"/>
      <point x="848" y="824"/>
      <point x="918" y="996"/>
      <point x="1104" y="996" type="curve" smooth="yes"/>
      <point x="1290" y="996"/>
      <point x="1365" y="801"/>
      <point x="1365" y="551" type="curve" smooth="yes"/>
    </contour>
    <contour>
      <point x="736" y="210" type="line"/>
      <point x="744" y="0" type="line"/>
      <point x="848" y="0" type="line"/>
      <point x="848" y="1536" type="line"/>
      <point x="736" y="1536" type="line"/>
    </contour>
    <contour>
      <point x="108" y="530" type="line"/>
      <point x="108" y="207"/>
      <point x="245" y="-20"/>
      <point x="460" y="-20" type="curve" smooth="yes"/>
      <point x="680" y="-20"/>
      <point x="795" y="156"/>
      <point x="821" y="401" type="curve"/>
      <point x="821" y="664" type="line"/>
      <point x="790" y="926"/>
      <point x="677" y="1102"/>
      <point x="461" y="1102" type="curve" smooth="yes"/>
      <point x="245" y="1102"/>
      <point x="108" y="886"/>
      <point x="108" y="551" type="curve" smooth="yes"/>
    </contour>
    <contour>
      <point x="221" y="551" type="line"/>
      <point x="221" y="801"/>
      <point x="302" y="996"/>
      <point x="484" y="996" type="curve" smooth="yes"/>
      <point x="670" y="996"/>
      <point x="741" y="824"/>
      <point x="766" y="684" type="curve"/>
      <point x="766" y="375" type="line"/>
      <point x="733" y="218"/>
      <point x="651" y="87"/>
      <point x="483" y="87" type="curve" smooth="yes"/>
      <point x="302" y="87"/>
      <point x="221" y="279"/>
      <point x="221" y="530" type="curve" smooth="yes"/>
    </contour>
  </outline>
</glyph>
<glyph name="uni0239" format="2">
  <advance width="1584"/>
  <unicode hex="0239"/>
  <outline>
    <contour>
      <point x="736" y="-416" type="line"/>
      <point x="847" y="-416" type="line"/>
      <point x="847" y="874" type="line"/>
      <point x="840" y="1082" type="line"/>
      <point x="743" y="1082" type="line"/>
      <point x="736" y="874" type="line"/>
    </contour>
    <contour>
      <point x="108" y="530" type="line"/>
      <point x="108" y="207"/>
      <point x="240" y="-20"/>
      <point x="462" y="-20" type="curve" smooth="yes"/>
      <point x="682" y="-20"/>
      <point x="801" y="156"/>
      <point x="828" y="401" type="curve"/>
      <point x="828" y="664" type="line"/>
      <point x="796" y="926"/>
      <point x="679" y="1102"/>
      <point x="463" y="1102" type="curve" smooth="yes"/>
      <point x="240" y="1102"/>
      <point x="108" y="886"/>
      <point x="108" y="551" type="curve" smooth="yes"/>
    </contour>
    <contour>
      <point x="221" y="551" type="line"/>
      <point x="221" y="801"/>
      <point x="304" y="998"/>
      <point x="486" y="998" type="curve" smooth="yes"/>
      <point x="670" y="998"/>
      <point x="747" y="819"/>
      <point x="771" y="684" type="curve"/>
      <point x="771" y="375" type="line"/>
      <point x="738" y="218"/>
      <point x="653" y="84"/>
      <point x="485" y="84" type="curve" smooth="yes"/>
      <point x="304" y="84"/>
      <point x="221" y="279"/>
      <point x="221" y="530" type="curve" smooth="yes"/>
    </contour>
    <contour>
      <point x="1476" y="551" type="line"/>
      <point x="1476" y="886"/>
      <point x="1349" y="1102"/>
      <point x="1126" y="1102" type="curve" smooth="yes"/>
      <point x="910" y="1102"/>
      <point x="792" y="926"/>
      <point x="760" y="664" type="curve"/>
      <point x="760" y="391" type="line"/>
      <point x="787" y="152"/>
      <point x="907" y="-20"/>
      <point x="1128" y="-20" type="curve" smooth="yes"/>
      <point x="1349" y="-20"/>
      <point x="1476" y="207"/>
      <point x="1476" y="530" type="curve" smooth="yes"/>
    </contour>
    <contour>
      <point x="1365" y="530" type="line"/>
      <point x="1365" y="279"/>
      <point x="1281" y="84"/>
      <point x="1101" y="84" type="curve" smooth="yes"/>
      <point x="932" y="84"/>
      <point x="849" y="213"/>
      <point x="818" y="366" type="curve"/>
      <point x="818" y="684" type="line"/>
      <point x="842" y="824"/>
      <point x="913" y="996"/>
      <point x="1099" y="996" type="curve" smooth="yes"/>
      <point x="1281" y="996"/>
      <point x="1365" y="801"/>
      <point x="1365" y="551" type="curve" smooth="yes"/>
    </contour>
  </outline>
</glyph>
<glyph name="uni023B" format="2">
  <advance width="1158"/>
  <unicode hex="023B"/>
  <outline>
    <contour>
      <point x="910" y="1571" type="line"/>
      <point x="824" y="1571" type="line"/>
      <point x="276" y="-125" type="line"/>
      <point x="362" y="-125" type="line"/>
    </contour>
    <component base="C"/>
  </outline>
</glyph>
<glyph name="uni023C" format="2">
  <advance width="930"/>
  <unicode hex="023C"/>
  <outline>
    <contour>
      <point x="808" y="1456" type="line"/>
      <point x="723" y="1456" type="line"/>
      <point x="98" y="-416" type="line"/>
      <point x="184" y="-416" type="line"/>
    </contour>
    <component base="c"/>
  </outline>
</glyph>
<glyph name="uni023E" format="2">
  <advance width="1067"/>
  <unicode hex="023E"/>
  <outline>
    <contour>
      <point x="912" y="1571" type="line"/>
      <point x="823" y="1571" type="line"/>
      <point x="171" y="-125" type="line"/>
      <point x="261" y="-125" type="line"/>
    </contour>
    <component base="T"/>
  </outline>
</glyph>
<glyph name="uni0240" format="2">
  <advance width="890"/>
  <unicode hex="0240"/>
  <outline>
    <contour>
      <point x="135" y="104" type="line"/>
      <point x="135" y="0" type="line"/>
      <point x="296" y="0" type="line" smooth="yes"/>
      <point x="546" y="0"/>
      <point x="513" y="-437"/>
      <point x="744" y="-437" type="curve" smooth="yes"/>
      <point x="818" y="-437"/>
      <point x="877" y="-387"/>
      <point x="916" y="-339" type="curve"/>
      <point x="873" y="-262" type="line"/>
      <point x="840" y="-303"/>
      <point x="799" y="-335"/>
      <point x="748" y="-335" type="curve" smooth="yes"/>
      <point x="605" y="-335"/>
      <point x="602" y="104"/>
      <point x="331" y="104" type="curve" smooth="yes"/>
    </contour>
    <contour>
      <point x="775" y="992" type="line"/>
      <point x="775" y="1082" type="line"/>
      <point x="705" y="1082" type="line"/>
      <point x="94" y="91" type="line"/>
      <point x="94" y="0" type="line"/>
      <point x="162" y="0" type="line"/>
    </contour>
    <contour>
      <point x="726" y="1082" type="line"/>
      <point x="109" y="1082" type="line"/>
      <point x="109" y="977" type="line"/>
      <point x="726" y="977" type="line"/>
    </contour>
  </outline>
</glyph>
<glyph name="uni0244" format="2">
  <advance width="1335"/>
  <unicode hex="0244"/>
  <anchor x="668" y="1606" name="top"/>
  <anchor x="668" y="0" name="bottom"/>
  <anchor x="1315" y="1606" name="top0315"/>
  <outline>
    <contour>
      <point x="1285" y="802" type="line"/>
      <point x="50" y="802" type="line"/>
      <point x="50" y="698" type="line"/>
      <point x="1285" y="698" type="line"/>
    </contour>
    <component base="U" xOffset="84"/>
  </outline>
</glyph>
<glyph name="uni024C" format="2">
  <advance width="1155"/>
  <unicode hex="024C"/>
  <anchor x="531" y="1606" name="top"/>
  <anchor x="531" y="10" name="bottom"/>
  <anchor x="1135" y="1606" name="top0315"/>
  <outline>
    <contour>
      <point x="211" y="1456" type="line"/>
      <point x="211" y="0" type="line"/>
      <point x="326" y="0" type="line"/>
      <point x="326" y="1349" type="line"/>
      <point x="610" y="1349" type="line" smooth="yes"/>
      <point x="808" y="1349"/>
      <point x="913" y="1225"/>
      <point x="913" y="1027" type="curve" smooth="yes"/>
      <point x="913" y="862"/>
      <point x="818" y="713"/>
      <point x="630" y="713" type="curve" smooth="yes"/>
      <point x="46" y="713" type="line"/>
      <point x="46" y="606" type="line"/>
      <point x="706" y="606" type="line"/>
      <point x="743" y="623" type="line"/>
      <point x="912" y="664"/>
      <point x="1028" y="821"/>
      <point x="1028" y="1027" type="curve" smooth="yes"/>
      <point x="1028" y="1305"/>
      <point x="868" y="1456"/>
      <point x="610" y="1456" type="curve" smooth="yes"/>
    </contour>
    <contour>
      <point x="958" y="0" type="line"/>
      <point x="1080" y="0" type="line"/>
      <point x="1080" y="13" type="line"/>
      <point x="767" y="652" type="line"/>
      <point x="645" y="651" type="line"/>
    </contour>
  </outline>
</glyph>
<glyph name="uni024E" format="2">
  <advance width="1175"/>
  <unicode hex="024E"/>
  <anchor x="587" y="1601" name="top"/>
  <anchor x="587" y="5" name="bottom"/>
  <anchor x="1155" y="1601" name="top0315"/>
  <outline>
    <contour>
      <point x="1126" y="1144" type="line"/>
      <point x="50" y="1144" type="line"/>
      <point x="50" y="1059" type="line"/>
      <point x="1126" y="1059" type="line"/>
    </contour>
    <component base="Y" xOffset="53"/>
  </outline>
</glyph>
<glyph name="uni024F" format="2">
  <advance width="920"/>
  <unicode hex="024F"/>
  <anchor x="451" y="1292" name="top"/>
  <anchor x="619" y="-158" name="bottom"/>
  <anchor x="900" y="1292" name="top0315"/>
  <outline>
    <contour>
      <point x="871" y="700" type="line"/>
      <point x="50" y="700" type="line"/>
      <point x="50" y="615" type="line"/>
      <point x="871" y="615" type="line"/>
    </contour>
    <component base="y" xOffset="33"/>
  </outline>
</glyph>
<glyph name="bhook" format="2">
  <advance width="996"/>
  <unicode hex="0253"/>
  <anchor x="534" y="1700" name="top"/>
  <anchor x="518" y="0" name="bottom"/>
  <anchor x="977" y="1700" name="top0315"/>
  <outline>
    <contour>
      <point x="538" y="1102" type="curve" smooth="yes"/>
      <point x="328" y="1102"/>
      <point x="222" y="939"/>
      <point x="190" y="694" type="curve"/>
      <point x="190" y="370" type="line"/>
      <point x="217" y="142"/>
      <point x="325" y="-21"/>
      <point x="540" y="-21" type="curve" smooth="yes"/>
      <point x="760" y="-21"/>
      <point x="888" y="141"/>
      <point x="888" y="490" type="curve" smooth="yes"/>
      <point x="888" y="591" type="line"/>
      <point x="888" y="953"/>
      <point x="761" y="1102"/>
    </contour>
    <contour>
      <point x="776" y="591" type="curve" smooth="yes"/>
      <point x="776" y="490" type="line"/>
      <point x="776" y="213"/>
      <point x="697" y="86"/>
      <point x="517" y="86" type="curve" smooth="yes"/>
      <point x="348" y="86"/>
      <point x="262" y="209"/>
      <point x="235" y="344" type="curve"/>
      <point x="235" y="714" type="line"/>
      <point x="259" y="842"/>
      <point x="330" y="996"/>
      <point x="515" y="996" type="curve" smooth="yes"/>
      <point x="701" y="996"/>
      <point x="776" y="866"/>
    </contour>
    <contour>
      <point x="148" y="0" type="line"/>
      <point x="251" y="0" type="line"/>
      <point x="259" y="202" type="line"/>
      <point x="259" y="1232" type="line" smooth="yes"/>
      <point x="259" y="1386"/>
      <point x="302" y="1462"/>
      <point x="401" y="1462" type="curve" smooth="yes"/>
      <point x="422" y="1462"/>
      <point x="448" y="1455"/>
      <point x="465" y="1449" type="curve"/>
      <point x="470" y="1539" type="line"/>
      <point x="442" y="1550"/>
      <point x="410" y="1557"/>
      <point x="382" y="1557" type="curve" smooth="yes"/>
      <point x="237" y="1557"/>
      <point x="148" y="1442"/>
      <point x="148" y="1232" type="curve" smooth="yes"/>
    </contour>
  </outline>
</glyph>
<glyph name="oopen" format="2">
  <advance width="930"/>
  <unicode hex="0254"/>
  <anchor x="757" y="654" name="rhotichook"/>
  <anchor x="440" y="1290" name="top"/>
  <anchor x="439" y="0" name="bottom"/>
  <anchor x="910" y="1290" name="top0315"/>
  <outline>
    <contour>
      <point x="86" y="335" type="line"/>
      <point x="96" y="103"/>
      <point x="252" y="-21"/>
      <point x="438" y="-21" type="curve" smooth="yes"/>
      <point x="696" y="-21"/>
      <point x="830" y="152"/>
      <point x="830" y="480" type="curve" smooth="yes"/>
      <point x="830" y="602" type="line" smooth="yes"/>
      <point x="830" y="930"/>
      <point x="696" y="1102"/>
      <point x="439" y="1102" type="curve" smooth="yes"/>
      <point x="241" y="1102"/>
      <point x="95" y="980"/>
      <point x="86" y="717" type="curve"/>
      <point x="193" y="717" type="line"/>
      <point x="201" y="919"/>
      <point x="304" y="998"/>
      <point x="439" y="998" type="curve" smooth="yes"/>
      <point x="644" y="998"/>
      <point x="718" y="854"/>
      <point x="718" y="602" type="curve" smooth="yes"/>
      <point x="718" y="480" type="line" smooth="yes"/>
      <point x="718" y="226"/>
      <point x="645" y="83"/>
      <point x="438" y="83" type="curve" smooth="yes"/>
      <point x="314" y="83"/>
      <point x="203" y="142"/>
      <point x="193" y="335" type="curve"/>
    </contour>
  </outline>
</glyph>
<glyph name="ccurl" format="2">
  <advance width="936"/>
  <unicode hex="0255"/>
  <anchor x="495" y="1290" name="top"/>
  <anchor x="495" y="0" name="bottom"/>
  <anchor x="916" y="1290" name="top0315"/>
  <outline>
    <contour>
      <point x="512" y="83" type="curve" smooth="yes"/>
      <point x="290" y="83"/>
      <point x="216" y="290"/>
      <point x="216" y="520" type="curve" smooth="yes"/>
      <point x="216" y="562" type="line" smooth="yes"/>
      <point x="216" y="790"/>
      <point x="291" y="998"/>
      <point x="495" y="998" type="curve"/>
      <point x="630" y="998"/>
      <point x="734" y="891"/>
      <point x="742" y="717" type="curve"/>
      <point x="848" y="717" type="line"/>
      <point x="839" y="952"/>
      <point x="693" y="1102"/>
      <point x="495" y="1102" type="curve" smooth="yes"/>
      <point x="238" y="1102"/>
      <point x="105" y="865"/>
      <point x="105" y="562" type="curve" smooth="yes"/>
      <point x="105" y="520" type="line" smooth="yes"/>
      <point x="105" y="217"/>
      <point x="237" y="-21"/>
      <point x="513" y="-21" type="curve" smooth="yes"/>
      <point x="682" y="-21"/>
      <point x="848" y="88"/>
      <point x="848" y="283" type="curve" smooth="yes"/>
      <point x="848" y="431"/>
      <point x="759" y="512"/>
      <point x="621" y="512" type="curve" smooth="yes"/>
      <point x="454" y="512"/>
      <point x="325" y="360"/>
      <point x="160" y="97" type="curve"/>
      <point x="61" y="-57" type="line"/>
      <point x="141" y="-126" type="line"/>
      <point x="223" y="8" type="line"/>
      <point x="371" y="256"/>
      <point x="491" y="407"/>
      <point x="618" y="407" type="curve" smooth="yes"/>
      <point x="684" y="407"/>
      <point x="742" y="367"/>
      <point x="742" y="274" type="curve" smooth="yes"/>
      <point x="742" y="142"/>
      <point x="620" y="83"/>
    </contour>
  </outline>
</glyph>
<glyph name="drthook" format="2">
  <advance width="1054"/>
  <unicode hex="0256"/>
  <anchor x="481" y="1600" name="top"/>
  <anchor x="531" y="-447" name="bottom"/>
  <anchor x="1034" y="1600" name="top0315"/>
  <outline>
    <contour>
      <point x="727" y="236" type="line"/>
      <point x="727" y="-112" type="line" smooth="yes"/>
      <point x="727" y="-322"/>
      <point x="817" y="-437"/>
      <point x="961" y="-437" type="curve" smooth="yes"/>
      <point x="991" y="-437"/>
      <point x="1022" y="-431"/>
      <point x="1050" y="-421" type="curve"/>
      <point x="1044" y="-330" type="line"/>
      <point x="1029" y="-336"/>
      <point x="1002" y="-343"/>
      <point x="981" y="-343" type="curve" smooth="yes"/>
      <point x="881" y="-343"/>
      <point x="839" y="-266"/>
      <point x="839" y="-112" type="curve" smooth="yes"/>
      <point x="839" y="236" type="line"/>
    </contour>
    <component base="d" xOffset="-10"/>
  </outline>
</glyph>
<glyph name="dhook" format="2">
  <advance width="1027"/>
  <unicode hex="0257"/>
  <anchor x="481" y="1600" name="top"/>
  <anchor x="531" y="0" name="bottom"/>
  <anchor x="1034" y="1600" name="top0315"/>
  <outline>
    <contour>
      <point x="108" y="591" type="curve" smooth="yes"/>
      <point x="108" y="490" type="line"/>
      <point x="108" y="141"/>
      <point x="245" y="-21"/>
      <point x="460" y="-21" type="curve" smooth="yes"/>
      <point x="674" y="-21"/>
      <point x="782" y="142"/>
      <point x="807" y="370" type="curve"/>
      <point x="807" y="694" type="line"/>
      <point x="777" y="939"/>
      <point x="672" y="1102"/>
      <point x="461" y="1102" type="curve" smooth="yes"/>
      <point x="245" y="1102"/>
      <point x="108" y="953"/>
    </contour>
    <contour>
      <point x="483" y="86" type="curve" smooth="yes"/>
      <point x="302" y="86"/>
      <point x="221" y="213"/>
      <point x="221" y="490" type="curve" smooth="yes"/>
      <point x="221" y="591" type="line"/>
      <point x="221" y="867"/>
      <point x="302" y="996"/>
      <point x="484" y="996" type="curve" smooth="yes"/>
      <point x="670" y="996"/>
      <point x="741" y="842"/>
      <point x="766" y="714" type="curve"/>
      <point x="766" y="344" type="line"/>
      <point x="733" y="204"/>
      <point x="651" y="86"/>
    </contour>
    <contour>
      <point x="848" y="1232" type="line" smooth="yes"/>
      <point x="848" y="1386"/>
      <point x="891" y="1462"/>
      <point x="989" y="1462" type="curve" smooth="yes"/>
      <point x="1010" y="1462"/>
      <point x="1037" y="1455"/>
      <point x="1053" y="1449" type="curve"/>
      <point x="1058" y="1539" type="line"/>
      <point x="1031" y="1550"/>
      <point x="999" y="1557"/>
      <point x="970" y="1557" type="curve" smooth="yes"/>
      <point x="826" y="1557"/>
      <point x="736" y="1442"/>
      <point x="736" y="1232" type="curve" smooth="yes"/>
      <point x="736" y="204" type="line"/>
      <point x="744" y="0" type="line"/>
      <point x="848" y="0" type="line"/>
    </contour>
  </outline>
</glyph>
<glyph name="schwa" format="2">
  <advance width="931"/>
  <unicode hex="0259"/>
  <anchor x="776" y="654" name="rhotichook"/>
  <anchor x="492" y="1291" name="top"/>
  <anchor x="752" y="60" name="right"/>
  <anchor x="499" y="2" name="bottom"/>
  <anchor x="911" y="1291" name="top0315"/>
  <outline>
    <contour>
      <point x="445" y="1103" type="curve"/>
      <point x="290" y="1103"/>
      <point x="189" y="1041"/>
      <point x="128" y="964" type="curve"/>
      <point x="174" y="879" type="line"/>
      <point x="232" y="951"/>
      <point x="315" y="999"/>
      <point x="445" y="999" type="curve" smooth="yes"/>
      <point x="623" y="999"/>
      <point x="733" y="808"/>
      <point x="733" y="572" type="curve" smooth="yes"/>
      <point x="733" y="518" type="line" smooth="yes"/>
      <point x="733" y="278"/>
      <point x="623" y="84"/>
      <point x="460" y="84" type="curve"/>
      <point x="299" y="84"/>
      <point x="210" y="232"/>
      <point x="210" y="412" type="curve"/>
      <point x="210" y="442" type="line"/>
      <point x="777" y="442" type="line"/>
      <point x="777" y="545" type="line"/>
      <point x="99" y="545" type="line"/>
      <point x="99" y="443" type="line" smooth="yes"/>
      <point x="99" y="164"/>
      <point x="230" y="-20"/>
      <point x="460" y="-20" type="curve" smooth="yes"/>
      <point x="667" y="-21"/>
      <point x="845" y="202"/>
      <point x="845" y="518" type="curve" smooth="yes"/>
      <point x="845" y="572" type="line" smooth="yes"/>
      <point x="845" y="880"/>
      <point x="676" y="1103"/>
    </contour>
  </outline>
</glyph>
<glyph name="schwahook" format="2">
  <advance width="1195"/>
  <unicode hex="025A"/>
  <anchor x="492" y="1290" name="top"/>
  <anchor x="499" y="0" name="bottom"/>
  <anchor x="1175" y="1290" name="top0315"/>
  <outline>
    <contour>
      <point x="429" y="1102" type="curve" smooth="yes"/>
      <point x="262" y="1102"/>
      <point x="162" y="1014"/>
      <point x="102" y="909" type="curve"/>
      <point x="172" y="851" type="line"/>
      <point x="236" y="952"/>
      <point x="316" y="999"/>
      <point x="424" y="999" type="curve" smooth="yes"/>
      <point x="606" y="999"/>
      <point x="726" y="808"/>
      <point x="726" y="571" type="curve" smooth="yes"/>
      <point x="726" y="528" type="line" smooth="yes"/>
      <point x="726" y="264"/>
      <point x="613" y="83"/>
      <point x="446" y="83" type="curve" smooth="yes"/>
      <point x="278" y="83"/>
      <point x="196" y="253"/>
      <point x="196" y="432" type="curve" smooth="yes"/>
      <point x="196" y="459" type="line"/>
      <point x="747" y="610" type="line"/>
      <point x="747" y="714" type="line"/>
      <point x="84" y="540" type="line"/>
      <point x="84" y="476" type="line" smooth="yes"/>
      <point x="84" y="187"/>
      <point x="210" y="-21"/>
      <point x="446" y="-21" type="curve" smooth="yes"/>
      <point x="653" y="-21"/>
      <point x="838" y="193"/>
      <point x="838" y="528" type="curve" smooth="yes"/>
      <point x="838" y="571" type="line" smooth="yes"/>
      <point x="838" y="880"/>
      <point x="669" y="1102"/>
    </contour>
    <contour>
      <point x="784" y="618" type="line"/>
      <point x="882" y="642" type="line"/>
      <point x="896" y="442"/>
      <point x="945" y="369"/>
      <point x="1058" y="369" type="curve" smooth="yes"/>
      <point x="1090" y="369"/>
      <point x="1127" y="379"/>
      <point x="1160" y="397" type="curve"/>
      <point x="1143" y="482" type="line"/>
      <point x="1126" y="475"/>
      <point x="1104" y="468"/>
      <point x="1079" y="468" type="curve" smooth="yes"/>
      <point x="1003" y="468"/>
      <point x="971" y="535"/>
      <point x="962" y="765" type="curve"/>
      <point x="784" y="723" type="line"/>
    </contour>
  </outline>
</glyph>
<glyph name="epsilon1rev" format="2">
  <advance width="973"/>
  <unicode hex="025C"/>
  <anchor x="810" y="811" name="rhotichook"/>
  <anchor x="493" y="1290" name="top"/>
  <anchor x="493" y="0" name="bottom"/>
  <anchor x="953" y="1290" name="top0315"/>
  <outline>
    <contour>
      <point x="337" y="580" type="line"/>
      <point x="337" y="502" type="line"/>
      <point x="496" y="502" type="line" smooth="yes"/>
      <point x="663" y="502"/>
      <point x="753" y="439"/>
      <point x="753" y="296" type="curve" smooth="yes"/>
      <point x="753" y="172"/>
      <point x="659" y="83"/>
      <point x="491" y="83" type="curve" smooth="yes"/>
      <point x="330" y="83"/>
      <point x="224" y="186"/>
      <point x="224" y="311" type="curve"/>
      <point x="113" y="311" type="line"/>
      <point x="113" y="84"/>
      <point x="306" y="-20"/>
      <point x="491" y="-20" type="curve" smooth="yes"/>
      <point x="708" y="-20"/>
      <point x="865" y="98"/>
      <point x="865" y="298" type="curve" smooth="yes"/>
      <point x="865" y="479"/>
      <point x="738" y="580"/>
      <point x="504" y="580" type="curve"/>
    </contour>
    <contour>
      <point x="504" y="524" type="line"/>
      <point x="718" y="524"/>
      <point x="849" y="646"/>
      <point x="849" y="794" type="curve"/>
      <point x="849" y="993"/>
      <point x="708" y="1102"/>
      <point x="491" y="1102" type="curve" smooth="yes"/>
      <point x="294" y="1102"/>
      <point x="128" y="981"/>
      <point x="128" y="790" type="curve"/>
      <point x="238" y="790" type="line"/>
      <point x="238" y="912"/>
      <point x="351" y="999"/>
      <point x="491" y="999" type="curve" smooth="yes"/>
      <point x="662" y="999"/>
      <point x="737" y="906"/>
      <point x="737" y="796" type="curve"/>
      <point x="737" y="681"/>
      <point x="668" y="604"/>
      <point x="496" y="604" type="curve" smooth="yes"/>
      <point x="337" y="604" type="line"/>
      <point x="337" y="524" type="line"/>
    </contour>
  </outline>
</glyph>
<glyph name="ghook" format="2">
  <advance width="1019"/>
  <unicode hex="0260"/>
  <anchor x="491" y="1290" name="top"/>
  <anchor x="491" y="-447" name="bottom"/>
  <anchor x="1042" y="1290" name="top0315"/>
  <outline>
    <contour>
      <point x="110" y="490" type="line"/>
      <point x="110" y="141"/>
      <point x="244" y="-21"/>
      <point x="460" y="-21" type="curve" smooth="yes"/>
      <point x="675" y="-21"/>
      <point x="782" y="142"/>
      <point x="809" y="370" type="curve"/>
      <point x="809" y="694" type="line"/>
      <point x="777" y="939"/>
      <point x="672" y="1102"/>
      <point x="461" y="1102" type="curve" smooth="yes"/>
      <point x="242" y="1102"/>
      <point x="110" y="953"/>
      <point x="110" y="591" type="curve" smooth="yes"/>
    </contour>
    <contour>
      <point x="221" y="591" type="line"/>
      <point x="221" y="867"/>
      <point x="303" y="996"/>
      <point x="485" y="996" type="curve" smooth="yes"/>
      <point x="670" y="996"/>
      <point x="739" y="842"/>
      <point x="764" y="714" type="curve"/>
      <point x="764" y="344" type="line"/>
      <point x="732" y="204"/>
      <point x="652" y="86"/>
      <point x="483" y="86" type="curve" smooth="yes"/>
      <point x="303" y="86"/>
      <point x="221" y="213"/>
      <point x="221" y="490" type="curve" smooth="yes"/>
    </contour>
    <contour>
      <point x="486" y="-431" type="curve" smooth="yes"/>
      <point x="707" y="-431"/>
      <point x="848" y="-309"/>
      <point x="848" y="-27" type="curve" smooth="yes"/>
      <point x="848" y="1026" type="line" smooth="yes"/>
      <point x="848" y="1179"/>
      <point x="890" y="1255"/>
      <point x="990" y="1255" type="curve" smooth="yes"/>
      <point x="1011" y="1255"/>
      <point x="1037" y="1249"/>
      <point x="1053" y="1242" type="curve"/>
      <point x="1058" y="1333" type="line"/>
      <point x="1031" y="1344"/>
      <point x="999" y="1350"/>
      <point x="970" y="1350" type="curve" smooth="yes"/>
      <point x="826" y="1350"/>
      <point x="737" y="1235"/>
      <point x="737" y="1026" type="curve" smooth="yes"/>
      <point x="737" y="-31" type="line" smooth="yes"/>
      <point x="737" y="-247"/>
      <point x="646" y="-328"/>
      <point x="478" y="-328" type="curve" smooth="yes"/>
      <point x="384" y="-328"/>
      <point x="294" y="-286"/>
      <point x="220" y="-202" type="curve"/>
      <point x="168" y="-282" type="line"/>
      <point x="241" y="-376"/>
      <point x="378" y="-431"/>
    </contour>
  </outline>
</glyph>
<glyph name="gamma1" format="2">
  <advance width="905"/>
  <unicode hex="0263"/>
  <anchor x="455" y="1290" name="top"/>
  <anchor x="455" y="-447" name="bottom"/>
  <anchor x="885" y="1290" name="top0315"/>
  <outline>
    <contour>
      <point x="452" y="-384" type="curve" smooth="yes"/>
      <point x="560" y="-384"/>
      <point x="625" y="-312"/>
      <point x="625" y="-185" type="curve" smooth="yes"/>
      <point x="625" y="-138"/>
      <point x="618" y="-85"/>
      <point x="593" y="-22" type="curve" smooth="yes"/>
      <point x="167" y="1082" type="line"/>
      <point x="45" y="1082" type="line"/>
      <point x="442" y="74" type="line" smooth="yes"/>
      <point x="497" y="-56"/>
      <point x="515" y="-127"/>
      <point x="515" y="-185" type="curve" smooth="yes"/>
      <point x="515" y="-241"/>
      <point x="496" y="-277"/>
      <point x="452" y="-277" type="curve" smooth="yes"/>
      <point x="409" y="-277"/>
      <point x="390" y="-242"/>
      <point x="390" y="-185" type="curve" smooth="yes"/>
      <point x="390" y="-128"/>
      <point x="410" y="-55"/>
      <point x="463" y="72" type="curve" smooth="yes"/>
      <point x="860" y="1082" type="line"/>
      <point x="740" y="1082" type="line"/>
      <point x="312" y="-26" type="line" smooth="yes"/>
      <point x="289" y="-86"/>
      <point x="280" y="-136"/>
      <point x="280" y="-185" type="curve" smooth="yes"/>
      <point x="280" y="-312"/>
      <point x="345" y="-384"/>
    </contour>
  </outline>
</glyph>
<glyph name="henghook" format="2">
  <advance width="986"/>
  <unicode hex="0267"/>
  <anchor x="538" y="1700" name="top"/>
  <anchor x="488" y="-447" name="bottom"/>
  <anchor x="966" y="1700" name="top0315"/>
  <outline>
    <contour>
      <point x="729" y="78" type="line"/>
      <point x="729" y="-76" type="line" smooth="yes"/>
      <point x="729" y="-230"/>
      <point x="686" y="-305"/>
      <point x="588" y="-305" type="curve" smooth="yes"/>
      <point x="566" y="-305"/>
      <point x="540" y="-299"/>
      <point x="523" y="-293" type="curve"/>
      <point x="518" y="-383" type="line"/>
      <point x="546" y="-394"/>
      <point x="578" y="-401"/>
      <point x="607" y="-401" type="curve" smooth="yes"/>
      <point x="751" y="-401"/>
      <point x="840" y="-286"/>
      <point x="840" y="-76" type="curve" smooth="yes"/>
      <point x="840" y="78" type="line"/>
    </contour>
    <contour>
      <point x="260" y="1181" type="line"/>
      <point x="148" y="1181" type="line"/>
      <point x="148" y="0" type="line"/>
      <point x="260" y="0" type="line"/>
    </contour>
    <contour>
      <point x="234" y="608" type="line"/>
      <point x="238" y="770"/>
      <point x="337" y="996"/>
      <point x="521" y="996" type="curve" smooth="yes"/>
      <point x="650" y="996"/>
      <point x="729" y="927"/>
      <point x="729" y="706" type="curve" smooth="yes"/>
      <point x="729" y="0" type="line"/>
      <point x="840" y="0" type="line"/>
      <point x="840" y="705" type="line" smooth="yes"/>
      <point x="840" y="990"/>
      <point x="730" y="1102"/>
      <point x="550" y="1102" type="curve" smooth="yes"/>
      <point x="339" y="1102"/>
      <point x="197" y="893"/>
      <point x="187" y="637" type="curve"/>
    </contour>
    <contour>
      <point x="260" y="1145" type="line"/>
      <point x="260" y="1247" type="line" smooth="yes"/>
      <point x="260" y="1400"/>
      <point x="303" y="1476"/>
      <point x="402" y="1476" type="curve" smooth="yes"/>
      <point x="423" y="1476"/>
      <point x="450" y="1470"/>
      <point x="465" y="1463" type="curve"/>
      <point x="470" y="1553" type="line"/>
      <point x="443" y="1565"/>
      <point x="411" y="1571"/>
      <point x="382" y="1571" type="curve" smooth="yes"/>
      <point x="238" y="1571"/>
      <point x="148" y="1456"/>
      <point x="148" y="1247" type="curve" smooth="yes"/>
      <point x="148" y="1145" type="line"/>
    </contour>
  </outline>
</glyph>
<glyph name="Ismallcap" format="2">
  <advance width="587"/>
  <unicode hex="026A"/>
  <anchor x="292" y="1292" name="top"/>
  <anchor x="292" y="0" name="bottom"/>
  <anchor x="567" y="1292" name="top0315"/>
  <outline>
    <contour>
      <point x="478" y="1082" type="line"/>
      <point x="110" y="1082" type="line"/>
      <point x="110" y="978" type="line"/>
      <point x="478" y="978" type="line"/>
    </contour>
    <contour>
      <point x="348" y="1082" type="line"/>
      <point x="237" y="1082" type="line"/>
      <point x="237" y="0" type="line"/>
      <point x="348" y="0" type="line"/>
    </contour>
    <contour>
      <point x="478" y="104" type="line"/>
      <point x="110" y="104" type="line"/>
      <point x="110" y="0" type="line"/>
      <point x="478" y="0" type="line"/>
    </contour>
  </outline>
</glyph>
<glyph name="mturn" format="2">
  <advance width="1562"/>
  <unicode hex="026F"/>
  <anchor x="785" y="1290" name="top"/>
  <anchor x="785" y="0" name="bottom"/>
  <anchor x="1542" y="1290" name="top0315"/>
  <outline>
    <contour>
      <point x="442" y="-20" type="curve" smooth="yes"/>
      <point x="660" y="-20"/>
      <point x="790" y="173"/>
      <point x="801" y="384" type="curve"/>
      <point x="727" y="380" type="line"/>
      <point x="722" y="252"/>
      <point x="638" y="87"/>
      <point x="470" y="86" type="curve" smooth="yes"/>
      <point x="342" y="85"/>
      <point x="253" y="148"/>
      <point x="253" y="375" type="curve" smooth="yes"/>
      <point x="253" y="1082" type="line"/>
      <point x="142" y="1082" type="line"/>
      <point x="142" y="376" type="line" smooth="yes"/>
      <point x="142" y="96"/>
      <point x="252" y="-20"/>
    </contour>
    <contour>
      <point x="1018" y="-20" type="curve" smooth="yes"/>
      <point x="1242" y="-20"/>
      <point x="1370" y="189"/>
      <point x="1380" y="445" type="curve"/>
      <point x="1328" y="474" type="line"/>
      <point x="1324" y="312"/>
      <point x="1254" y="86"/>
      <point x="1053" y="86" type="curve" smooth="yes"/>
      <point x="924" y="86"/>
      <point x="836" y="153"/>
      <point x="836" y="366" type="curve" smooth="yes"/>
      <point x="836" y="1082" type="line"/>
      <point x="726" y="1082" type="line"/>
      <point x="726" y="362" type="line" smooth="yes"/>
      <point x="726" y="89"/>
      <point x="843" y="-20"/>
    </contour>
    <contour>
      <point x="1306" y="223" type="line"/>
      <point x="1311" y="0" type="line"/>
      <point x="1418" y="0" type="line"/>
      <point x="1418" y="1082" type="line"/>
      <point x="1306" y="1082" type="line"/>
    </contour>
  </outline>
</glyph>
<glyph name="mhook" format="2">
  <advance width="1562"/>
  <unicode hex="0271"/>
  <anchor x="786" y="1290" name="top"/>
  <anchor x="786" y="-447" name="bottom"/>
  <anchor x="1542" y="1290" name="top0315"/>
  <outline>
    <contour>
      <point x="1309" y="200" type="line"/>
      <point x="1309" y="-112" type="line" smooth="yes"/>
      <point x="1309" y="-266"/>
      <point x="1266" y="-342"/>
      <point x="1166" y="-342" type="curve" smooth="yes"/>
      <point x="1145" y="-342"/>
      <point x="1119" y="-335"/>
      <point x="1103" y="-329" type="curve"/>
      <point x="1098" y="-419" type="line"/>
      <point x="1125" y="-430"/>
      <point x="1157" y="-437"/>
      <point x="1186" y="-437" type="curve" smooth="yes"/>
      <point x="1330" y="-437"/>
      <point x="1419" y="-322"/>
      <point x="1419" y="-112" type="curve" smooth="yes"/>
      <point x="1419" y="200" type="line"/>
    </contour>
    <component base="m"/>
  </outline>
</glyph>
<glyph name="nlfthook" format="2">
  <advance width="1052"/>
  <unicode hex="0272"/>
  <anchor x="564" y="1290" name="top"/>
  <anchor x="564" y="-447" name="bottom"/>
  <anchor x="1032" y="1290" name="top0315"/>
  <outline>
    <contour>
      <point x="214" y="200" type="line"/>
      <point x="214" y="-112" type="line" smooth="yes"/>
      <point x="214" y="-266"/>
      <point x="171" y="-342"/>
      <point x="72" y="-342" type="curve" smooth="yes"/>
      <point x="51" y="-342"/>
      <point x="24" y="-335"/>
      <point x="9" y="-329" type="curve"/>
      <point x="4" y="-419" type="line"/>
      <point x="32" y="-430"/>
      <point x="63" y="-437"/>
      <point x="92" y="-437" type="curve" smooth="yes"/>
      <point x="235" y="-437"/>
      <point x="326" y="-322"/>
      <point x="326" y="-112" type="curve" smooth="yes"/>
      <point x="326" y="200" type="line"/>
    </contour>
    <component base="n" xOffset="66"/>
  </outline>
</glyph>
<glyph name="nrthook" format="2">
  <advance width="1055"/>
  <unicode hex="0273"/>
  <anchor x="501" y="1290" name="top"/>
  <anchor x="501" y="-447" name="bottom"/>
  <anchor x="1035" y="1290" name="top0315"/>
  <outline>
    <contour>
      <point x="729" y="200" type="line"/>
      <point x="729" y="-112" type="line" smooth="yes"/>
      <point x="729" y="-322"/>
      <point x="818" y="-437"/>
      <point x="963" y="-437" type="curve" smooth="yes"/>
      <point x="993" y="-437"/>
      <point x="1024" y="-431"/>
      <point x="1051" y="-421" type="curve"/>
      <point x="1046" y="-330" type="line"/>
      <point x="1030" y="-336"/>
      <point x="1004" y="-343"/>
      <point x="982" y="-343" type="curve" smooth="yes"/>
      <point x="883" y="-343"/>
      <point x="840" y="-266"/>
      <point x="840" y="-112" type="curve" smooth="yes"/>
      <point x="840" y="200" type="line"/>
    </contour>
    <component base="n"/>
  </outline>
</glyph>
<glyph name="Nsmallcap" format="2">
  <advance width="995"/>
  <unicode hex="0274"/>
  <anchor x="499" y="1290" name="top"/>
  <anchor x="499" y="0" name="bottom"/>
  <anchor x="975" y="1290" name="top0315"/>
  <outline>
    <contour>
      <point x="259" y="1082" type="line"/>
      <point x="812" y="65" type="line"/>
      <point x="736" y="0" type="line"/>
      <point x="184" y="1017" type="line"/>
    </contour>
    <contour>
      <point x="259" y="0" type="line"/>
      <point x="148" y="0" type="line"/>
      <point x="148" y="1082" type="line"/>
      <point x="259" y="1082" type="line"/>
    </contour>
    <contour>
      <point x="847" y="0" type="line"/>
      <point x="736" y="0" type="line"/>
      <point x="736" y="1082" type="line"/>
      <point x="847" y="1082" type="line"/>
    </contour>
  </outline>
</glyph>
<glyph name="rturn" format="2">
  <advance width="620"/>
  <unicode hex="0279"/>
  <anchor x="224" y="1290" name="top"/>
  <anchor x="224" y="0" name="bottom"/>
  <anchor x="600" y="1290" name="top0315"/>
  <outline>
    <contour>
      <point x="112" y="-20" type="curve" smooth="yes"/>
      <point x="321" y="-20"/>
      <point x="416" y="200"/>
      <point x="416" y="481" type="curve"/>
      <point x="378" y="464" type="line"/>
      <point x="370" y="259"/>
      <point x="285" y="97"/>
      <point x="117" y="97" type="curve" smooth="yes"/>
      <point x="91" y="97"/>
      <point x="71" y="99"/>
      <point x="47" y="104" type="curve"/>
      <point x="45" y="-8" type="line"/>
      <point x="57" y="-14"/>
      <point x="88" y="-20"/>
    </contour>
    <contour>
      <point x="361" y="179" type="line"/>
      <point x="363" y="0" type="line"/>
      <point x="471" y="0" type="line"/>
      <point x="471" y="1082" type="line"/>
      <point x="361" y="1082" type="line"/>
    </contour>
  </outline>
</glyph>
<glyph name="rturnascend" format="2">
  <advance width="620"/>
  <unicode hex="027A"/>
  <anchor x="224" y="1600" name="top"/>
  <anchor x="224" y="0" name="bottom"/>
  <anchor x="600" y="1600" name="top0315"/>
  <outline>
    <contour>
      <point x="361" y="179" type="line"/>
      <point x="363" y="0" type="line"/>
      <point x="471" y="0" type="line"/>
      <point x="471" y="1536" type="line"/>
      <point x="361" y="1536" type="line"/>
    </contour>
    <contour>
      <point x="45" y="-8" type="line"/>
      <point x="57" y="-14"/>
      <point x="88" y="-20"/>
      <point x="112" y="-20" type="curve"/>
      <point x="321" y="-20"/>
      <point x="416" y="200"/>
      <point x="416" y="481" type="curve"/>
      <point x="378" y="464" type="line"/>
      <point x="370" y="259"/>
      <point x="285" y="97"/>
      <point x="117" y="97" type="curve"/>
      <point x="91" y="97"/>
      <point x="71" y="99"/>
      <point x="47" y="104" type="curve"/>
    </contour>
  </outline>
</glyph>
<glyph name="rturnrthook" format="2">
  <advance width="685"/>
  <unicode hex="027B"/>
  <anchor x="224" y="1290" name="top"/>
  <anchor x="224" y="-447" name="bottom"/>
  <anchor x="665" y="1290" name="top0315"/>
  <outline>
    <contour>
      <point x="360" y="259" type="line"/>
      <point x="360" y="-112" type="line" smooth="yes"/>
      <point x="360" y="-322"/>
      <point x="450" y="-437"/>
      <point x="593" y="-437" type="curve" smooth="yes"/>
      <point x="624" y="-437"/>
      <point x="655" y="-431"/>
      <point x="681" y="-421" type="curve"/>
      <point x="677" y="-330" type="line"/>
      <point x="662" y="-336"/>
      <point x="634" y="-343"/>
      <point x="613" y="-343" type="curve" smooth="yes"/>
      <point x="514" y="-343"/>
      <point x="471" y="-266"/>
      <point x="471" y="-112" type="curve" smooth="yes"/>
      <point x="471" y="259" type="line"/>
    </contour>
    <component base="r" xScale="-1.0" xyScale="-3.885780586188048e-16" yxScale="3.885780586188048e-16" yScale="-1.0" xOffset="620" yOffset="1081"/>
  </outline>
</glyph>
<glyph name="rdescend" format="2">
  <advance width="620"/>
  <unicode hex="027C"/>
  <anchor x="405" y="1290" name="top"/>
  <anchor x="405" y="-447" name="bottom"/>
  <anchor x="600" y="1290" name="top0315"/>
  <outline>
    <contour>
      <point x="260" y="903" type="line" name="hr00"/>
      <point x="257" y="1082" type="line"/>
      <point x="148" y="1082" type="line"/>
      <point x="148" y="-416" type="line"/>
      <point x="260" y="-416" type="line"/>
    </contour>
    <contour>
      <point x="574" y="1090" type="line"/>
      <point x="562" y="1096"/>
      <point x="532" y="1102"/>
      <point x="507" y="1102" type="curve"/>
      <point x="299" y="1102"/>
      <point x="203" y="882"/>
      <point x="203" y="601" type="curve"/>
      <point x="242" y="618" type="line"/>
      <point x="250" y="823"/>
      <point x="334" y="985"/>
      <point x="503" y="985" type="curve"/>
      <point x="529" y="985"/>
      <point x="550" y="983"/>
      <point x="572" y="978" type="curve"/>
    </contour>
  </outline>
</glyph>
<glyph name="rrthook" format="2">
  <advance width="620"/>
  <unicode hex="027D"/>
  <anchor x="311" y="-308" name="parenthesses.w1"/>
  <anchor x="405" y="1290" name="top"/>
  <anchor x="405" y="-444" name="bottom"/>
  <anchor x="600" y="1290" name="top0315"/>
  <outline>
    <contour>
      <point x="148" y="200" type="line"/>
      <point x="148" y="-112" type="line" smooth="yes"/>
      <point x="148" y="-322"/>
      <point x="238" y="-437"/>
      <point x="382" y="-437" type="curve" smooth="yes"/>
      <point x="413" y="-437"/>
      <point x="444" y="-431"/>
      <point x="470" y="-421" type="curve"/>
      <point x="465" y="-330" type="line"/>
      <point x="450" y="-336"/>
      <point x="423" y="-343"/>
      <point x="402" y="-343" type="curve" smooth="yes"/>
      <point x="303" y="-343"/>
      <point x="260" y="-266"/>
      <point x="260" y="-112" type="curve" smooth="yes"/>
      <point x="260" y="200" type="line"/>
    </contour>
    <component base="r"/>
  </outline>
</glyph>
<glyph name="rfishhook" format="2">
  <advance width="516"/>
  <unicode hex="027E"/>
  <anchor x="207" y="1290" name="top"/>
  <anchor x="207" y="0" name="bottom"/>
  <anchor x="496" y="1290" name="top0315"/>
  <outline>
    <contour>
      <point x="260" y="0" type="line"/>
      <point x="260" y="777" type="line" smooth="yes"/>
      <point x="260" y="931"/>
      <point x="303" y="1006"/>
      <point x="402" y="1006" type="curve" smooth="yes"/>
      <point x="423" y="1006"/>
      <point x="450" y="1000"/>
      <point x="465" y="993" type="curve"/>
      <point x="470" y="1084" type="line"/>
      <point x="443" y="1095"/>
      <point x="411" y="1101"/>
      <point x="382" y="1101" type="curve" smooth="yes"/>
      <point x="238" y="1101"/>
      <point x="148" y="986"/>
      <point x="148" y="777" type="curve" smooth="yes"/>
      <point x="148" y="0" type="line"/>
    </contour>
  </outline>
</glyph>
<glyph name="Rsmallcapinv" format="2">
  <advance width="952"/>
  <unicode hex="0281"/>
  <anchor x="493" y="1290" name="top"/>
  <anchor x="493" y="0" name="bottom"/>
  <anchor x="932" y="1290" name="top0315"/>
  <outline>
    <contour>
      <point x="608" y="585" type="line"/>
      <point x="861" y="1082" type="line"/>
      <point x="739" y="1082" type="line"/>
      <point x="485" y="585" type="line"/>
    </contour>
    <contour>
      <point x="497" y="0" type="line"/>
      <point x="707" y="0"/>
      <point x="826" y="138"/>
      <point x="826" y="323" type="curve" smooth="yes"/>
      <point x="826" y="509"/>
      <point x="717" y="647"/>
      <point x="522" y="647" type="curve" smooth="yes"/>
      <point x="209" y="647" type="line"/>
      <point x="209" y="542" type="line"/>
      <point x="522" y="542" type="line" smooth="yes"/>
      <point x="659" y="542"/>
      <point x="715" y="434"/>
      <point x="715" y="325" type="curve" smooth="yes"/>
      <point x="715" y="211"/>
      <point x="651" y="103"/>
      <point x="497" y="103" type="curve" smooth="yes"/>
      <point x="245" y="103" type="line"/>
      <point x="245" y="1082" type="line"/>
      <point x="135" y="1082" type="line"/>
      <point x="135" y="0" type="line"/>
    </contour>
  </outline>
</glyph>
<glyph name="srthook" format="2">
  <advance width="915"/>
  <unicode hex="0282"/>
  <anchor x="466" y="1290" name="top"/>
  <anchor x="466" y="-447" name="bottom"/>
  <anchor x="895" y="1290" name="top0315"/>
  <outline>
    <contour>
      <point x="103" y="295" type="line"/>
      <point x="103" y="-76" type="line" smooth="yes"/>
      <point x="103" y="-285"/>
      <point x="165" y="-400"/>
      <point x="308" y="-400" type="curve" smooth="yes"/>
      <point x="338" y="-400"/>
      <point x="369" y="-394"/>
      <point x="397" y="-383" type="curve"/>
      <point x="392" y="-292" type="line"/>
      <point x="376" y="-299"/>
      <point x="349" y="-305"/>
      <point x="328" y="-305" type="curve" smooth="yes"/>
      <point x="230" y="-305"/>
      <point x="187" y="-229"/>
      <point x="187" y="-76" type="curve" smooth="yes"/>
      <point x="187" y="295" type="line"/>
    </contour>
    <component base="s"/>
  </outline>
</glyph>
<glyph name="tturn" format="2">
  <advance width="595"/>
  <unicode hex="0287"/>
  <anchor x="218" y="1600" name="top"/>
  <anchor x="337" y="0" name="bottom"/>
  <anchor x="575" y="1600" name="top0315"/>
  <outline>
    <contour>
      <point x="95" y="277" type="line"/>
      <point x="557" y="277" type="line"/>
      <point x="557" y="377" type="line"/>
      <point x="95" y="377" type="line"/>
    </contour>
    <contour>
      <point x="391" y="0" type="line"/>
      <point x="391" y="1095" type="line"/>
      <point x="391" y="1312"/>
      <point x="307" y="1379"/>
      <point x="191" y="1379" type="curve" smooth="yes"/>
      <point x="148" y="1379"/>
      <point x="105" y="1372"/>
      <point x="81" y="1363" type="curve"/>
      <point x="84" y="1261" type="line"/>
      <point x="105" y="1266"/>
      <point x="135" y="1271"/>
      <point x="164" y="1271" type="curve" smooth="yes"/>
      <point x="225" y="1271"/>
      <point x="279" y="1245"/>
      <point x="279" y="1095" type="curve"/>
      <point x="279" y="0" type="line"/>
    </contour>
  </outline>
</glyph>
<glyph name="ubar" format="2">
  <advance width="1117"/>
  <unicode hex="0289"/>
  <anchor x="544" y="1290" name="top"/>
  <anchor x="544" y="0" name="bottom"/>
  <anchor x="1097" y="1290" name="top0315"/>
  <outline>
    <contour>
      <point x="1072" y="643" type="line"/>
      <point x="45" y="643" type="line"/>
      <point x="45" y="540" type="line"/>
      <point x="1072" y="540" type="line"/>
    </contour>
    <component base="u" xOffset="67"/>
  </outline>
</glyph>
<glyph name="upsilonlatin" format="2">
  <advance width="1051"/>
  <unicode hex="028A"/>
  <anchor x="526" y="1290" name="top"/>
  <anchor x="526" y="0" name="bottom"/>
  <anchor x="1031" y="1290" name="top0315"/>
  <outline>
    <contour>
      <point x="525" y="83" type="curve" smooth="yes"/>
      <point x="266" y="83"/>
      <point x="218" y="277"/>
      <point x="218" y="395" type="curve" smooth="yes"/>
      <point x="218" y="633"/>
      <point x="363" y="748"/>
      <point x="363" y="901" type="curve" smooth="yes"/>
      <point x="363" y="986"/>
      <point x="332" y="1101"/>
      <point x="145" y="1101" type="curve"/>
      <point x="145" y="1002" type="line"/>
      <point x="193" y="1002"/>
      <point x="253" y="977"/>
      <point x="253" y="890" type="curve" smooth="yes"/>
      <point x="253" y="745"/>
      <point x="107" y="649"/>
      <point x="107" y="377" type="curve" smooth="yes"/>
      <point x="107" y="198"/>
      <point x="192" y="-21"/>
      <point x="525" y="-21" type="curve" smooth="yes"/>
      <point x="859" y="-21"/>
      <point x="944" y="198"/>
      <point x="944" y="377" type="curve" smooth="yes"/>
      <point x="944" y="649"/>
      <point x="798" y="745"/>
      <point x="798" y="890" type="curve" smooth="yes"/>
      <point x="798" y="977"/>
      <point x="858" y="1002"/>
      <point x="907" y="1002" type="curve"/>
      <point x="907" y="1101" type="line"/>
      <point x="720" y="1101"/>
      <point x="688" y="986"/>
      <point x="688" y="901" type="curve" smooth="yes"/>
      <point x="688" y="748"/>
      <point x="833" y="633"/>
      <point x="833" y="396" type="curve" smooth="yes"/>
      <point x="833" y="277"/>
      <point x="785" y="83"/>
    </contour>
  </outline>
</glyph>
<glyph name="vturn" format="2">
  <advance width="870"/>
  <unicode hex="028C"/>
  <anchor x="434" y="1290" name="top"/>
  <anchor x="434" y="0" name="bottom"/>
  <anchor x="850" y="1290" name="top0315"/>
  <outline>
    <contour>
      <point x="449" y="965" type="line"/>
      <point x="470" y="1082" type="line"/>
      <point x="390" y="1082" type="line"/>
      <point x="52" y="0" type="line"/>
      <point x="167" y="0" type="line"/>
    </contour>
    <contour>
      <point x="703" y="0" type="line"/>
      <point x="817" y="0" type="line"/>
      <point x="478" y="1082" type="line"/>
      <point x="399" y="1082" type="line"/>
      <point x="414" y="968" type="line"/>
    </contour>
  </outline>
</glyph>
<glyph name="yturn" format="2">
  <advance width="858"/>
  <unicode hex="028E"/>
  <anchor x="423" y="1600" name="top"/>
  <anchor x="423" y="0" name="bottom"/>
  <anchor x="838" y="1600" name="top0315"/>
  <outline>
    <contour>
      <point x="443" y="974" type="line"/>
      <point x="516" y="1215" type="line" smooth="yes"/>
      <point x="553" y="1345"/>
      <point x="606" y="1411"/>
      <point x="714" y="1411" type="curve" smooth="yes"/>
      <point x="723" y="1411"/>
      <point x="751" y="1407"/>
      <point x="764" y="1404" type="curve"/>
      <point x="763" y="1506" type="line"/>
      <point x="748" y="1512"/>
      <point x="706" y="1519"/>
      <point x="684" y="1519" type="curve" smooth="yes"/>
      <point x="518" y="1519"/>
      <point x="458" y="1354"/>
      <point x="426" y="1255" type="curve" smooth="yes"/>
      <point x="46" y="0" type="line"/>
      <point x="166" y="0" type="line"/>
    </contour>
    <contour>
      <point x="691" y="0" type="line"/>
      <point x="813" y="0" type="line"/>
      <point x="464" y="1103" type="line"/>
      <point x="383" y="1053" type="line"/>
      <point x="413" y="927" type="line"/>
    </contour>
  </outline>
</glyph>
<glyph name="Ysmallcap" format="2">
  <advance width="926"/>
  <unicode hex="028F"/>
  <anchor x="463" y="1290" name="top"/>
  <anchor x="463" y="0" name="bottom"/>
  <anchor x="906" y="1290" name="top0315"/>
  <outline>
    <contour>
      <point x="441" y="450" type="line"/>
      <point x="441" y="366" type="line"/>
      <point x="513" y="366" type="line"/>
      <point x="888" y="1082" type="line"/>
      <point x="762" y="1082" type="line"/>
    </contour>
    <contour>
      <point x="164" y="1082" type="line"/>
      <point x="38" y="1082" type="line"/>
      <point x="412" y="366" type="line"/>
      <point x="485" y="366" type="line"/>
      <point x="486" y="446" type="line"/>
    </contour>
    <contour>
      <point x="516" y="477" type="line"/>
      <point x="406" y="477" type="line"/>
      <point x="406" y="0" type="line"/>
      <point x="516" y="0" type="line"/>
    </contour>
  </outline>
</glyph>
<glyph name="zcurl" format="2">
  <advance width="1007"/>
  <unicode hex="0291"/>
  <anchor x="432" y="1290" name="top"/>
  <anchor x="432" y="-447" name="bottom"/>
  <anchor x="987" y="1290" name="top0315"/>
  <outline>
    <contour>
      <point x="544" y="0" type="line"/>
      <point x="677" y="0" type="line" smooth="yes"/>
      <point x="840" y="-1"/>
      <point x="961" y="123"/>
      <point x="961" y="282" type="curve" smooth="yes"/>
      <point x="961" y="423"/>
      <point x="885" y="510"/>
      <point x="761" y="510" type="curve" smooth="yes"/>
      <point x="593" y="510"/>
      <point x="506" y="335"/>
      <point x="323" y="19" type="curve"/>
      <point x="245" y="-120" type="line"/>
      <point x="326" y="-186" type="line"/>
      <point x="437" y="10" type="line"/>
      <point x="576" y="268"/>
      <point x="654" y="405"/>
      <point x="752" y="405" type="curve" smooth="yes"/>
      <point x="815" y="405"/>
      <point x="856" y="357"/>
      <point x="856" y="275" type="curve" smooth="yes"/>
      <point x="856" y="175"/>
      <point x="779" y="104"/>
      <point x="677" y="104" type="curve" smooth="yes"/>
      <point x="544" y="104" type="line"/>
    </contour>
    <contour>
      <point x="603" y="104" type="line"/>
      <point x="135" y="104" type="line"/>
      <point x="135" y="0" type="line"/>
      <point x="603" y="0" type="line"/>
    </contour>
    <contour>
      <point x="775" y="992" type="line"/>
      <point x="775" y="1082" type="line"/>
      <point x="705" y="1082" type="line"/>
      <point x="94" y="91" type="line"/>
      <point x="94" y="0" type="line"/>
      <point x="162" y="0" type="line"/>
    </contour>
    <contour>
      <point x="726" y="1082" type="line"/>
      <point x="109" y="1082" type="line"/>
      <point x="109" y="977" type="line"/>
      <point x="726" y="977" type="line"/>
    </contour>
  </outline>
</glyph>
<glyph name="glottalstoprevinv" format="2">
  <advance width="927"/>
  <unicode hex="0295"/>
  <anchor x="494" y="1633" name="top"/>
  <anchor x="490" y="0" name="bottom"/>
  <anchor x="907" y="1633" name="top0315"/>
  <outline>
    <contour>
      <point x="491" y="531" type="line"/>
      <point x="284" y="531"/>
      <point x="210" y="738"/>
      <point x="210" y="967" type="curve" smooth="yes"/>
      <point x="210" y="1030" type="line" smooth="yes"/>
      <point x="210" y="1257"/>
      <point x="285" y="1466"/>
      <point x="489" y="1466" type="curve" smooth="yes"/>
      <point x="625" y="1466"/>
      <point x="728" y="1358"/>
      <point x="736" y="1185" type="curve"/>
      <point x="842" y="1185" type="line"/>
      <point x="833" y="1420"/>
      <point x="688" y="1570"/>
      <point x="489" y="1570" type="curve" smooth="yes"/>
      <point x="232" y="1570"/>
      <point x="99" y="1333"/>
      <point x="99" y="1030" type="curve" smooth="yes"/>
      <point x="99" y="967" type="line" smooth="yes"/>
      <point x="99" y="664"/>
      <point x="232" y="427"/>
      <point x="491" y="427" type="curve" smooth="yes"/>
      <point x="520" y="427" type="line"/>
      <point x="520" y="531" type="line"/>
    </contour>
    <contour>
      <point x="435" y="0" type="line"/>
      <point x="545" y="0" type="line"/>
      <point x="545" y="532" type="line"/>
      <point x="435" y="532" type="line"/>
    </contour>
  </outline>
</glyph>
<glyph name="bullseye" format="2">
  <advance width="1208"/>
  <unicode hex="0298"/>
  <anchor x="605" y="1633" name="top"/>
  <anchor x="605" y="0" name="bottom"/>
  <anchor x="1188" y="1633" name="top0315"/>
  <outline>
    <contour>
      <point x="529" y="730" type="curve" smooth="yes"/>
      <point x="529" y="683"/>
      <point x="557" y="647"/>
      <point x="605" y="647" type="curve" smooth="yes"/>
      <point x="653" y="647"/>
      <point x="681" y="683"/>
      <point x="681" y="730" type="curve" smooth="yes"/>
      <point x="681" y="777"/>
      <point x="653" y="815"/>
      <point x="605" y="815" type="curve" smooth="yes"/>
      <point x="557" y="815"/>
      <point x="529" y="777"/>
    </contour>
    <component base="O"/>
  </outline>
</glyph>
<glyph name="Gsmallcaphook" format="2">
  <advance width="1110"/>
  <unicode hex="029B"/>
  <anchor x="517" y="1290" name="top"/>
  <anchor x="517" y="0" name="bottom"/>
  <anchor x="1090" y="1290" name="top0315"/>
  <outline>
    <contour>
      <point x="896" y="753" type="line"/>
      <point x="896" y="819" type="line" smooth="yes"/>
      <point x="896" y="973"/>
      <point x="939" y="1048"/>
      <point x="1037" y="1048" type="curve" smooth="yes"/>
      <point x="1058" y="1048"/>
      <point x="1084" y="1042"/>
      <point x="1101" y="1035" type="curve"/>
      <point x="1106" y="1126" type="line"/>
      <point x="1078" y="1137"/>
      <point x="1046" y="1143"/>
      <point x="1018" y="1143" type="curve" smooth="yes"/>
      <point x="874" y="1143"/>
      <point x="812" y="1028"/>
      <point x="812" y="819" type="curve" smooth="yes"/>
      <point x="812" y="753" type="line"/>
    </contour>
    <component base="Gsmallcap" xOffset="-26"/>
  </outline>
</glyph>
<glyph name="jcrosstail" format="2">
  <advance width="722"/>
  <unicode hex="029D"/>
  <anchor x="460" y="1600" name="top"/>
  <anchor x="460" y="-447" name="bottom"/>
  <anchor x="702" y="1600" name="top0315"/>
  <outline>
    <contour>
      <point x="685" y="54" type="line"/>
      <point x="254" y="54" type="line" smooth="yes"/>
      <point x="135" y="54"/>
      <point x="42" y="-30"/>
      <point x="42" y="-188" type="curve" smooth="yes"/>
      <point x="42" y="-327"/>
      <point x="126" y="-437"/>
      <point x="266" y="-437" type="curve" smooth="yes"/>
      <point x="443" y="-437"/>
      <point x="514" y="-314"/>
      <point x="514" y="-129" type="curve" smooth="yes"/>
      <point x="514" y="174" type="line"/>
      <point x="403" y="174" type="line"/>
      <point x="403" y="-153" type="line" smooth="yes"/>
      <point x="403" y="-262"/>
      <point x="367" y="-333"/>
      <point x="265" y="-333" type="curve" smooth="yes"/>
      <point x="193" y="-333"/>
      <point x="152" y="-269"/>
      <point x="152" y="-188" type="curve" smooth="yes"/>
      <point x="152" y="-107"/>
      <point x="196" y="-50"/>
      <point x="269" y="-50" type="curve" smooth="yes"/>
      <point x="685" y="-50" type="line"/>
    </contour>
    <component base="i" xOffset="242"/>
  </outline>
</glyph>
<glyph name="Lsmallcap" format="2">
  <advance width="795"/>
  <unicode hex="029F"/>
  <anchor x="205" y="1290" name="top"/>
  <anchor x="466" y="0" name="bottom"/>
  <anchor x="775" y="1290" name="top0315"/>
  <outline>
    <contour>
      <point x="737" y="103" type="line"/>
      <point x="226" y="103" type="line"/>
      <point x="226" y="0" type="line"/>
      <point x="737" y="0" type="line"/>
    </contour>
    <contour>
      <point x="259" y="1082" type="line"/>
      <point x="148" y="1082" type="line"/>
      <point x="148" y="0" type="line"/>
      <point x="259" y="0" type="line"/>
    </contour>
  </outline>
</glyph>
<glyph name="dz" format="2">
  <advance width="1634"/>
  <unicode hex="02A3"/>
  <anchor x="1183" y="1600" name="top"/>
  <anchor x="1183" y="0" name="bottom"/>
  <anchor x="1614" y="1600" name="top0315"/>
  <outline>
    <contour>
      <point x="1563" y="104" type="line"/>
      <point x="888" y="104" type="line"/>
      <point x="888" y="0" type="line"/>
      <point x="1563" y="0" type="line"/>
    </contour>
    <contour>
      <point x="1528" y="992" type="line"/>
      <point x="1528" y="1082" type="line"/>
      <point x="1459" y="1082" type="line"/>
      <point x="848" y="91" type="line"/>
      <point x="848" y="0" type="line"/>
      <point x="915" y="0" type="line"/>
    </contour>
    <contour>
      <point x="1479" y="1082" type="line"/>
      <point x="817" y="1082" type="line"/>
      <point x="817" y="977" type="line"/>
      <point x="1479" y="977" type="line"/>
    </contour>
    <component base="d"/>
  </outline>
</glyph>
<glyph name="dyogh" format="2">
  <advance width="1645"/>
  <unicode hex="02A4"/>
  <anchor x="1123" y="1600" name="top"/>
  <anchor x="1123" y="-447" name="bottom"/>
  <anchor x="1625" y="1600" name="top0315"/>
  <outline>
    <contour>
      <point x="764" y="1082" type="line"/>
      <point x="764" y="978" type="line"/>
      <point x="1366" y="978" type="line"/>
      <point x="1005" y="427" type="line"/>
      <point x="1005" y="359" type="line"/>
      <point x="1078" y="359" type="line"/>
      <point x="1496" y="989" type="line"/>
      <point x="1494" y="1082" type="line"/>
    </contour>
    <contour>
      <point x="1005" y="421" type="line"/>
      <point x="1005" y="323" type="line"/>
      <point x="1111" y="323" type="line" smooth="yes"/>
      <point x="1302" y="323"/>
      <point x="1405" y="222"/>
      <point x="1405" y="-24" type="curve" smooth="yes"/>
      <point x="1405" y="-210"/>
      <point x="1303" y="-333"/>
      <point x="1124" y="-333" type="curve" smooth="yes"/>
      <point x="958" y="-333"/>
      <point x="865" y="-253"/>
      <point x="848" y="-104" type="curve"/>
      <point x="736" y="-104" type="line"/>
      <point x="763" y="-356"/>
      <point x="934" y="-437"/>
      <point x="1124" y="-437" type="curve" smooth="yes"/>
      <point x="1351" y="-437"/>
      <point x="1516" y="-285"/>
      <point x="1516" y="-20" type="curve" smooth="yes"/>
      <point x="1516" y="264"/>
      <point x="1376" y="421"/>
      <point x="1115" y="421" type="curve"/>
    </contour>
    <component base="d"/>
  </outline>
</glyph>
<glyph name="dzcurl" format="2">
  <advance width="1759"/>
  <unicode hex="02A5"/>
  <anchor x="1174" y="1600" name="top"/>
  <anchor x="1174" y="-447" name="bottom"/>
  <anchor x="1739" y="1600" name="top0315"/>
  <outline>
    <contour>
      <point x="998" y="-120" type="line"/>
      <point x="1079" y="-186" type="line"/>
      <point x="1230" y="80" type="line"/>
      <point x="1346" y="296"/>
      <point x="1417" y="405"/>
      <point x="1505" y="405" type="curve" smooth="yes"/>
      <point x="1569" y="405"/>
      <point x="1609" y="357"/>
      <point x="1609" y="279" type="curve" smooth="yes"/>
      <point x="1609" y="175"/>
      <point x="1533" y="104"/>
      <point x="1430" y="104" type="curve" smooth="yes"/>
      <point x="1298" y="104" type="line"/>
      <point x="1298" y="0" type="line"/>
      <point x="1430" y="0" type="line" smooth="yes"/>
      <point x="1594" y="0"/>
      <point x="1714" y="123"/>
      <point x="1714" y="282" type="curve" smooth="yes"/>
      <point x="1714" y="423"/>
      <point x="1637" y="510"/>
      <point x="1514" y="510" type="curve" smooth="yes"/>
      <point x="1358" y="510"/>
      <point x="1273" y="357"/>
      <point x="1115" y="78" type="curve"/>
    </contour>
    <contour>
      <point x="1356" y="104" type="line"/>
      <point x="887" y="104" type="line"/>
      <point x="887" y="0" type="line"/>
      <point x="1356" y="0" type="line"/>
    </contour>
    <contour>
      <point x="1528" y="992" type="line"/>
      <point x="1528" y="1082" type="line"/>
      <point x="1459" y="1082" type="line"/>
      <point x="847" y="91" type="line"/>
      <point x="847" y="0" type="line"/>
      <point x="915" y="0" type="line"/>
    </contour>
    <contour>
      <point x="1478" y="1082" type="line"/>
      <point x="834" y="1082" type="line"/>
      <point x="834" y="977" type="line"/>
      <point x="1478" y="977" type="line"/>
    </contour>
    <component base="d"/>
  </outline>
</glyph>
<glyph name="tesh" format="2">
  <advance width="956"/>
  <unicode hex="02A7"/>
  <anchor x="418" y="1700" name="top"/>
  <anchor x="418" y="-447" name="bottom"/>
  <anchor x="936" y="1700" name="top0315"/>
  <outline>
    <contour>
      <point x="603" y="1082" type="line"/>
      <point x="38" y="1082" type="line"/>
      <point x="38" y="982" type="line"/>
      <point x="603" y="982" type="line"/>
    </contour>
    <contour>
      <point x="204" y="1359" type="line"/>
      <point x="204" y="289" type="line" smooth="yes"/>
      <point x="204" y="73"/>
      <point x="260" y="-21"/>
      <point x="419" y="-21" type="curve" smooth="yes"/>
      <point x="483" y="-21"/>
      <point x="546" y="-7"/>
      <point x="591" y="16" type="curve"/>
      <point x="588" y="117" type="line"/>
      <point x="558" y="105"/>
      <point x="501" y="87"/>
      <point x="440" y="87" type="curve" smooth="yes"/>
      <point x="350" y="87"/>
      <point x="316" y="129"/>
      <point x="316" y="288" type="curve" smooth="yes"/>
      <point x="316" y="1359" type="line"/>
    </contour>
    <component base="esh" xOffset="214"/>
  </outline>
</glyph>
<glyph name="finalkaf" format="2">
  <advance width="1120"/>
  <unicode hex="02AA"/>
  <anchor x="663" y="1600" name="top"/>
  <anchor x="663" y="0" name="bottom"/>
  <anchor x="1100" y="1600" name="top0315"/>
  <outline>
    <contour>
      <point x="896" y="276" type="curve" smooth="yes"/>
      <point x="896" y="176"/>
      <point x="816" y="83"/>
      <point x="674" y="83" type="curve" smooth="yes"/>
      <point x="548" y="83"/>
      <point x="383" y="135"/>
      <point x="232" y="290" type="curve"/>
      <point x="198" y="181" type="line"/>
      <point x="307" y="65"/>
      <point x="494" y="-21"/>
      <point x="674" y="-21" type="curve" smooth="yes"/>
      <point x="873" y="-21"/>
      <point x="1006" y="104"/>
      <point x="1006" y="283" type="curve"/>
      <point x="1006" y="459"/>
      <point x="898" y="547"/>
      <point x="682" y="603" type="curve" smooth="yes"/>
      <point x="500" y="653"/>
      <point x="450" y="710"/>
      <point x="450" y="811" type="curve"/>
      <point x="450" y="901"/>
      <point x="511" y="998"/>
      <point x="663" y="998" type="curve" smooth="yes"/>
      <point x="808" y="998"/>
      <point x="889" y="889"/>
      <point x="889" y="778" type="curve"/>
      <point x="1000" y="778" type="line"/>
      <point x="1000" y="963"/>
      <point x="874" y="1102"/>
      <point x="663" y="1102" type="curve" smooth="yes"/>
      <point x="464" y="1102"/>
      <point x="339" y="968"/>
      <point x="339" y="807" type="curve"/>
      <point x="339" y="630"/>
      <point x="454" y="555"/>
      <point x="658" y="502" type="curve" smooth="yes"/>
      <point x="848" y="452"/>
      <point x="896" y="371"/>
    </contour>
    <component base="l"/>
  </outline>
</glyph>
<glyph name="uni02AB" format="2">
  <advance width="1059"/>
  <unicode hex="02AB"/>
  <anchor x="626" y="1600" name="top"/>
  <anchor x="626" y="0" name="bottom"/>
  <anchor x="1039" y="1600" name="top0315"/>
  <outline>
    <contour>
      <point x="988" y="104" type="line"/>
      <point x="275" y="104" type="line"/>
      <point x="275" y="0" type="line"/>
      <point x="988" y="0" type="line"/>
    </contour>
    <contour>
      <point x="953" y="992" type="line"/>
      <point x="953" y="1082" type="line"/>
      <point x="888" y="1082" type="line"/>
      <point x="234" y="78" type="line"/>
      <point x="234" y="0" type="line"/>
      <point x="308" y="0" type="line"/>
    </contour>
    <contour>
      <point x="904" y="1082" type="line"/>
      <point x="250" y="1082" type="line"/>
      <point x="250" y="977" type="line"/>
      <point x="904" y="977" type="line"/>
    </contour>
    <component base="l"/>
  </outline>
</glyph>
<glyph name="uni02AC" format="2">
  <advance width="818"/>
  <unicode hex="02AC"/>
  <anchor x="410" y="1600" name="top"/>
  <anchor x="410" y="0" name="bottom"/>
  <anchor x="798" y="1600" name="top0315"/>
  <outline>
    <contour>
      <point x="259" y="1023" type="line"/>
      <point x="239" y="871" type="line"/>
      <point x="294" y="871" type="line"/>
      <point x="410" y="1317" type="line"/>
      <point x="430" y="1456" type="line"/>
      <point x="371" y="1456" type="line"/>
    </contour>
    <contour>
      <point x="165" y="1456" type="line"/>
      <point x="74" y="1456" type="line"/>
      <point x="216" y="871" type="line"/>
      <point x="276" y="871" type="line"/>
      <point x="255" y="1023" type="line"/>
    </contour>
    <contour>
      <point x="566" y="1023" type="line"/>
      <point x="543" y="871" type="line"/>
      <point x="602" y="871" type="line"/>
      <point x="745" y="1456" type="line"/>
      <point x="653" y="1456" type="line"/>
    </contour>
    <contour>
      <point x="449" y="1456" type="line"/>
      <point x="391" y="1456" type="line"/>
      <point x="407" y="1318" type="line"/>
      <point x="525" y="871" type="line"/>
      <point x="580" y="871" type="line"/>
      <point x="561" y="1023" type="line"/>
    </contour>
    <contour>
      <point x="259" y="152" type="line"/>
      <point x="239" y="0" type="line"/>
      <point x="294" y="0" type="line"/>
      <point x="410" y="446" type="line"/>
      <point x="430" y="585" type="line"/>
      <point x="371" y="585" type="line"/>
    </contour>
    <contour>
      <point x="165" y="585" type="line"/>
      <point x="74" y="585" type="line"/>
      <point x="216" y="0" type="line"/>
      <point x="276" y="0" type="line"/>
      <point x="255" y="152" type="line"/>
    </contour>
    <contour>
      <point x="566" y="152" type="line"/>
      <point x="543" y="0" type="line"/>
      <point x="602" y="0" type="line"/>
      <point x="745" y="585" type="line"/>
      <point x="653" y="585" type="line"/>
    </contour>
    <contour>
      <point x="449" y="585" type="line"/>
      <point x="391" y="585" type="line"/>
      <point x="407" y="447" type="line"/>
      <point x="525" y="0" type="line"/>
      <point x="580" y="0" type="line"/>
      <point x="561" y="152" type="line"/>
    </contour>
  </outline>
</glyph>
<glyph name="finalmem" format="2">
  <advance width="848"/>
  <unicode hex="02AD"/>
  <anchor x="421" y="1600" name="top"/>
  <anchor x="421" y="0" name="bottom"/>
  <anchor x="828" y="1600" name="top0315"/>
  <outline>
    <contour>
      <point x="668" y="581" type="line"/>
      <point x="176" y="581" type="line"/>
      <point x="176" y="495" type="line"/>
      <point x="668" y="495" type="line"/>
    </contour>
    <contour>
      <point x="192" y="581" type="line"/>
      <point x="103" y="581" type="line"/>
      <point x="103" y="0" type="line"/>
      <point x="192" y="0" type="line"/>
    </contour>
    <contour>
      <point x="745" y="581" type="line"/>
      <point x="656" y="581" type="line"/>
      <point x="656" y="0" type="line"/>
      <point x="745" y="0" type="line"/>
    </contour>
    <contour>
      <point x="668" y="1455" type="line"/>
      <point x="176" y="1455" type="line"/>
      <point x="176" y="1369" type="line"/>
      <point x="668" y="1369" type="line"/>
    </contour>
    <contour>
      <point x="192" y="1455" type="line"/>
      <point x="103" y="1455" type="line"/>
      <point x="103" y="874" type="line"/>
      <point x="192" y="874" type="line"/>
    </contour>
    <contour>
      <point x="745" y="1455" type="line"/>
      <point x="656" y="1455" type="line"/>
      <point x="656" y="874" type="line"/>
      <point x="745" y="874" type="line"/>
    </contour>
  </outline>
</glyph>
<glyph name="finaltsadi" format="2">
  <advance width="558"/>
  <unicode hex="02B5"/>
  <outline>
    <contour>
      <point x="54" y="645" type="line"/>
      <point x="64" y="642"/>
      <point x="87" y="639"/>
      <point x="112" y="639" type="curve" smooth="yes"/>
      <point x="241" y="639"/>
      <point x="335" y="803"/>
      <point x="335" y="1028" type="curve"/>
      <point x="299" y="1027" type="line"/>
      <point x="298" y="866"/>
      <point x="232" y="745"/>
      <point x="127" y="745" type="curve" smooth="yes"/>
      <point x="98" y="745"/>
      <point x="74" y="751"/>
      <point x="54" y="759" type="curve"/>
    </contour>
    <contour>
      <point x="505" y="373" type="curve"/>
      <point x="505" y="480" type="line"/>
      <point x="486" y="473"/>
      <point x="461" y="469"/>
      <point x="439" y="469" type="curve" smooth="yes"/>
      <point x="409" y="469"/>
      <point x="388" y="492"/>
      <point x="388" y="549" type="curve" smooth="yes"/>
      <point x="388" y="1454" type="line"/>
      <point x="285" y="1454" type="line"/>
      <point x="285" y="542" type="line" smooth="yes"/>
      <point x="285" y="433"/>
      <point x="311" y="356"/>
      <point x="399" y="356" type="curve" smooth="yes"/>
      <point x="433" y="356"/>
      <point x="467" y="362"/>
    </contour>
  </outline>
</glyph>
<glyph name="wsuper" format="2">
  <advance width="984"/>
  <unicode hex="02B7"/>
  <outline>
    <contour>
      <point x="447" y="1452" type="line"/>
      <point x="316" y="926" type="line"/>
      <point x="266" y="651" type="line"/>
      <point x="335" y="651" type="line"/>
      <point x="477" y="1196" type="line"/>
      <point x="525" y="1452" type="line"/>
    </contour>
    <contour>
      <point x="54" y="1452" type="line"/>
      <point x="239" y="651" type="line"/>
      <point x="316" y="651" type="line"/>
      <point x="274" y="926" type="line"/>
      <point x="164" y="1452" type="line"/>
    </contour>
    <contour>
      <point x="818" y="1452" type="line"/>
      <point x="710" y="926" type="line"/>
      <point x="668" y="651" type="line"/>
      <point x="743" y="651" type="line"/>
      <point x="930" y="1452" type="line"/>
    </contour>
    <contour>
      <point x="458" y="1452" type="line"/>
      <point x="504" y="1196" type="line"/>
      <point x="647" y="651" type="line"/>
      <point x="718" y="651" type="line"/>
      <point x="667" y="926" type="line"/>
      <point x="537" y="1452" type="line"/>
    </contour>
  </outline>
</glyph>
<glyph name="uni02BB" format="2">
  <advance width="363"/>
  <unicode hex="02BB"/>
  <outline>
    <contour>
      <point x="87" y="1061" type="line"/>
      <point x="198" y="1061" type="line"/>
      <point x="198" y="1239" type="line" smooth="yes"/>
      <point x="198" y="1348"/>
      <point x="224" y="1430"/>
      <point x="275" y="1516" type="curve"/>
      <point x="210" y="1569" type="line"/>
      <point x="133" y="1488"/>
      <point x="87" y="1362"/>
      <point x="87" y="1237" type="curve" smooth="yes"/>
    </contour>
  </outline>
</glyph>
<glyph name="uni02BE" format="2">
  <advance width="283"/>
  <unicode hex="02BE"/>
  <anchor x="85" y="1210" name="_top"/>
  <anchor x="-35" y="1210" name="_rhalfring"/>
  <outline>
    <contour>
      <point x="69" y="1159" type="line"/>
      <point x="149" y="1159"/>
      <point x="214" y="1228"/>
      <point x="214" y="1323" type="curve" smooth="yes"/>
      <point x="214" y="1419"/>
      <point x="149" y="1492"/>
      <point x="69" y="1492" type="curve"/>
      <point x="69" y="1418" type="line"/>
      <point x="111" y="1418"/>
      <point x="145" y="1378"/>
      <point x="145" y="1323" type="curve" smooth="yes"/>
      <point x="145" y="1271"/>
      <point x="111" y="1232"/>
      <point x="69" y="1232" type="curve"/>
    </contour>
  </outline>
</glyph>
<glyph name="caron" format="2">
  <advance width="755"/>
  <unicode hex="02C7"/>
  <anchor x="380" y="1289" name="_top"/>
  <anchor x="380" y="1585" name="mkmktop_acc"/>
  <outline>
    <contour>
      <point x="239" y="1521" type="line"/>
      <point x="141" y="1521" type="line"/>
      <point x="141" y="1511" type="line"/>
      <point x="340" y="1247" type="line"/>
      <point x="418" y="1247" type="line"/>
      <point x="619" y="1509" type="line"/>
      <point x="619" y="1521" type="line"/>
      <point x="521" y="1521" type="line"/>
      <point x="380" y="1328" type="line"/>
    </contour>
  </outline>
</glyph>
<glyph name="uni02D1" format="2">
  <advance width="383"/>
  <unicode hex="02D1"/>
  <outline>
    <contour>
      <point x="103" y="1071" type="line"/>
      <point x="185" y="914" type="line"/>
      <point x="198" y="914" type="line"/>
      <point x="280" y="1071" type="line"/>
    </contour>
  </outline>
</glyph>
<glyph name="breve" format="2">
  <advance width="866"/>
  <unicode hex="02D8"/>
  <anchor x="428" y="1289" name="_top"/>
  <anchor x="428" y="1561" name="mkmktop_acc"/>
  <outline>
    <contour>
      <point x="592" y="1491" type="line"/>
      <point x="592" y="1400"/>
      <point x="539" y="1321"/>
      <point x="406" y="1321" type="curve" smooth="yes"/>
      <point x="269" y="1321"/>
      <point x="219" y="1399"/>
      <point x="219" y="1491" type="curve"/>
      <point x="116" y="1491" type="line"/>
      <point x="116" y="1339"/>
      <point x="226" y="1233"/>
      <point x="406" y="1233" type="curve" smooth="yes"/>
      <point x="585" y="1233"/>
      <point x="694" y="1339"/>
      <point x="694" y="1491" type="curve"/>
    </contour>
  </outline>
</glyph>
<glyph name="dotaccent" format="2">
  <advance width="460"/>
  <unicode hex="02D9"/>
  <anchor x="231" y="1292" name="_top"/>
  <anchor x="153" y="1379" name="_dot"/>
  <anchor x="230" y="1543" name="mkmktop_acc"/>
  <outline>
    <contour>
      <point x="142" y="1382" type="curve" smooth="yes"/>
      <point x="142" y="1337"/>
      <point x="173" y="1302"/>
      <point x="224" y="1302" type="curve" smooth="yes"/>
      <point x="275" y="1302"/>
      <point x="307" y="1337"/>
      <point x="307" y="1382" type="curve" smooth="yes"/>
      <point x="307" y="1428"/>
      <point x="275" y="1464"/>
      <point x="224" y="1464" type="curve" smooth="yes"/>
      <point x="173" y="1464"/>
      <point x="142" y="1428"/>
    </contour>
  </outline>
</glyph>
<glyph name="ogonek" format="2">
  <advance width="478"/>
  <unicode hex="02DB"/>
  <anchor x="318" y="0" name="_right"/>
  <anchor x="318" y="0" name="_ogonek"/>
  <anchor x="270" y="0" name="_bottom"/>
  <anchor x="270" y="-415" name="mkmkbottom_acc"/>
  <outline>
    <contour>
      <point x="266" y="39" type="line"/>
      <point x="142" y="-40"/>
      <point x="70" y="-144"/>
      <point x="70" y="-245" type="curve" smooth="yes"/>
      <point x="70" y="-358"/>
      <point x="131" y="-415"/>
      <point x="215" y="-415" type="curve" smooth="yes"/>
      <point x="275" y="-415"/>
      <point x="314" y="-391"/>
      <point x="338" y="-371" type="curve"/>
      <point x="327" y="-285" type="line"/>
      <point x="307" y="-299"/>
      <point x="279" y="-318"/>
      <point x="239" y="-318" type="curve" smooth="yes"/>
      <point x="185" y="-318"/>
      <point x="168" y="-280"/>
      <point x="168" y="-234" type="curve" smooth="yes"/>
      <point x="168" y="-142"/>
      <point x="242" y="-69"/>
      <point x="318" y="0" type="curve"/>
    </contour>
  </outline>
</glyph>
<glyph name="hungarumlaut" format="2">
  <advance width="689"/>
  <unicode hex="02DD"/>
  <anchor x="304" y="1292" name="_top"/>
  <anchor x="304" y="1579" name="mkmktop_acc"/>
  <outline>
    <contour>
      <point x="337" y="1232" type="line"/>
      <point x="446" y="1232" type="line"/>
      <point x="678" y="1536" type="line"/>
      <point x="548" y="1536" type="line"/>
    </contour>
    <contour>
      <point x="117" y="1232" type="line"/>
      <point x="216" y="1232" type="line"/>
      <point x="407" y="1536" type="line"/>
      <point x="282" y="1536" type="line"/>
    </contour>
  </outline>
</glyph>
<glyph name="dblapostrophe" format="2">
  <advance width="573"/>
  <unicode hex="02EE"/>
  <outline>
    <contour>
      <point x="275" y="1560" type="line"/>
      <point x="166" y="1560" type="line"/>
      <point x="166" y="1383" type="line" smooth="yes"/>
      <point x="166" y="1273"/>
      <point x="139" y="1191"/>
      <point x="87" y="1105" type="curve"/>
      <point x="152" y="1053" type="line"/>
      <point x="229" y="1134"/>
      <point x="275" y="1260"/>
      <point x="275" y="1385" type="curve" smooth="yes"/>
    </contour>
    <contour>
      <point x="485" y="1560" type="line"/>
      <point x="375" y="1560" type="line"/>
      <point x="375" y="1383" type="line" smooth="yes"/>
      <point x="375" y="1273"/>
      <point x="349" y="1191"/>
      <point x="296" y="1105" type="curve"/>
      <point x="362" y="1053" type="line"/>
      <point x="438" y="1134"/>
      <point x="485" y="1260"/>
      <point x="485" y="1385" type="curve" smooth="yes"/>
    </contour>
  </outline>
</glyph>
<glyph name="uni02F3" format="2">
  <advance width="559"/>
  <unicode hex="02F3"/>
  <anchor x="281" y="-4" name="_bottom"/>
  <outline>
    <contour>
      <point x="148" y="-231" type="curve" smooth="yes"/>
      <point x="148" y="-313"/>
      <point x="207" y="-371"/>
      <point x="280" y="-371" type="curve" smooth="yes"/>
      <point x="352" y="-371"/>
      <point x="410" y="-313"/>
      <point x="410" y="-231" type="curve" smooth="yes"/>
      <point x="410" y="-150"/>
      <point x="352" y="-87"/>
      <point x="280" y="-87" type="curve" smooth="yes"/>
      <point x="207" y="-87"/>
      <point x="148" y="-150"/>
    </contour>
    <contour>
      <point x="210" y="-231" type="curve" smooth="yes"/>
      <point x="210" y="-189"/>
      <point x="242" y="-157"/>
      <point x="280" y="-157" type="curve" smooth="yes"/>
      <point x="317" y="-157"/>
      <point x="347" y="-189"/>
      <point x="347" y="-231" type="curve" smooth="yes"/>
      <point x="347" y="-272"/>
      <point x="317" y="-303"/>
      <point x="280" y="-303" type="curve" smooth="yes"/>
      <point x="242" y="-303"/>
      <point x="210" y="-272"/>
    </contour>
  </outline>
</glyph>
<glyph name="uni02FD" format="2">
  <advance width="723"/>
  <unicode hex="02FD"/>
  <outline>
    <contour>
      <point x="559" y="-339" type="line"/>
      <point x="160" y="-339" type="line"/>
      <point x="160" y="-425" type="line"/>
      <point x="559" y="-425" type="line"/>
    </contour>
    <contour>
      <point x="176" y="-74" type="line"/>
      <point x="87" y="-74" type="line"/>
      <point x="87" y="-425" type="line"/>
      <point x="176" y="-425" type="line"/>
    </contour>
    <contour>
      <point x="636" y="-74" type="line"/>
      <point x="546" y="-74" type="line"/>
      <point x="546" y="-425" type="line"/>
      <point x="636" y="-425" type="line"/>
    </contour>
  </outline>
</glyph>
<glyph name="uni02FE" format="2">
  <advance width="678"/>
  <unicode hex="02FE"/>
  <outline>
    <contour>
      <point x="590" y="-369" type="line"/>
      <point x="160" y="-369" type="line"/>
      <point x="160" y="-456" type="line"/>
      <point x="590" y="-456" type="line"/>
    </contour>
    <contour>
      <point x="176" y="-70" type="line"/>
      <point x="87" y="-70" type="line"/>
      <point x="87" y="-456" type="line"/>
      <point x="176" y="-456" type="line"/>
    </contour>
  </outline>
</glyph>
<glyph name="gravecomb" format="2">
  <unicode hex="0300"/>
  <anchor x="-430" y="1292" name="_top"/>
  <anchor x="-430" y="1292" name="_marktop"/>
  <anchor x="-430" y="1593" name="mkmktop"/>
  <anchor x="-514" y="1396" name="parent_top"/>
  <outline>
    <contour>
      <point x="-528" y="1536" type="line"/>
      <point x="-662" y="1536" type="line"/>
      <point x="-466" y="1256" type="line"/>
      <point x="-367" y="1256" type="line"/>
    </contour>
  </outline>
</glyph>
<glyph name="macroncomb" format="2">
  <unicode hex="0304"/>
  <anchor x="-456" y="1286" name="_marktop"/>
  <anchor x="-456" y="1559" name="mkmktop"/>
  <anchor x="-460" y="1396" name="parent_top"/>
  <outline>
    <contour>
      <point x="-196" y="1441" type="line"/>
      <point x="-724" y="1441" type="line"/>
      <point x="-724" y="1342" type="line"/>
      <point x="-196" y="1342" type="line"/>
    </contour>
  </outline>
</glyph>
<glyph name="brevenosp" format="2">
  <unicode hex="0306"/>
  <anchor x="-462" y="1194" name="_marktop"/>
  <anchor x="-462" y="1556" name="mkmktop"/>
  <anchor x="-464" y="1362" name="parent_top"/>
  <outline>
    <contour>
      <point x="-314" y="1491" type="line"/>
      <point x="-314" y="1400"/>
      <point x="-357" y="1321"/>
      <point x="-464" y="1321" type="curve" smooth="yes"/>
      <point x="-575" y="1321"/>
      <point x="-615" y="1399"/>
      <point x="-615" y="1491" type="curve"/>
      <point x="-708" y="1491" type="line"/>
      <point x="-708" y="1339"/>
      <point x="-615" y="1233"/>
      <point x="-464" y="1233" type="curve" smooth="yes"/>
      <point x="-312" y="1233"/>
      <point x="-220" y="1339"/>
      <point x="-220" y="1491" type="curve"/>
    </contour>
  </outline>
</glyph>
<glyph name="dotnosp" format="2">
  <unicode hex="0307"/>
  <anchor x="-464" y="1320" name="_marktop"/>
  <anchor x="-464" y="1543" name="mkmktop"/>
  <anchor x="-463" y="1395" name="parent_top"/>
  <outline>
    <contour>
      <point x="-537" y="1394" type="curve" smooth="yes"/>
      <point x="-537" y="1349"/>
      <point x="-510" y="1314"/>
      <point x="-464" y="1314" type="curve" smooth="yes"/>
      <point x="-417" y="1314"/>
      <point x="-390" y="1349"/>
      <point x="-390" y="1394" type="curve" smooth="yes"/>
      <point x="-390" y="1440"/>
      <point x="-417" y="1476"/>
      <point x="-464" y="1476" type="curve" smooth="yes"/>
      <point x="-510" y="1476"/>
      <point x="-537" y="1440"/>
    </contour>
  </outline>
</glyph>
<glyph name="uni030C" format="2">
  <unicode hex="030C"/>
  <anchor x="-464" y="1290" name="_top"/>
  <anchor x="-464" y="1290" name="_marktop"/>
  <anchor x="-464" y="1585" name="mkmktop"/>
  <anchor x="-465" y="1392" name="parent_top"/>
  <outline>
    <contour>
      <point x="-431" y="1258" type="line"/>
      <point x="-501" y="1258" type="line"/>
      <point x="-702" y="1514" type="line"/>
      <point x="-702" y="1527" type="line"/>
      <point x="-604" y="1527" type="line"/>
      <point x="-467" y="1345" type="line"/>
      <point x="-328" y="1527" type="line"/>
      <point x="-227" y="1527" type="line"/>
      <point x="-227" y="1517" type="line"/>
    </contour>
  </outline>
</glyph>
<glyph name="breveinvnosp" format="2">
  <unicode hex="0311"/>
  <anchor x="-464" y="1188" name="_top"/>
  <anchor x="-464" y="1188" name="_marktop"/>
  <anchor x="-464" y="1521" name="mkmktop_acc"/>
  <anchor x="-464" y="1521" name="mkmktop"/>
  <anchor x="-464" y="1327" name="parent_top"/>
  <outline>
    <contour>
      <point x="-219" y="1198" type="line"/>
      <point x="-219" y="1350"/>
      <point x="-312" y="1456"/>
      <point x="-464" y="1456" type="curve" smooth="yes"/>
      <point x="-615" y="1456"/>
      <point x="-708" y="1350"/>
      <point x="-708" y="1198" type="curve"/>
      <point x="-615" y="1198" type="line"/>
      <point x="-615" y="1290"/>
      <point x="-575" y="1368"/>
      <point x="-464" y="1368" type="curve" smooth="yes"/>
      <point x="-356" y="1368"/>
      <point x="-314" y="1289"/>
      <point x="-314" y="1198" type="curve"/>
    </contour>
  </outline>
</glyph>
<glyph name="commaturnsupnosp" format="2">
  <unicode hex="0312"/>
  <anchor x="-466" y="1111" name="_marktop"/>
  <anchor x="-466" y="1684" name="mkmktop"/>
  <anchor x="-426" y="1315" name="parent_top"/>
  <outline>
    <contour>
      <point x="-521" y="1061" type="line"/>
      <point x="-411" y="1061" type="line"/>
      <point x="-411" y="1239" type="line" smooth="yes"/>
      <point x="-411" y="1348"/>
      <point x="-384" y="1430"/>
      <point x="-332" y="1516" type="curve"/>
      <point x="-397" y="1569" type="line"/>
      <point x="-474" y="1488"/>
      <point x="-521" y="1362"/>
      <point x="-521" y="1237" type="curve" smooth="yes"/>
    </contour>
  </outline>
</glyph>
<glyph name="commasuprevnosp" format="2">
  <unicode hex="0314"/>
  <anchor x="-431" y="1111" name="_marktop"/>
  <anchor x="-431" y="1684" name="mkmktop"/>
  <anchor x="-447" y="1315" name="parent_top"/>
  <outline>
    <contour>
      <point x="-541" y="1569" type="line"/>
      <point x="-431" y="1569" type="line"/>
      <point x="-431" y="1391" type="line" smooth="yes"/>
      <point x="-431" y="1282"/>
      <point x="-405" y="1200"/>
      <point x="-352" y="1114" type="curve"/>
      <point x="-418" y="1061" type="line"/>
      <point x="-494" y="1143"/>
      <point x="-541" y="1268"/>
      <point x="-541" y="1394" type="curve" smooth="yes"/>
    </contour>
  </outline>
</glyph>
<glyph name="tackrightsubnosp" format="2">
  <unicode hex="0319"/>
  <anchor x="-481" y="-446" name="mkmkbottom_acc"/>
  <anchor x="-481" y="0" name="_markbottom"/>
  <outline>
    <contour>
      <point x="-612" y="-60" type="line"/>
      <point x="-523" y="-60" type="line"/>
      <point x="-523" y="-446" type="line"/>
      <point x="-612" y="-446" type="line"/>
    </contour>
    <contour>
      <point x="-315" y="-206" type="line"/>
      <point x="-315" y="-300" type="line"/>
      <point x="-604" y="-300" type="line"/>
      <point x="-604" y="-206" type="line"/>
    </contour>
  </outline>
</glyph>
<glyph name="hornnosp" format="2">
  <unicode hex="031B"/>
  <outline>
    <contour>
      <point x="-96" y="1505" type="line"/>
      <point x="-206" y="1505" type="line"/>
      <point x="-206" y="1248"/>
      <point x="-223" y="1165"/>
      <point x="-284" y="1050" type="curve"/>
      <point x="-219" y="997" type="line"/>
      <point x="-136" y="1101"/>
      <point x="-96" y="1198"/>
      <point x="-96" y="1460" type="curve" smooth="yes"/>
    </contour>
  </outline>
</glyph>
<glyph name="tackdownsubnosp" format="2">
  <unicode hex="031E"/>
  <anchor x="-465" y="-424" name="mkmkbottom_acc"/>
  <anchor x="-465" y="0" name="_markbottom"/>
  <outline>
    <contour>
      <point x="-419" y="-434" type="line"/>
      <point x="-508" y="-434" type="line"/>
      <point x="-508" y="-96" type="line"/>
      <point x="-419" y="-96" type="line"/>
    </contour>
    <contour>
      <point x="-635" y="-191" type="line"/>
      <point x="-635" y="-96" type="line"/>
      <point x="-293" y="-96" type="line"/>
      <point x="-293" y="-191" type="line"/>
    </contour>
  </outline>
</glyph>
<glyph name="minussubnosp" format="2">
  <unicode hex="0320"/>
  <anchor x="-463" y="-319" name="mkmkbottom_acc"/>
  <anchor x="-463" y="0" name="_markbottom"/>
  <outline>
    <contour>
      <point x="-663" y="-225" type="line"/>
      <point x="-663" y="-319" type="line"/>
      <point x="-264" y="-319" type="line"/>
      <point x="-264" y="-225" type="line"/>
    </contour>
  </outline>
</glyph>
<glyph name="dotbelow" format="2">
  <unicode hex="0323"/>
  <anchor x="-585" y="0" name="_bottom"/>
  <anchor x="-585" y="0" name="_markbottom"/>
  <anchor x="-585" y="-318" name="mkmkbottom_acc"/>
  <anchor x="-585" y="0" name="_bottomu"/>
  <outline>
    <contour>
      <point x="-619" y="-232" type="curve" smooth="yes"/>
      <point x="-619" y="-277"/>
      <point x="-589" y="-312"/>
      <point x="-537" y="-312" type="curve" smooth="yes"/>
      <point x="-486" y="-312"/>
      <point x="-454" y="-277"/>
      <point x="-454" y="-232" type="curve" smooth="yes"/>
      <point x="-454" y="-187"/>
      <point x="-486" y="-150"/>
      <point x="-537" y="-150" type="curve" smooth="yes"/>
      <point x="-589" y="-150"/>
      <point x="-619" y="-187"/>
    </contour>
  </outline>
</glyph>
<glyph name="dotdblsubnosp" format="2">
  <unicode hex="0324"/>
  <anchor x="-506" y="0" name="_bottom"/>
  <anchor x="-506" y="0" name="_markbottom"/>
  <anchor x="-506" y="-313" name="mkmkbottom_acc"/>
  <outline>
    <contour>
      <point x="-764" y="-232" type="curve" smooth="yes"/>
      <point x="-764" y="-277"/>
      <point x="-736" y="-312"/>
      <point x="-690" y="-312" type="curve" smooth="yes"/>
      <point x="-644" y="-312"/>
      <point x="-616" y="-277"/>
      <point x="-616" y="-232" type="curve" smooth="yes"/>
      <point x="-616" y="-187"/>
      <point x="-644" y="-150"/>
      <point x="-690" y="-150" type="curve" smooth="yes"/>
      <point x="-736" y="-150"/>
      <point x="-764" y="-187"/>
    </contour>
    <contour>
      <point x="-397" y="-233" type="curve" smooth="yes"/>
      <point x="-397" y="-278"/>
      <point x="-370" y="-313"/>
      <point x="-324" y="-313" type="curve" smooth="yes"/>
      <point x="-278" y="-313"/>
      <point x="-250" y="-278"/>
      <point x="-250" y="-233" type="curve" smooth="yes"/>
      <point x="-250" y="-187"/>
      <point x="-278" y="-151"/>
      <point x="-324" y="-151" type="curve" smooth="yes"/>
      <point x="-370" y="-151"/>
      <point x="-397" y="-187"/>
    </contour>
  </outline>
</glyph>
<glyph name="uni032C" format="2">
  <unicode hex="032C"/>
  <anchor x="-463" y="0" name="_bottom"/>
  <anchor x="-463" y="0" name="_markbottom"/>
  <anchor x="-463" y="-404" name="mkmkbottom_acc"/>
  <outline>
    <contour>
      <point x="-430" y="-404" type="line"/>
      <point x="-500" y="-404" type="line"/>
      <point x="-701" y="-148" type="line"/>
      <point x="-701" y="-135" type="line"/>
      <point x="-603" y="-135" type="line"/>
      <point x="-466" y="-318" type="line"/>
      <point x="-327" y="-135" type="line"/>
      <point x="-227" y="-135" type="line"/>
      <point x="-227" y="-145" type="line"/>
    </contour>
  </outline>
</glyph>
<glyph name="brevesubnosp" format="2">
  <unicode hex="032E"/>
  <anchor x="-464" y="0" name="_bottom"/>
  <anchor x="-464" y="0" name="_markbottom"/>
  <anchor x="-464" y="-353" name="mkmkbottom_acc"/>
  <outline>
    <contour>
      <point x="-313" y="-94" type="line"/>
      <point x="-313" y="-185"/>
      <point x="-356" y="-264"/>
      <point x="-463" y="-264" type="curve" smooth="yes"/>
      <point x="-574" y="-264"/>
      <point x="-614" y="-186"/>
      <point x="-614" y="-94" type="curve"/>
      <point x="-708" y="-94" type="line"/>
      <point x="-708" y="-246"/>
      <point x="-615" y="-352"/>
      <point x="-463" y="-352" type="curve" smooth="yes"/>
      <point x="-312" y="-352"/>
      <point x="-220" y="-246"/>
      <point x="-220" y="-94" type="curve"/>
    </contour>
  </outline>
</glyph>
<glyph name="underscoredblnosp" format="2">
  <unicode hex="0333"/>
  <anchor x="-463" y="-407" name="mkmkbottom_acc"/>
  <anchor x="-464" y="0" name="_markbottom"/>
  <outline>
    <contour>
      <point x="-91" y="-93" type="line"/>
      <point x="-836" y="-93" type="line"/>
      <point x="-836" y="-197" type="line"/>
      <point x="-91" y="-197" type="line"/>
    </contour>
    <contour>
      <point x="-91" y="-303" type="line"/>
      <point x="-836" y="-303" type="line"/>
      <point x="-836" y="-407" type="line"/>
      <point x="-91" y="-407" type="line"/>
    </contour>
  </outline>
</glyph>
<glyph name="squaresubnosp" format="2">
  <unicode hex="033B"/>
  <anchor x="-464" y="-455" name="mkmkbottom_acc"/>
  <anchor x="-464" y="0" name="_markbottom"/>
  <outline>
    <contour>
      <point x="-624" y="-455" type="line"/>
      <point x="-305" y="-455" type="line"/>
      <point x="-305" y="-79" type="line"/>
      <point x="-624" y="-79" type="line"/>
    </contour>
    <contour>
      <point x="-553" y="-159" type="line"/>
      <point x="-374" y="-159" type="line"/>
      <point x="-374" y="-375" type="line"/>
      <point x="-553" y="-375" type="line"/>
    </contour>
  </outline>
</glyph>
<glyph name="seagullsubnosp" format="2">
  <unicode hex="033C"/>
  <anchor x="-463" y="-293" name="mkmkbottom_acc"/>
  <anchor x="-463" y="0" name="_markbottom"/>
  <outline>
    <contour>
      <point x="-738" y="-303" type="line"/>
      <point x="-738" y="-198"/>
      <point x="-673" y="-119"/>
      <point x="-586" y="-119" type="curve" smooth="yes"/>
      <point x="-491" y="-119"/>
      <point x="-431" y="-198"/>
      <point x="-431" y="-303" type="curve"/>
      <point x="-496" y="-303" type="line"/>
      <point x="-496" y="-244"/>
      <point x="-527" y="-204"/>
      <point x="-586" y="-204" type="curve" smooth="yes"/>
      <point x="-635" y="-204"/>
      <point x="-673" y="-244"/>
      <point x="-673" y="-303" type="curve"/>
    </contour>
    <contour>
      <point x="-496" y="-303" type="line"/>
      <point x="-496" y="-198"/>
      <point x="-437" y="-119"/>
      <point x="-341" y="-119" type="curve" smooth="yes"/>
      <point x="-254" y="-119"/>
      <point x="-188" y="-198"/>
      <point x="-188" y="-303" type="curve"/>
      <point x="-254" y="-303" type="line"/>
      <point x="-254" y="-244"/>
      <point x="-292" y="-204"/>
      <point x="-341" y="-204" type="curve" smooth="yes"/>
      <point x="-400" y="-204"/>
      <point x="-431" y="-244"/>
      <point x="-431" y="-303" type="curve"/>
    </contour>
  </outline>
</glyph>
<glyph name="uni0347" format="2">
  <unicode hex="0347"/>
  <anchor x="-463" y="-422" name="mkmkbottom_acc"/>
  <anchor x="-463" y="0" name="_markbottom"/>
  <outline>
    <contour>
      <point x="-663" y="-134" type="line"/>
      <point x="-663" y="-229" type="line"/>
      <point x="-264" y="-229" type="line"/>
      <point x="-264" y="-134" type="line"/>
    </contour>
    <contour>
      <point x="-663" y="-328" type="line"/>
      <point x="-663" y="-422" type="line"/>
      <point x="-264" y="-422" type="line"/>
      <point x="-264" y="-328" type="line"/>
    </contour>
  </outline>
</glyph>
<glyph name="uni0349" format="2">
  <unicode hex="0349"/>
  <anchor x="-440" y="-501" name="mkmkbottom_acc"/>
  <anchor x="-440" y="0" name="_markbottom"/>
  <outline>
    <contour>
      <point x="-361" y="-115" type="line"/>
      <point x="-272" y="-115" type="line"/>
      <point x="-272" y="-501" type="line"/>
      <point x="-361" y="-501" type="line"/>
    </contour>
    <contour>
      <point x="-272" y="-115" type="line"/>
      <point x="-272" y="-209" type="line"/>
      <point x="-607" y="-209" type="line"/>
      <point x="-607" y="-115" type="line"/>
    </contour>
  </outline>
</glyph>
<glyph name="uni034A" format="2">
  <unicode hex="034A"/>
  <anchor x="-457" y="1266" name="_marktop"/>
  <anchor x="-457" y="1635" name="mkmktop"/>
  <outline>
    <contour>
      <point x="-413" y="1562" type="line"/>
      <point x="-573" y="1235" type="line"/>
      <point x="-510" y="1191" type="line"/>
      <point x="-352" y="1518" type="line"/>
    </contour>
    <component base="tilde" xOffset="-856"/>
  </outline>
</glyph>
<glyph name="uni034E" format="2">
  <unicode hex="034E"/>
  <anchor x="-464" y="-550" name="mkmkbottom_acc"/>
  <anchor x="-464" y="0" name="_markbottom"/>
  <outline>
    <contour>
      <point x="-433" y="-550" type="line"/>
      <point x="-433" y="-163" type="line"/>
      <point x="-496" y="-163" type="line"/>
      <point x="-496" y="-550" type="line"/>
    </contour>
    <contour>
      <point x="-673" y="-397" type="line"/>
      <point x="-428" y="-148" type="line"/>
      <point x="-464" y="-98" type="line"/>
      <point x="-673" y="-311" type="line"/>
    </contour>
    <contour>
      <point x="-254" y="-311" type="line"/>
      <point x="-464" y="-98" type="line"/>
      <point x="-499" y="-151" type="line"/>
      <point x="-254" y="-397" type="line"/>
    </contour>
  </outline>
</glyph>
<glyph name="uni0350" format="2">
  <unicode hex="0350"/>
  <anchor x="-459" y="1188" name="_marktop"/>
  <anchor x="-459" y="1950" name="mkmktop"/>
  <outline>
    <contour>
      <point x="-336" y="1511" type="line"/>
      <point x="-149" y="1580" type="line"/>
      <point x="-149" y="1498" type="line"/>
      <point x="-760" y="1177" type="line"/>
      <point x="-760" y="1291" type="line"/>
    </contour>
    <contour>
      <point x="-760" y="1797" type="line"/>
      <point x="-760" y="1910" type="line"/>
      <point x="-149" y="1591" type="line"/>
      <point x="-149" y="1508" type="line"/>
      <point x="-336" y="1575" type="line"/>
    </contour>
  </outline>
</glyph>
<glyph name="uni035B" format="2">
  <unicode hex="035B"/>
  <anchor x="-467" y="1213" name="_marktop"/>
  <anchor x="-467" y="1741" name="mkmktop"/>
  <outline>
    <contour>
      <point x="-516" y="1661" type="line"/>
      <point x="-596" y="1379" type="line"/>
      <point x="-412" y="1379" type="line"/>
      <point x="-467" y="1181" type="line"/>
      <point x="-390" y="1181" type="line"/>
      <point x="-309" y="1464" type="line"/>
      <point x="-492" y="1464" type="line"/>
      <point x="-439" y="1661" type="line"/>
    </contour>
  </outline>
</glyph>
<glyph name="uni035D" format="2">
  <unicode hex="035D"/>
  <anchor x="20" y="1171" name="_marktop_dd"/>
  <outline>
    <contour>
      <point x="503" y="1491" type="line"/>
      <point x="412" y="1401"/>
      <point x="264" y="1286"/>
      <point x="20" y="1286" type="curve" smooth="yes"/>
      <point x="-228" y="1286"/>
      <point x="-373" y="1399"/>
      <point x="-464" y="1491" type="curve"/>
      <point x="-560" y="1491" type="line"/>
      <point x="-457" y="1340"/>
      <point x="-272" y="1198"/>
      <point x="20" y="1198" type="curve" smooth="yes"/>
      <point x="312" y="1198"/>
      <point x="496" y="1340"/>
      <point x="600" y="1491" type="curve"/>
    </contour>
  </outline>
</glyph>
<glyph name="uni035E" format="2">
  <unicode hex="035E"/>
  <anchor x="20" y="1261" name="_marktop_dd"/>
  <outline>
    <contour>
      <point x="505" y="1385" type="line"/>
      <point x="-466" y="1385" type="line"/>
      <point x="-466" y="1286" type="line"/>
      <point x="505" y="1286" type="line"/>
    </contour>
  </outline>
</glyph>
<glyph name="uni0361" format="2">
  <unicode hex="0361"/>
  <anchor x="20" y="1211" name="_marktop_dd"/>
  <outline>
    <contour>
      <point x="600" y="1177" type="line"/>
      <point x="496" y="1329"/>
      <point x="312" y="1470"/>
      <point x="20" y="1470" type="curve" smooth="yes"/>
      <point x="-272" y="1470"/>
      <point x="-457" y="1329"/>
      <point x="-560" y="1177" type="curve"/>
      <point x="-464" y="1177" type="line"/>
      <point x="-373" y="1269"/>
      <point x="-228" y="1382"/>
      <point x="20" y="1382" type="curve" smooth="yes"/>
      <point x="264" y="1382"/>
      <point x="412" y="1268"/>
      <point x="503" y="1177" type="curve"/>
    </contour>
  </outline>
</glyph>
<glyph name="uni0365" format="2">
  <unicode hex="0365"/>
  <anchor x="-452" y="1170" name="_marktop"/>
  <anchor x="-452" y="2018" name="_mkmktop"/>
  <outline>
    <contour>
      <point x="-415" y="1754" type="line"/>
      <point x="-490" y="1754" type="line"/>
      <point x="-490" y="1202" type="line"/>
      <point x="-415" y="1202" type="line"/>
    </contour>
    <contour>
      <point x="-500" y="1907" type="curve" smooth="yes"/>
      <point x="-500" y="1878"/>
      <point x="-483" y="1855"/>
      <point x="-453" y="1855" type="curve" smooth="yes"/>
      <point x="-423" y="1855"/>
      <point x="-404" y="1878"/>
      <point x="-404" y="1907" type="curve" smooth="yes"/>
      <point x="-404" y="1936"/>
      <point x="-423" y="1960"/>
      <point x="-453" y="1960" type="curve" smooth="yes"/>
      <point x="-483" y="1960"/>
      <point x="-500" y="1936"/>
    </contour>
  </outline>
</glyph>
<glyph name="uni036E" format="2">
  <unicode hex="036E"/>
  <anchor x="-452" y="1170" name="_marktop"/>
  <anchor x="-452" y="1818" name="_mkmktop"/>
  <outline>
    <contour>
      <point x="-441" y="1356" type="line"/>
      <point x="-471" y="1202" type="line"/>
      <point x="-420" y="1202" type="line"/>
      <point x="-248" y="1754" type="line"/>
      <point x="-329" y="1754" type="line"/>
    </contour>
    <contour>
      <point x="-576" y="1754" type="line"/>
      <point x="-657" y="1754" type="line"/>
      <point x="-485" y="1202" type="line"/>
      <point x="-434" y="1202" type="line"/>
      <point x="-464" y="1356" type="line"/>
    </contour>
  </outline>
</glyph>
<glyph name="uni0372" format="2">
  <advance width="1067"/>
  <unicode hex="0372"/>
  <outline>
    <contour>
      <point x="1005" y="1456" type="line" name="hr00"/>
      <point x="910" y="1456" type="line"/>
      <point x="910" y="968" type="line"/>
      <point x="1005" y="968" type="line"/>
    </contour>
    <contour>
      <point x="160" y="1456" type="line"/>
      <point x="63" y="1456" type="line"/>
      <point x="63" y="968" type="line"/>
      <point x="160" y="968" type="line"/>
    </contour>
    <component base="T"/>
  </outline>
</glyph>
<glyph name="uni0377" format="2">
  <advance width="1056"/>
  <unicode hex="0377"/>
  <outline>
    <contour>
      <point x="855" y="1082" type="line"/>
      <point x="855" y="276" type="line" smooth="yes"/>
      <point x="855" y="129"/>
      <point x="891" y="90"/>
      <point x="937" y="90" type="curve" smooth="yes"/>
      <point x="952" y="90"/>
      <point x="965" y="94"/>
      <point x="976" y="97" type="curve"/>
      <point x="991" y="3" type="line"/>
      <point x="963" y="-18"/>
      <point x="934" y="-21"/>
      <point x="905" y="-21" type="curve" smooth="yes"/>
      <point x="802" y="-21"/>
      <point x="745" y="62"/>
      <point x="745" y="276" type="curve" smooth="yes"/>
      <point x="745" y="1082" type="line"/>
    </contour>
    <contour>
      <point x="819" y="1017" type="line"/>
      <point x="268" y="0" type="line"/>
      <point x="191" y="65" type="line"/>
      <point x="745" y="1082" type="line"/>
    </contour>
    <contour>
      <point x="156" y="1082" type="line"/>
      <point x="268" y="1082" type="line"/>
      <point x="268" y="0" type="line"/>
      <point x="156" y="0" type="line"/>
    </contour>
  </outline>
</glyph>
<glyph name="tonos" format="2">
  <advance width="520"/>
  <unicode hex="0384"/>
  <anchor x="254" y="1334" name="_top"/>
  <anchor x="338" y="1456" name="_tonos"/>
  <outline>
    <contour>
      <point x="173" y="1283" type="line"/>
      <point x="256" y="1283" type="line"/>
      <point x="365" y="1589" type="line"/>
      <point x="247" y="1589" type="line"/>
    </contour>
  </outline>
</glyph>
<glyph name="Gamma" format="2">
  <advance width="991"/>
  <unicode hex="0393"/>
  <anchor x="540" y="1612" name="top"/>
  <anchor x="287" y="0" name="right"/>
  <anchor x="309" y="756" name="cross"/>
  <anchor x="971" y="1612" name="top0315"/>
  <outline>
    <contour>
      <point x="915" y="1456" type="line"/>
      <point x="174" y="1456" type="line"/>
      <point x="174" y="0" type="line"/>
      <point x="289" y="0" type="line"/>
      <point x="289" y="1349" type="line"/>
      <point x="915" y="1349" type="line"/>
    </contour>
  </outline>
</glyph>
<glyph name="Theta" format="2">
  <advance width="1201"/>
  <unicode hex="0398"/>
  <outline>
    <contour>
      <point x="831" y="778" type="line"/>
      <point x="371" y="778" type="line"/>
      <point x="371" y="675" type="line"/>
      <point x="831" y="675" type="line"/>
    </contour>
    <component base="O" xOffset="-8"/>
  </outline>
</glyph>
<glyph name="Xi" format="2">
  <advance width="1006"/>
  <unicode hex="039E"/>
  <outline>
    <contour>
      <point x="118" y="0" type="line"/>
      <point x="894" y="0" type="line"/>
      <point x="894" y="107" type="line"/>
      <point x="118" y="107" type="line"/>
    </contour>
    <contour>
      <point x="199" y="680" type="line"/>
      <point x="807" y="680" type="line"/>
      <point x="807" y="787" type="line"/>
      <point x="199" y="787" type="line"/>
    </contour>
    <contour>
      <point x="128" y="1349" type="line"/>
      <point x="874" y="1349" type="line"/>
      <point x="874" y="1456" type="line"/>
      <point x="128" y="1456" type="line"/>
    </contour>
  </outline>
</glyph>
<glyph name="alpha" format="2">
  <advance width="1010"/>
  <unicode hex="03B1"/>
  <anchor x="545" y="1290" name="top"/>
  <anchor x="478" y="-10" name="bottom"/>
  <anchor x="990" y="1290" name="top0315"/>
  <outline>
    <contour>
      <point x="111" y="511" type="line"/>
      <point x="111" y="193"/>
      <point x="239" y="-21"/>
      <point x="460" y="-21" type="curve" smooth="yes"/>
      <point x="675" y="-21"/>
      <point x="785" y="170"/>
      <point x="811" y="433" type="curve"/>
      <point x="811" y="632" type="line"/>
      <point x="779" y="912"/>
      <point x="672" y="1102"/>
      <point x="461" y="1102" type="curve" smooth="yes"/>
      <point x="238" y="1102"/>
      <point x="111" y="873"/>
      <point x="111" y="532" type="curve" smooth="yes"/>
    </contour>
    <contour>
      <point x="224" y="532" type="line"/>
      <point x="224" y="791"/>
      <point x="302" y="998"/>
      <point x="484" y="998" type="curve" smooth="yes"/>
      <point x="665" y="998"/>
      <point x="741" y="782"/>
      <point x="767" y="605" type="curve"/>
      <point x="767" y="444" type="line"/>
      <point x="733" y="251"/>
      <point x="657" y="83"/>
      <point x="483" y="83" type="curve" smooth="yes"/>
      <point x="302" y="83"/>
      <point x="224" y="265"/>
      <point x="224" y="511" type="curve" smooth="yes"/>
    </contour>
    <contour>
      <point x="752" y="1082" type="line"/>
      <point x="736" y="850" type="line"/>
      <point x="736" y="276" type="line"/>
      <point x="736" y="62"/>
      <point x="792" y="-21"/>
      <point x="897" y="-21" type="curve" smooth="yes"/>
      <point x="926" y="-21"/>
      <point x="954" y="-18"/>
      <point x="982" y="3" type="curve"/>
      <point x="967" y="97" type="line"/>
      <point x="955" y="94"/>
      <point x="943" y="90"/>
      <point x="928" y="90" type="curve" smooth="yes"/>
      <point x="882" y="90"/>
      <point x="846" y="129"/>
      <point x="846" y="276" type="curve" smooth="yes"/>
      <point x="846" y="1082" type="line"/>
    </contour>
  </outline>
</glyph>
<glyph name="gamma" format="2">
  <advance width="886"/>
  <unicode hex="03B3"/>
  <anchor x="448" y="47" name="cross"/>
  <outline>
    <contour>
      <point x="501" y="101" type="line"/>
      <point x="390" y="101" type="line"/>
      <point x="390" y="-416" type="line"/>
      <point x="501" y="-416" type="line"/>
    </contour>
    <contour>
      <point x="462" y="240" type="line"/>
      <point x="412" y="0" type="line"/>
      <point x="491" y="0" type="line"/>
      <point x="833" y="1082" type="line"/>
      <point x="720" y="1082" type="line"/>
    </contour>
    <contour>
      <point x="172" y="1082" type="line"/>
      <point x="58" y="1082" type="line"/>
      <point x="403" y="0" type="line"/>
      <point x="482" y="0" type="line"/>
      <point x="434" y="240" type="line"/>
    </contour>
  </outline>
</glyph>
